<svg xmlns="http://www.w3.org/2000/svg" xmlns:xlink="http://www.w3.org/1999/xlink" viewBox="0 0 687.53 545.47"><defs><style>.cls-1,.cls-82{fill:none}.cls-2{isolation:isolate}.cls-3{fill:#a0e1f0}.cls-4{fill:#3771b7}.cls-5{fill:#fffee3}.cls-6{fill:#20c5e0}.cls-7{clip-path:url(#clip-path)}.cls-8{clip-path:url(#clip-path-2)}.cls-9{clip-path:url(#clip-path-3)}.cls-10{clip-path:url(#clip-path-4)}.cls-11{clip-path:url(#clip-path-5)}.cls-12{clip-path:url(#clip-path-6)}.cls-13{clip-path:url(#clip-path-7)}.cls-14{clip-path:url(#clip-path-8)}.cls-15{clip-path:url(#clip-path-9)}.cls-16{clip-path:url(#clip-path-10)}.cls-17{clip-path:url(#clip-path-11)}.cls-18{clip-path:url(#clip-path-12)}.cls-19{clip-path:url(#clip-path-13)}.cls-20{clip-path:url(#clip-path-14)}.cls-21{clip-path:url(#clip-path-15)}.cls-22{clip-path:url(#clip-path-16)}.cls-23{clip-path:url(#clip-path-17)}.cls-24{clip-path:url(#clip-path-18)}.cls-25{clip-path:url(#clip-path-19)}.cls-26{clip-path:url(#clip-path-20)}.cls-27{clip-path:url(#clip-path-21)}.cls-28{clip-path:url(#clip-path-22)}.cls-29{clip-path:url(#clip-path-23)}.cls-30{clip-path:url(#clip-path-24)}.cls-31{clip-path:url(#clip-path-25)}.cls-32{clip-path:url(#clip-path-26)}.cls-33{clip-path:url(#clip-path-27)}.cls-34{clip-path:url(#clip-path-28)}.cls-35{clip-path:url(#clip-path-29)}.cls-36{clip-path:url(#clip-path-30)}.cls-37{clip-path:url(#clip-path-31)}.cls-38{clip-path:url(#clip-path-32)}.cls-39{clip-path:url(#clip-path-33)}.cls-40{clip-path:url(#clip-path-34)}.cls-41{clip-path:url(#clip-path-35)}.cls-42{fill:#64def2}.cls-43{fill:#417ed6}.cls-44{mix-blend-mode:multiply}.cls-45{fill:#54769e}.cls-46{clip-path:url(#clip-path-36)}.cls-47{clip-path:url(#clip-path-37)}.cls-48{clip-path:url(#clip-path-38)}.cls-49{clip-path:url(#clip-path-39)}.cls-50{clip-path:url(#clip-path-40)}.cls-51{clip-path:url(#clip-path-41)}.cls-52{clip-path:url(#clip-path-42)}.cls-53{clip-path:url(#clip-path-43)}.cls-54{clip-path:url(#clip-path-44)}.cls-55{clip-path:url(#clip-path-45)}.cls-56{clip-path:url(#clip-path-46)}.cls-57{clip-path:url(#clip-path-47)}.cls-58{clip-path:url(#clip-path-48)}.cls-59{clip-path:url(#clip-path-49)}.cls-60{clip-path:url(#clip-path-50)}.cls-61{clip-path:url(#clip-path-51)}.cls-62{clip-path:url(#clip-path-52)}.cls-63{clip-path:url(#clip-path-53)}.cls-64{clip-path:url(#clip-path-54)}.cls-65{clip-path:url(#clip-path-55)}.cls-66{clip-path:url(#clip-path-56)}.cls-67{clip-path:url(#clip-path-57)}.cls-68{clip-path:url(#clip-path-58)}.cls-69{clip-path:url(#clip-path-59)}.cls-70{clip-path:url(#clip-path-60)}.cls-71{clip-path:url(#clip-path-61)}.cls-72{clip-path:url(#clip-path-62)}.cls-73{clip-path:url(#clip-path-63)}.cls-74{clip-path:url(#clip-path-64)}.cls-75{fill:#dcfbfe}.cls-76{fill:#4783d8}.cls-77{fill:#f8e172}.cls-78{fill:#4081d6}.cls-79{fill:#1ec5df}.cls-80{fill:#25c6e1}.cls-81{fill:#f7bf74}.cls-82{stroke:#20c5e0;stroke-linecap:round;stroke-linejoin:round;stroke-width:0}.cls-83{fill:#e09f90}.cls-84{fill:#f0c2b4}.cls-85{fill:#963b43}.cls-86{fill:#bf837b}.cls-87{fill:#ff92a4}.cls-88{fill:#ffcf06}</style><clipPath id="clip-path"><path d="M508.58,359.3a7.18,7.18,0,0,1-7.49-8.28,1.34,1.34,0,0,0-1.64-1.51L432.7,366a1.35,1.35,0,0,0-.75,2.11,7.19,7.19,0,0,1-2.78,10.81,7.12,7.12,0,0,1-2.73.65,1.33,1.33,0,0,0-1.23,1.66l20.63,83.75a1.34,1.34,0,0,0,1.87.89,7.2,7.2,0,0,1,10.27,7,1.34,1.34,0,0,0,1.65,1.4l66.27-16.34a1.33,1.33,0,0,0,.82-2,7.41,7.41,0,0,1-1-2.71,7.25,7.25,0,0,1,4.49-7.78,7,7,0,0,1,2.35-.48,1.34,1.34,0,0,0,1.24-1.66L513.16,359.5a1.34,1.34,0,0,0-1.87-.89A7,7,0,0,1,508.58,359.3Z" class="cls-1"/></clipPath><clipPath id="clip-path-2"><rect width="24.1" height="28.42" x="531.86" y="339.15" class="cls-1" transform="translate(-68.75 140.4) rotate(-13.84)"/></clipPath><clipPath id="clip-path-3"><rect width="24.1" height="28.42" x="538.66" y="366.74" class="cls-1" transform="translate(-75.15 142.83) rotate(-13.84)"/></clipPath><clipPath id="clip-path-4"><rect width="24.1" height="28.42" x="545.46" y="394.34" class="cls-1" transform="translate(-81.56 145.26) rotate(-13.84)"/></clipPath><clipPath id="clip-path-5"><rect width="24.1" height="28.42" x="508.46" y="344.92" class="cls-1" transform="translate(-70.81 134.97) rotate(-13.84)"/></clipPath><clipPath id="clip-path-6"><rect width="24.1" height="28.42" x="515.26" y="372.51" class="cls-1" transform="translate(-77.21 137.4) rotate(-13.84)"/></clipPath><clipPath id="clip-path-7"><rect width="24.1" height="28.42" x="522.06" y="400.11" class="cls-1" transform="translate(-83.62 139.83) rotate(-13.84)"/></clipPath><clipPath id="clip-path-8"><rect width="24.1" height="28.42" x="528.86" y="427.7" class="cls-1" transform="translate(-90.02 142.26) rotate(-13.84)"/></clipPath><clipPath id="clip-path-9"><rect width="24.1" height="28.42" x="535.66" y="455.3" class="cls-1" transform="translate(-96.43 144.69) rotate(-13.84)"/></clipPath><clipPath id="clip-path-10"><rect width="24.1" height="28.42" x="478.25" y="323.09" class="cls-1" transform="translate(-66.46 127.11) rotate(-13.84)"/></clipPath><clipPath id="clip-path-11"><rect width="24.1" height="28.42" x="485.05" y="350.68" class="cls-1" transform="translate(-72.87 129.54) rotate(-13.84)"/></clipPath><clipPath id="clip-path-12"><rect width="24.1" height="28.42" x="491.85" y="378.28" class="cls-1" transform="translate(-79.27 131.97) rotate(-13.84)"/></clipPath><clipPath id="clip-path-13"><rect width="24.1" height="28.42" x="498.66" y="405.87" class="cls-1" transform="translate(-85.68 134.4) rotate(-13.84)"/></clipPath><clipPath id="clip-path-14"><rect width="24.1" height="28.42" x="505.46" y="433.47" class="cls-1" transform="translate(-92.08 136.83) rotate(-13.84)"/></clipPath><clipPath id="clip-path-15"><rect width="24.1" height="28.42" x="512.26" y="461.06" class="cls-1" transform="translate(-98.49 139.25) rotate(-13.84)"/></clipPath><clipPath id="clip-path-16"><rect width="24.1" height="28.42" x="454.85" y="328.86" class="cls-1" transform="translate(-68.52 121.68) rotate(-13.84)"/></clipPath><clipPath id="clip-path-17"><rect width="24.1" height="28.42" x="461.65" y="356.45" class="cls-1" transform="translate(-74.93 124.11) rotate(-13.84)"/></clipPath><clipPath id="clip-path-18"><rect width="24.1" height="28.42" x="468.45" y="384.05" class="cls-1" transform="translate(-81.33 126.54) rotate(-13.84)"/></clipPath><clipPath id="clip-path-19"><rect width="24.1" height="28.42" x="475.25" y="411.64" class="cls-1" transform="translate(-87.74 128.97) rotate(-13.84)"/></clipPath><clipPath id="clip-path-20"><rect width="24.1" height="28.42" x="482.05" y="439.24" class="cls-1" transform="translate(-94.14 131.39) rotate(-13.84)"/></clipPath><clipPath id="clip-path-21"><rect width="24.1" height="28.42" x="488.85" y="466.83" class="cls-1" transform="translate(-100.55 133.82) rotate(-13.84)"/></clipPath><clipPath id="clip-path-22"><rect width="24.1" height="28.42" x="431.45" y="334.62" class="cls-1" transform="translate(-70.58 116.25) rotate(-13.84)"/></clipPath><clipPath id="clip-path-23"><rect width="24.1" height="28.42" x="438.25" y="362.22" class="cls-1" transform="translate(-76.99 118.68) rotate(-13.84)"/></clipPath><clipPath id="clip-path-24"><rect width="24.1" height="28.42" x="445.05" y="389.81" class="cls-1" transform="translate(-83.39 121.1) rotate(-13.84)"/></clipPath><clipPath id="clip-path-25"><rect width="24.1" height="28.42" x="451.85" y="417.41" class="cls-1" transform="translate(-89.8 123.53) rotate(-13.84)"/></clipPath><clipPath id="clip-path-26"><rect width="24.1" height="28.42" x="458.65" y="445" class="cls-1" transform="translate(-96.2 125.96) rotate(-13.84)"/></clipPath><clipPath id="clip-path-27"><rect width="24.1" height="28.42" x="465.45" y="472.6" class="cls-1" transform="translate(-102.61 128.39) rotate(-13.84)"/></clipPath><clipPath id="clip-path-28"><rect width="24.1" height="28.42" x="408.04" y="340.39" class="cls-1" transform="translate(-72.64 110.82) rotate(-13.84)"/></clipPath><clipPath id="clip-path-29"><rect width="24.1" height="28.42" x="414.84" y="367.99" class="cls-1" transform="translate(-79.05 113.24) rotate(-13.84)"/></clipPath><clipPath id="clip-path-30"><rect width="24.1" height="28.42" x="421.64" y="395.58" class="cls-1" transform="translate(-85.45 115.67) rotate(-13.84)"/></clipPath><clipPath id="clip-path-31"><rect width="24.1" height="28.42" x="428.45" y="423.18" class="cls-1" transform="translate(-91.86 118.1) rotate(-13.84)"/></clipPath><clipPath id="clip-path-32"><rect width="24.1" height="28.42" x="435.25" y="450.77" class="cls-1" transform="translate(-98.26 120.53) rotate(-13.84)"/></clipPath><clipPath id="clip-path-33"><rect width="24.1" height="28.42" x="398.24" y="401.35" class="cls-1" transform="translate(-87.51 110.24) rotate(-13.84)"/></clipPath><clipPath id="clip-path-34"><rect width="24.1" height="28.42" x="405.04" y="428.94" class="cls-1" transform="translate(-93.92 112.67) rotate(-13.84)"/></clipPath><clipPath id="clip-path-35"><rect width="24.1" height="28.42" x="411.84" y="456.54" class="cls-1" transform="translate(-100.32 115.1) rotate(-13.84)"/></clipPath><clipPath id="clip-path-36"><path d="M531.94,353.41a7.19,7.19,0,0,1-6.39-9.15,1.34,1.34,0,0,0-1.44-1.71l-68.28,8a1.34,1.34,0,0,0-1,2,7.2,7.2,0,0,1-4.1,10.39,7.3,7.3,0,0,1-2.79.3,1.33,1.33,0,0,0-1.43,1.49l10,85.68a1.34,1.34,0,0,0,1.74,1.12,7.05,7.05,0,0,1,2.37-.37,7.2,7.2,0,0,1,6.94,8.6,1.33,1.33,0,0,0,1.47,1.59l67.79-7.92a1.34,1.34,0,0,0,1.06-1.89A7.18,7.18,0,0,1,545,441.35a1.34,1.34,0,0,0,1.44-1.49l-10-85.67a1.33,1.33,0,0,0-1.74-1.12A7.24,7.24,0,0,1,531.94,353.41Z" class="cls-1"/></clipPath><clipPath id="clip-path-37"><rect width="24.1" height="28.42" x="531.76" y="340.52" class="cls-1" transform="translate(-37.5 65.51) rotate(-6.66)"/></clipPath><clipPath id="clip-path-38"><rect width="24.1" height="28.42" x="535.05" y="368.75" class="cls-1" transform="translate(-40.75 66.09) rotate(-6.66)"/></clipPath><clipPath id="clip-path-39"><rect width="24.1" height="28.42" x="538.35" y="396.98" class="cls-1" transform="translate(-44 66.66) rotate(-6.66)"/></clipPath><clipPath id="clip-path-40"><rect width="24.1" height="28.42" x="541.65" y="425.21" class="cls-1" transform="translate(-47.26 67.23) rotate(-6.66)"/></clipPath><clipPath id="clip-path-41"><rect width="24.1" height="28.42" x="544.95" y="453.44" class="cls-1" transform="translate(-50.51 67.81) rotate(-6.66)"/></clipPath><clipPath id="clip-path-42"><rect width="24.1" height="28.42" x="504.52" y="315.09" class="cls-1" transform="translate(-34.73 62.18) rotate(-6.66)"/></clipPath><clipPath id="clip-path-43"><rect width="24.1" height="28.42" x="507.81" y="343.32" class="cls-1" transform="translate(-37.98 62.75) rotate(-6.66)"/></clipPath><clipPath id="clip-path-44"><rect width="24.1" height="28.42" x="511.11" y="371.55" class="cls-1" transform="translate(-41.24 63.33) rotate(-6.66)"/></clipPath><clipPath id="clip-path-45"><rect width="24.1" height="28.42" x="514.41" y="399.78" class="cls-1" transform="translate(-44.49 63.9) rotate(-6.66)"/></clipPath><clipPath id="clip-path-46"><rect width="24.1" height="28.42" x="517.71" y="428" class="cls-1" transform="translate(-47.74 64.47) rotate(-6.66)"/></clipPath><clipPath id="clip-path-47"><rect width="24.1" height="28.42" x="521.01" y="456.23" class="cls-1" transform="translate(-51 65.05) rotate(-6.66)"/></clipPath><clipPath id="clip-path-48"><rect width="24.1" height="28.42" x="480.58" y="317.89" class="cls-1" transform="translate(-35.22 59.42) rotate(-6.66)"/></clipPath><clipPath id="clip-path-49"><rect width="24.1" height="28.42" x="483.87" y="346.12" class="cls-1" transform="translate(-38.47 59.99) rotate(-6.66)"/></clipPath><clipPath id="clip-path-50"><rect width="24.1" height="28.42" x="487.17" y="374.34" class="cls-1" transform="translate(-41.72 60.57) rotate(-6.66)"/></clipPath><clipPath id="clip-path-51"><rect width="24.1" height="28.42" x="490.47" y="402.57" class="cls-1" transform="translate(-44.98 61.14) rotate(-6.66)"/></clipPath><clipPath id="clip-path-52"><rect width="24.1" height="28.42" x="493.77" y="430.8" class="cls-1" transform="translate(-48.23 61.71) rotate(-6.66)"/></clipPath><clipPath id="clip-path-53"><rect width="24.1" height="28.42" x="497.07" y="459.03" class="cls-1" transform="translate(-51.49 62.29) rotate(-6.66)"/></clipPath><clipPath id="clip-path-54"><rect width="24.1" height="28.42" x="456.64" y="320.69" class="cls-1" transform="translate(-35.7 56.66) rotate(-6.66)"/></clipPath><clipPath id="clip-path-55"><rect width="24.1" height="28.42" x="459.93" y="348.91" class="cls-1" transform="translate(-38.96 57.23) rotate(-6.66)"/></clipPath><clipPath id="clip-path-56"><rect width="24.1" height="28.42" x="463.23" y="377.14" class="cls-1" transform="translate(-42.21 57.81) rotate(-6.66)"/></clipPath><clipPath id="clip-path-57"><rect width="24.1" height="28.42" x="466.53" y="405.37" class="cls-1" transform="translate(-45.46 58.38) rotate(-6.66)"/></clipPath><clipPath id="clip-path-58"><rect width="24.1" height="28.42" x="469.83" y="433.6" class="cls-1" transform="translate(-48.72 58.96) rotate(-6.66)"/></clipPath><clipPath id="clip-path-59"><rect width="24.1" height="28.42" x="473.13" y="461.83" class="cls-1" transform="translate(-51.97 59.53) rotate(-6.66)"/></clipPath><clipPath id="clip-path-60"><rect width="24.1" height="28.42" x="432.69" y="323.48" class="cls-1" transform="translate(-36.19 53.9) rotate(-6.66)"/></clipPath><clipPath id="clip-path-61"><rect width="24.1" height="28.42" x="435.99" y="351.71" class="cls-1" transform="translate(-39.44 54.47) rotate(-6.66)"/></clipPath><clipPath id="clip-path-62"><rect width="24.1" height="28.42" x="439.29" y="379.94" class="cls-1" transform="translate(-42.7 55.05) rotate(-6.66)"/></clipPath><clipPath id="clip-path-63"><rect width="24.1" height="28.42" x="442.59" y="408.17" class="cls-1" transform="translate(-45.95 55.62) rotate(-6.66)"/></clipPath><clipPath id="clip-path-64"><rect width="24.1" height="28.42" x="445.89" y="436.4" class="cls-1" transform="translate(-49.2 56.2) rotate(-6.66)"/></clipPath></defs><g class="cls-2"><g id="图层_2" data-name="图层 2"><g id="图层_1-2" data-name="图层 1"><path d="M673.6,274.64s11.37,32.84-17.36,57.62-96.49,26.5-96.49,26.5l10.84-45.21L639,264Z" class="cls-3"/><path d="M660.5,194.74s22.26,15.42,26.1,44.62-4.5,38.47-19.77,45.4-59.56,29.35-71.51,28.89-20-49.3-20-49.3Z" class="cls-3"/><path d="M559.57,246.81s33.83-24.67,48.87-43.56,26.08-56.29,32.91-59.38,19.54-7.76,26.3,14.42,8.85,49.79-32.07,84.25-66,53-66,53Z" class="cls-3"/><path d="M19.64,269.45S8.27,302.3,37,327.07s96.49,26.51,96.49,26.51l-10.84-45.22L54.22,258.85Z" class="cls-3"/><path d="M32.74,189.56S10.48,205,6.64,234.18s4.5,38.47,19.77,45.39S86,308.92,97.92,308.47s20-49.31,20-49.31Z" class="cls-3"/><path d="M133.67,241.63S99.84,217,84.8,198.06s-26.08-56.28-32.91-59.38-19.54-7.76-26.3,14.43-8.84,49.78,32.07,84.25,66,53,66,53Z" class="cls-3"/><path d="M349.7,493.21a246.6,246.6,0,0,1-174.37-421A246.6,246.6,0,1,1,524.08,421,245,245,0,0,1,349.7,493.21Zm0-450.69c-112.53,0-204.08,91.55-204.08,204.09S237.17,450.69,349.7,450.69s204.09-91.55,204.09-204.08S462.24,42.52,349.7,42.52Z" class="cls-4"/><rect width="104.35" height="128.53" x="427.24" y="347.63" class="cls-5" rx="15.03" transform="translate(-84.63 126.67) rotate(-13.84)"/><path d="M508.58,359.3a7.18,7.18,0,0,1-7.49-8.28,1.34,1.34,0,0,0-1.64-1.51L432.7,366a1.35,1.35,0,0,0-.75,2.11,7.19,7.19,0,0,1-2.78,10.81,7.12,7.12,0,0,1-2.73.65,1.33,1.33,0,0,0-1.23,1.66l20.63,83.75a1.34,1.34,0,0,0,1.87.89,7.2,7.2,0,0,1,10.27,7,1.34,1.34,0,0,0,1.65,1.4l66.27-16.34a1.33,1.33,0,0,0,.82-2,7.41,7.41,0,0,1-1-2.71,7.25,7.25,0,0,1,4.49-7.78,7,7,0,0,1,2.35-.48,1.34,1.34,0,0,0,1.24-1.66L513.16,359.5a1.34,1.34,0,0,0-1.87-.89A7,7,0,0,1,508.58,359.3Z" class="cls-6"/><g class="cls-7"><g class="cls-8"><path d="M545.28,341.2l-3.39,8.31a5.06,5.06,0,0,0,1.42,5.76l6.87,5.79a4.6,4.6,0,0,0,7.21-1.78l3.39-8.32a5,5,0,0,0-1.42-5.75l-6.87-5.79A4.59,4.59,0,0,0,545.28,341.2Z" class="cls-3"/><path d="M521.88,347l-3.39,8.32a5,5,0,0,0,1.42,5.76l6.86,5.78a4.59,4.59,0,0,0,7.21-1.77l3.39-8.32A5,5,0,0,0,536,351l-6.87-5.78A4.59,4.59,0,0,0,521.88,347Z" class="cls-3"/></g><g class="cls-9"><path d="M552.08,368.79l-3.39,8.32a5,5,0,0,0,1.42,5.75l6.87,5.79a4.59,4.59,0,0,0,7.21-1.78l3.39-8.31a5.06,5.06,0,0,0-1.42-5.76L559.29,367A4.6,4.6,0,0,0,552.08,368.79Z" class="cls-3"/><path d="M528.68,374.56l-3.39,8.31a5,5,0,0,0,1.42,5.76l6.86,5.79a4.59,4.59,0,0,0,7.21-1.78l3.39-8.31a5,5,0,0,0-1.41-5.76l-6.87-5.79A4.59,4.59,0,0,0,528.68,374.56Z" class="cls-3"/></g><g class="cls-10"><path d="M558.88,396.39l-3.39,8.31a5.05,5.05,0,0,0,1.42,5.76l6.87,5.79a4.6,4.6,0,0,0,7.21-1.78l3.39-8.32A5,5,0,0,0,573,400.4l-6.87-5.79A4.59,4.59,0,0,0,558.88,396.39Z" class="cls-3"/><path d="M535.48,402.15l-3.39,8.32a5,5,0,0,0,1.42,5.76l6.86,5.78a4.59,4.59,0,0,0,7.21-1.77l3.39-8.32a5,5,0,0,0-1.41-5.76l-6.87-5.78A4.59,4.59,0,0,0,535.48,402.15Z" class="cls-3"/></g><g class="cls-11"><path d="M521.88,347l-3.39,8.32a5,5,0,0,0,1.42,5.76l6.86,5.78a4.59,4.59,0,0,0,7.21-1.77l3.39-8.32A5,5,0,0,0,536,351l-6.87-5.78A4.59,4.59,0,0,0,521.88,347Z" class="cls-3"/><path d="M498.48,352.73l-3.39,8.32a5,5,0,0,0,1.41,5.75l6.87,5.79a4.59,4.59,0,0,0,7.21-1.78L514,362.5a5,5,0,0,0-1.42-5.76L505.69,351A4.59,4.59,0,0,0,498.48,352.73Z" class="cls-3"/></g><g class="cls-12"><path d="M528.68,374.56l-3.39,8.31a5,5,0,0,0,1.42,5.76l6.86,5.79a4.59,4.59,0,0,0,7.21-1.78l3.39-8.31a5,5,0,0,0-1.41-5.76l-6.87-5.79A4.59,4.59,0,0,0,528.68,374.56Z" class="cls-3"/><path d="M505.28,380.33l-3.39,8.31a5,5,0,0,0,1.41,5.76l6.87,5.79a4.6,4.6,0,0,0,7.21-1.78l3.39-8.32a5,5,0,0,0-1.42-5.75l-6.86-5.79A4.59,4.59,0,0,0,505.28,380.33Z" class="cls-3"/></g><g class="cls-13"><path d="M535.48,402.15l-3.39,8.32a5,5,0,0,0,1.42,5.76l6.86,5.78a4.59,4.59,0,0,0,7.21-1.77l3.39-8.32a5,5,0,0,0-1.41-5.76l-6.87-5.78A4.59,4.59,0,0,0,535.48,402.15Z" class="cls-3"/><path d="M512.08,407.92l-3.39,8.32A5,5,0,0,0,510.1,422l6.87,5.79a4.59,4.59,0,0,0,7.21-1.78l3.39-8.31a5,5,0,0,0-1.42-5.76l-6.86-5.79A4.59,4.59,0,0,0,512.08,407.92Z" class="cls-3"/></g><g class="cls-14"><path d="M542.28,429.75l-3.39,8.31a5,5,0,0,0,1.42,5.76l6.86,5.79a4.59,4.59,0,0,0,7.21-1.78l3.39-8.31a5,5,0,0,0-1.41-5.76L549.49,428A4.59,4.59,0,0,0,542.28,429.75Z" class="cls-3"/><path d="M518.88,435.52l-3.39,8.31a5,5,0,0,0,1.42,5.76l6.86,5.79A4.6,4.6,0,0,0,531,453.6l3.39-8.32a5,5,0,0,0-1.42-5.75l-6.86-5.79A4.59,4.59,0,0,0,518.88,435.52Z" class="cls-3"/></g><g class="cls-15"><path d="M549.08,457.34l-3.39,8.32a5,5,0,0,0,1.42,5.76L554,477.2a4.59,4.59,0,0,0,7.21-1.77l3.4-8.32a5.06,5.06,0,0,0-1.42-5.76l-6.87-5.78A4.59,4.59,0,0,0,549.08,457.34Z" class="cls-3"/><path d="M525.68,463.11l-3.39,8.32a5,5,0,0,0,1.42,5.75l6.86,5.79a4.59,4.59,0,0,0,7.21-1.78l3.39-8.31a5,5,0,0,0-1.42-5.76l-6.86-5.79A4.6,4.6,0,0,0,525.68,463.11Z" class="cls-3"/></g><g class="cls-16"><path d="M491.68,325.14l-3.39,8.31a5,5,0,0,0,1.41,5.76l6.87,5.78a4.59,4.59,0,0,0,7.21-1.77l3.39-8.32a5,5,0,0,0-1.42-5.75l-6.86-5.79A4.59,4.59,0,0,0,491.68,325.14Z" class="cls-3"/><path d="M468.27,330.9l-3.39,8.32A5,5,0,0,0,466.3,345l6.87,5.79a4.59,4.59,0,0,0,7.21-1.77l3.39-8.32a5.06,5.06,0,0,0-1.42-5.76l-6.87-5.78A4.59,4.59,0,0,0,468.27,330.9Z" class="cls-3"/></g><g class="cls-17"><path d="M498.48,352.73l-3.39,8.32a5,5,0,0,0,1.41,5.75l6.87,5.79a4.59,4.59,0,0,0,7.21-1.78L514,362.5a5,5,0,0,0-1.42-5.76L505.69,351A4.59,4.59,0,0,0,498.48,352.73Z" class="cls-3"/><path d="M475.07,358.5l-3.39,8.31a5.05,5.05,0,0,0,1.42,5.76l6.87,5.79a4.59,4.59,0,0,0,7.21-1.78l3.39-8.31a5.05,5.05,0,0,0-1.42-5.76l-6.87-5.79A4.59,4.59,0,0,0,475.07,358.5Z" class="cls-3"/></g><g class="cls-18"><path d="M505.28,380.33l-3.39,8.31a5,5,0,0,0,1.41,5.76l6.87,5.79a4.6,4.6,0,0,0,7.21-1.78l3.39-8.32a5,5,0,0,0-1.42-5.75l-6.86-5.79A4.59,4.59,0,0,0,505.28,380.33Z" class="cls-3"/><path d="M481.87,386.09l-3.39,8.32a5,5,0,0,0,1.42,5.75l6.87,5.79a4.59,4.59,0,0,0,7.21-1.77l3.39-8.32A5.06,5.06,0,0,0,496,390.1l-6.87-5.78A4.59,4.59,0,0,0,481.87,386.09Z" class="cls-3"/></g><g class="cls-19"><path d="M512.08,407.92l-3.39,8.32A5,5,0,0,0,510.1,422l6.87,5.79a4.59,4.59,0,0,0,7.21-1.78l3.39-8.31a5,5,0,0,0-1.42-5.76l-6.86-5.79A4.59,4.59,0,0,0,512.08,407.92Z" class="cls-3"/><path d="M488.67,413.69,485.28,422a5.05,5.05,0,0,0,1.42,5.76l6.87,5.79a4.59,4.59,0,0,0,7.21-1.78l3.39-8.31a5.05,5.05,0,0,0-1.42-5.76l-6.87-5.79A4.59,4.59,0,0,0,488.67,413.69Z" class="cls-3"/></g><g class="cls-20"><path d="M518.88,435.52l-3.39,8.31a5,5,0,0,0,1.42,5.76l6.86,5.79A4.6,4.6,0,0,0,531,453.6l3.39-8.32a5,5,0,0,0-1.42-5.75l-6.86-5.79A4.59,4.59,0,0,0,518.88,435.52Z" class="cls-3"/><path d="M495.47,441.28l-3.39,8.32a5.06,5.06,0,0,0,1.42,5.76l6.87,5.78a4.59,4.59,0,0,0,7.21-1.77l3.39-8.32a5.06,5.06,0,0,0-1.42-5.76l-6.87-5.78A4.59,4.59,0,0,0,495.47,441.28Z" class="cls-3"/></g><g class="cls-21"><path d="M525.68,463.11l-3.39,8.32a5,5,0,0,0,1.42,5.75l6.86,5.79a4.59,4.59,0,0,0,7.21-1.78l3.39-8.31a5,5,0,0,0-1.42-5.76l-6.86-5.79A4.6,4.6,0,0,0,525.68,463.11Z" class="cls-3"/><path d="M502.27,468.88l-3.39,8.31A5.05,5.05,0,0,0,500.3,483l6.87,5.79a4.59,4.59,0,0,0,7.21-1.78l3.39-8.31a5.05,5.05,0,0,0-1.42-5.76l-6.87-5.79A4.59,4.59,0,0,0,502.27,468.88Z" class="cls-3"/></g><g class="cls-22"><path d="M468.27,330.9l-3.39,8.32A5,5,0,0,0,466.3,345l6.87,5.79a4.59,4.59,0,0,0,7.21-1.77l3.39-8.32a5.06,5.06,0,0,0-1.42-5.76l-6.87-5.78A4.59,4.59,0,0,0,468.27,330.9Z" class="cls-3"/><path d="M444.87,336.67,441.48,345a5,5,0,0,0,1.42,5.76l6.86,5.79a4.59,4.59,0,0,0,7.21-1.78l3.39-8.31a5,5,0,0,0-1.41-5.76l-6.87-5.79A4.59,4.59,0,0,0,444.87,336.67Z" class="cls-3"/></g><g class="cls-23"><path d="M475.07,358.5l-3.39,8.31a5.05,5.05,0,0,0,1.42,5.76l6.87,5.79a4.59,4.59,0,0,0,7.21-1.78l3.39-8.31a5.05,5.05,0,0,0-1.42-5.76l-6.87-5.79A4.59,4.59,0,0,0,475.07,358.5Z" class="cls-3"/><path d="M451.67,364.26l-3.39,8.32a5,5,0,0,0,1.42,5.76l6.86,5.78a4.59,4.59,0,0,0,7.21-1.77l3.39-8.32a5,5,0,0,0-1.41-5.75l-6.87-5.79A4.59,4.59,0,0,0,451.67,364.26Z" class="cls-3"/></g><g class="cls-24"><path d="M481.87,386.09l-3.39,8.32a5,5,0,0,0,1.42,5.75l6.87,5.79a4.59,4.59,0,0,0,7.21-1.77l3.39-8.32A5.06,5.06,0,0,0,496,390.1l-6.87-5.78A4.59,4.59,0,0,0,481.87,386.09Z" class="cls-3"/><path d="M458.47,391.86l-3.39,8.32a5,5,0,0,0,1.42,5.75l6.86,5.79a4.59,4.59,0,0,0,7.21-1.78l3.39-8.31a5,5,0,0,0-1.41-5.76l-6.87-5.79A4.59,4.59,0,0,0,458.47,391.86Z" class="cls-3"/></g><g class="cls-25"><path d="M488.67,413.69,485.28,422a5.05,5.05,0,0,0,1.42,5.76l6.87,5.79a4.59,4.59,0,0,0,7.21-1.78l3.39-8.31a5.05,5.05,0,0,0-1.42-5.76l-6.87-5.79A4.59,4.59,0,0,0,488.67,413.69Z" class="cls-3"/><path d="M465.27,419.46l-3.39,8.31a5,5,0,0,0,1.42,5.76l6.86,5.78a4.59,4.59,0,0,0,7.21-1.77l3.39-8.32a5,5,0,0,0-1.41-5.75l-6.87-5.79A4.59,4.59,0,0,0,465.27,419.46Z" class="cls-3"/></g><g class="cls-26"><path d="M495.47,441.28l-3.39,8.32a5.06,5.06,0,0,0,1.42,5.76l6.87,5.78a4.59,4.59,0,0,0,7.21-1.77l3.39-8.32a5.06,5.06,0,0,0-1.42-5.76l-6.87-5.78A4.59,4.59,0,0,0,495.47,441.28Z" class="cls-3"/><path d="M472.07,447.05l-3.39,8.32a5,5,0,0,0,1.42,5.75l6.86,5.79a4.59,4.59,0,0,0,7.21-1.78l3.4-8.31a5.05,5.05,0,0,0-1.42-5.76l-6.87-5.79A4.59,4.59,0,0,0,472.07,447.05Z" class="cls-3"/></g><g class="cls-27"><path d="M502.27,468.88l-3.39,8.31A5.05,5.05,0,0,0,500.3,483l6.87,5.79a4.59,4.59,0,0,0,7.21-1.78l3.39-8.31a5.05,5.05,0,0,0-1.42-5.76l-6.87-5.79A4.59,4.59,0,0,0,502.27,468.88Z" class="cls-3"/><path d="M478.87,474.65,475.48,483a5,5,0,0,0,1.42,5.76l6.86,5.79a4.6,4.6,0,0,0,7.21-1.78l3.4-8.32a5,5,0,0,0-1.42-5.75l-6.87-5.79A4.59,4.59,0,0,0,478.87,474.65Z" class="cls-3"/></g><g class="cls-28"><path d="M444.87,336.67,441.48,345a5,5,0,0,0,1.42,5.76l6.86,5.79a4.59,4.59,0,0,0,7.21-1.78l3.39-8.31a5,5,0,0,0-1.41-5.76l-6.87-5.79A4.59,4.59,0,0,0,444.87,336.67Z" class="cls-3"/><path d="M421.47,342.44l-3.39,8.31a5,5,0,0,0,1.41,5.76l6.87,5.79a4.6,4.6,0,0,0,7.21-1.78L437,352.2a5,5,0,0,0-1.42-5.75l-6.86-5.79A4.59,4.59,0,0,0,421.47,342.44Z" class="cls-3"/></g><g class="cls-29"><path d="M451.67,364.26l-3.39,8.32a5,5,0,0,0,1.42,5.76l6.86,5.78a4.59,4.59,0,0,0,7.21-1.77l3.39-8.32a5,5,0,0,0-1.41-5.75l-6.87-5.79A4.59,4.59,0,0,0,451.67,364.26Z" class="cls-3"/><path d="M428.27,370l-3.39,8.32a5,5,0,0,0,1.41,5.75l6.87,5.79a4.59,4.59,0,0,0,7.21-1.78l3.39-8.31a5,5,0,0,0-1.42-5.76l-6.86-5.78A4.59,4.59,0,0,0,428.27,370Z" class="cls-3"/></g><g class="cls-30"><path d="M458.47,391.86l-3.39,8.32a5,5,0,0,0,1.42,5.75l6.86,5.79a4.59,4.59,0,0,0,7.21-1.78l3.39-8.31a5,5,0,0,0-1.41-5.76l-6.87-5.79A4.59,4.59,0,0,0,458.47,391.86Z" class="cls-3"/><path d="M435.07,397.63l-3.39,8.31a5,5,0,0,0,1.41,5.76l6.87,5.79a4.59,4.59,0,0,0,7.21-1.78l3.39-8.32a5,5,0,0,0-1.42-5.75l-6.86-5.79A4.59,4.59,0,0,0,435.07,397.63Z" class="cls-3"/></g><g class="cls-31"><path d="M465.27,419.46l-3.39,8.31a5,5,0,0,0,1.42,5.76l6.86,5.78a4.59,4.59,0,0,0,7.21-1.77l3.39-8.32a5,5,0,0,0-1.41-5.75l-6.87-5.79A4.59,4.59,0,0,0,465.27,419.46Z" class="cls-3"/><path d="M441.87,425.22l-3.39,8.32a5,5,0,0,0,1.42,5.75l6.86,5.79a4.59,4.59,0,0,0,7.21-1.77l3.39-8.32a5,5,0,0,0-1.42-5.76l-6.86-5.78A4.59,4.59,0,0,0,441.87,425.22Z" class="cls-3"/></g><g class="cls-32"><path d="M472.07,447.05l-3.39,8.32a5,5,0,0,0,1.42,5.75l6.86,5.79a4.59,4.59,0,0,0,7.21-1.78l3.4-8.31a5.05,5.05,0,0,0-1.42-5.76l-6.87-5.79A4.59,4.59,0,0,0,472.07,447.05Z" class="cls-3"/><path d="M448.67,452.82l-3.39,8.31a5,5,0,0,0,1.42,5.76l6.86,5.79a4.59,4.59,0,0,0,7.21-1.78l3.39-8.31a5,5,0,0,0-1.42-5.76L455.88,451A4.59,4.59,0,0,0,448.67,452.82Z" class="cls-3"/></g><g class="cls-33"><path d="M478.87,474.65,475.48,483a5,5,0,0,0,1.42,5.76l6.86,5.79a4.6,4.6,0,0,0,7.21-1.78l3.4-8.32a5,5,0,0,0-1.42-5.75l-6.87-5.79A4.59,4.59,0,0,0,478.87,474.65Z" class="cls-3"/><path d="M455.47,480.41l-3.39,8.32a5,5,0,0,0,1.42,5.75l6.86,5.79a4.59,4.59,0,0,0,7.21-1.77l3.39-8.32a5,5,0,0,0-1.42-5.76l-6.86-5.78A4.59,4.59,0,0,0,455.47,480.41Z" class="cls-3"/></g><g class="cls-34"><path d="M421.47,342.44l-3.39,8.31a5,5,0,0,0,1.41,5.76l6.87,5.79a4.6,4.6,0,0,0,7.21-1.78L437,352.2a5,5,0,0,0-1.42-5.75l-6.86-5.79A4.59,4.59,0,0,0,421.47,342.44Z" class="cls-3"/><path d="M398.06,348.2l-3.39,8.32a5.06,5.06,0,0,0,1.42,5.76l6.87,5.78a4.59,4.59,0,0,0,7.21-1.77l3.39-8.32a5.06,5.06,0,0,0-1.42-5.76l-6.87-5.78A4.59,4.59,0,0,0,398.06,348.2Z" class="cls-3"/></g><g class="cls-35"><path d="M428.27,370l-3.39,8.32a5,5,0,0,0,1.41,5.75l6.87,5.79a4.59,4.59,0,0,0,7.21-1.78l3.39-8.31a5,5,0,0,0-1.42-5.76l-6.86-5.78A4.59,4.59,0,0,0,428.27,370Z" class="cls-3"/><path d="M404.86,375.8l-3.39,8.31a5.05,5.05,0,0,0,1.42,5.76l6.87,5.79a4.59,4.59,0,0,0,7.21-1.78l3.39-8.31a5.05,5.05,0,0,0-1.42-5.76L412.07,374A4.59,4.59,0,0,0,404.86,375.8Z" class="cls-3"/></g><g class="cls-36"><path d="M435.07,397.63l-3.39,8.31a5,5,0,0,0,1.41,5.76l6.87,5.79a4.59,4.59,0,0,0,7.21-1.78l3.39-8.32a5,5,0,0,0-1.42-5.75l-6.86-5.79A4.59,4.59,0,0,0,435.07,397.63Z" class="cls-3"/><path d="M411.66,403.39l-3.39,8.32a5.06,5.06,0,0,0,1.42,5.76l6.87,5.78a4.59,4.59,0,0,0,7.21-1.77l3.39-8.32a5,5,0,0,0-1.42-5.75l-6.87-5.79A4.59,4.59,0,0,0,411.66,403.39Z" class="cls-3"/></g><g class="cls-37"><path d="M441.87,425.22l-3.39,8.32a5,5,0,0,0,1.42,5.75l6.86,5.79a4.59,4.59,0,0,0,7.21-1.77l3.39-8.32a5,5,0,0,0-1.42-5.76l-6.86-5.78A4.59,4.59,0,0,0,441.87,425.22Z" class="cls-3"/><path d="M418.46,431l-3.39,8.31a5.05,5.05,0,0,0,1.42,5.76l6.87,5.79a4.59,4.59,0,0,0,7.21-1.78l3.39-8.31a5.05,5.05,0,0,0-1.42-5.76l-6.87-5.79A4.59,4.59,0,0,0,418.46,431Z" class="cls-3"/></g><g class="cls-38"><path d="M448.67,452.82l-3.39,8.31a5,5,0,0,0,1.42,5.76l6.86,5.79a4.59,4.59,0,0,0,7.21-1.78l3.39-8.31a5,5,0,0,0-1.42-5.76L455.88,451A4.59,4.59,0,0,0,448.67,452.82Z" class="cls-3"/><path d="M425.26,458.58l-3.39,8.32a5.06,5.06,0,0,0,1.42,5.76l6.87,5.78a4.59,4.59,0,0,0,7.21-1.77l3.39-8.32a5,5,0,0,0-1.42-5.75l-6.87-5.79A4.59,4.59,0,0,0,425.26,458.58Z" class="cls-3"/></g><g class="cls-39"><path d="M411.66,403.39l-3.39,8.32a5.06,5.06,0,0,0,1.42,5.76l6.87,5.78a4.59,4.59,0,0,0,7.21-1.77l3.39-8.32a5,5,0,0,0-1.42-5.75l-6.87-5.79A4.59,4.59,0,0,0,411.66,403.39Z" class="cls-3"/><path d="M388.26,409.16l-3.39,8.32a5,5,0,0,0,1.42,5.75l6.86,5.79a4.59,4.59,0,0,0,7.21-1.78l3.39-8.31a5,5,0,0,0-1.41-5.76l-6.87-5.79A4.6,4.6,0,0,0,388.26,409.16Z" class="cls-3"/></g><g class="cls-40"><path d="M418.46,431l-3.39,8.31a5.05,5.05,0,0,0,1.42,5.76l6.87,5.79a4.59,4.59,0,0,0,7.21-1.78l3.39-8.31a5.05,5.05,0,0,0-1.42-5.76l-6.87-5.79A4.59,4.59,0,0,0,418.46,431Z" class="cls-3"/><path d="M395.06,436.76l-3.39,8.31a5,5,0,0,0,1.42,5.76l6.86,5.79a4.59,4.59,0,0,0,7.21-1.78l3.4-8.32a5,5,0,0,0-1.42-5.75L402.27,435A4.59,4.59,0,0,0,395.06,436.76Z" class="cls-3"/></g><g class="cls-41"><path d="M425.26,458.58l-3.39,8.32a5.06,5.06,0,0,0,1.42,5.76l6.87,5.78a4.59,4.59,0,0,0,7.21-1.77l3.39-8.32a5,5,0,0,0-1.42-5.75l-6.87-5.79A4.59,4.59,0,0,0,425.26,458.58Z" class="cls-3"/><path d="M401.86,464.35l-3.39,8.32a5,5,0,0,0,1.42,5.75l6.86,5.79a4.59,4.59,0,0,0,7.21-1.78l3.4-8.31a5.06,5.06,0,0,0-1.42-5.76l-6.87-5.78A4.59,4.59,0,0,0,401.86,464.35Z" class="cls-3"/></g></g><circle cx="479.42" cy="411.9" r="31.05" class="cls-42"/><circle cx="479.42" cy="411.9" r="25.37" class="cls-43"/><path d="M498.94,411.23a63.51,63.51,0,0,0-12,.22h0a.29.29,0,0,0-.11-.33l-.26-.13c-.19-.13-.1-.55-.4-.42l-.08,0a4.91,4.91,0,0,1-.53-1.35,10.94,10.94,0,0,0,4.13-.23c2.32-.89,3.43-2.33,3.62-3.31.11-.58-.1-1.7-1.44-1.39a1.24,1.24,0,0,0-.55.27,1.1,1.1,0,0,1-1.31.07c-.67-.43-1.52-1-1.9-1.28-.67-.51-8.32-6.18-10.78-5.93-2.7.27-3.51,1.8-4.65,4.85-.72,1.94-1.76,7.95-2.46,12.31a.4.4,0,0,0-.25.3l-.46,2.58a.4.4,0,0,0,.19.41h0c-.91.5-6.82,3.18-8,4.92-.23.33-.28.63-.1.87a1.59,1.59,0,0,0,.68.48c6.19,2.86,13.71.94,19.8-1.29a62.3,62.3,0,0,0,17.38-9.32,2.27,2.27,0,0,0,.88-1.09C500.5,411.61,499.6,411.28,498.94,411.23Z" class="cls-3"/><path d="M424.43,369.45l-1.11,2.73a1.63,1.63,0,0,0,.46,1.89L426,376a1.5,1.5,0,0,0,2.36-.58l1.11-2.73a1.64,1.64,0,0,0-.46-1.89l-2.25-1.9A1.51,1.51,0,0,0,424.43,369.45Z" class="cls-6"/><path d="M530.63,449.18l-1.11,2.72a1.66,1.66,0,0,0,.46,1.89l2.26,1.9a1.5,1.5,0,0,0,2.36-.58l1.12-2.73a1.66,1.66,0,0,0-.47-1.89l-2.25-1.9A1.51,1.51,0,0,0,530.63,449.18Z" class="cls-6"/><path d="M453.68,470.78a2.33,2.33,0,0,0-2.8-1.86,2.26,2.26,0,0,0-1.58,1.45.15.15,0,0,1-.25.06,2.26,2.26,0,0,0-2.08-.54,2.32,2.32,0,0,0-1.61,2.94c.89,3.06,4.29,3.55,5.12,3.62a.62.62,0,0,0,.35-.08C451.53,475.91,454.31,473.9,453.68,470.78Z" class="cls-6"/><path d="M511.9,350.17a2.32,2.32,0,0,0-2.79-1.86,2.28,2.28,0,0,0-1.59,1.45.15.15,0,0,1-.25.06,2.24,2.24,0,0,0-2.07-.54,2.32,2.32,0,0,0-1.62,2.94c.89,3.06,4.29,3.55,5.12,3.62a.59.59,0,0,0,.35-.08C509.75,355.3,512.53,353.3,511.9,350.17Z" class="cls-6"/><g class="cls-44"><path d="M544,455.7,516.21,343.12a6.28,6.28,0,0,0-7.61-4.6l-89.11,22a6.3,6.3,0,0,0-4.6,7.62l27.74,112.58a6.28,6.28,0,0,0,7.62,4.6l89.1-21.95A6.28,6.28,0,0,0,544,455.7Z" class="cls-45"/></g><rect width="104.35" height="128.53" x="444.27" y="337.68" class="cls-5" rx="15.03" transform="translate(-43.3 60.34) rotate(-6.66)"/><path d="M531.94,353.41a7.19,7.19,0,0,1-6.39-9.15,1.34,1.34,0,0,0-1.44-1.71l-68.28,8a1.34,1.34,0,0,0-1,2,7.2,7.2,0,0,1-4.1,10.39,7.3,7.3,0,0,1-2.79.3,1.33,1.33,0,0,0-1.43,1.49l10,85.68a1.34,1.34,0,0,0,1.74,1.12,7.05,7.05,0,0,1,2.37-.37,7.2,7.2,0,0,1,6.94,8.6,1.33,1.33,0,0,0,1.47,1.59l67.79-7.92a1.34,1.34,0,0,0,1.06-1.89A7.18,7.18,0,0,1,545,441.35a1.34,1.34,0,0,0,1.44-1.49l-10-85.67a1.33,1.33,0,0,0-1.74-1.12A7.24,7.24,0,0,1,531.94,353.41Z" class="cls-6"/><g class="cls-46"><g class="cls-47"><path d="M546.69,342.83l-4.41,7.83a5,5,0,0,0,.69,5.89l6.09,6.6a4.6,4.6,0,0,0,7.38-.86l4.4-7.83a5,5,0,0,0-.69-5.89l-6.09-6.6A4.59,4.59,0,0,0,546.69,342.83Z" class="cls-3"/><path d="M522.75,345.63l-4.41,7.83a5,5,0,0,0,.69,5.89l6.09,6.6a4.6,4.6,0,0,0,7.38-.86l4.4-7.83a5,5,0,0,0-.69-5.89l-6.09-6.6A4.59,4.59,0,0,0,522.75,345.63Z" class="cls-3"/></g><g class="cls-48"><path d="M550,371.06l-4.41,7.83a5,5,0,0,0,.69,5.89l6.09,6.6a4.59,4.59,0,0,0,7.37-.86l4.41-7.83a5,5,0,0,0-.69-5.89l-6.09-6.6A4.59,4.59,0,0,0,550,371.06Z" class="cls-3"/><path d="M526,373.86l-4.4,7.83a5,5,0,0,0,.69,5.89l6.09,6.6a4.58,4.58,0,0,0,7.37-.87l4.41-7.82a5,5,0,0,0-.69-5.89l-6.09-6.6A4.59,4.59,0,0,0,526,373.86Z" class="cls-3"/></g><g class="cls-49"><path d="M553.28,399.29l-4.4,7.83a5,5,0,0,0,.69,5.89l6.09,6.6a4.59,4.59,0,0,0,7.37-.86l4.41-7.83a5,5,0,0,0-.69-5.89l-6.09-6.6A4.6,4.6,0,0,0,553.28,399.29Z" class="cls-3"/><path d="M529.34,402.09l-4.4,7.83a5,5,0,0,0,.69,5.88l6.09,6.6a4.58,4.58,0,0,0,7.37-.86l4.41-7.82a5,5,0,0,0-.69-5.89l-6.09-6.6A4.59,4.59,0,0,0,529.34,402.09Z" class="cls-3"/></g><g class="cls-50"><path d="M556.58,427.52l-4.4,7.83a5,5,0,0,0,.69,5.89l6.09,6.6a4.59,4.59,0,0,0,7.37-.87l4.4-7.82a5,5,0,0,0-.68-5.89l-6.09-6.6A4.59,4.59,0,0,0,556.58,427.52Z" class="cls-3"/><path d="M532.64,430.32l-4.4,7.82a5,5,0,0,0,.69,5.89l6.09,6.6a4.58,4.58,0,0,0,7.37-.86l4.4-7.82a5,5,0,0,0-.68-5.89l-6.09-6.6A4.59,4.59,0,0,0,532.64,430.32Z" class="cls-3"/></g><g class="cls-51"><path d="M559.88,455.75l-4.4,7.83a5,5,0,0,0,.69,5.88l6.08,6.6a4.59,4.59,0,0,0,7.38-.86l4.4-7.82a5,5,0,0,0-.68-5.89l-6.09-6.6A4.59,4.59,0,0,0,559.88,455.75Z" class="cls-3"/><path d="M535.94,458.55l-4.4,7.82a5,5,0,0,0,.69,5.89l6.08,6.6a4.59,4.59,0,0,0,7.38-.86l4.4-7.83a5,5,0,0,0-.69-5.89l-6.08-6.6A4.59,4.59,0,0,0,535.94,458.55Z" class="cls-3"/></g><g class="cls-52"><path d="M519.45,317.4,515,325.23a5,5,0,0,0,.69,5.89l6.09,6.6a4.6,4.6,0,0,0,7.38-.86l4.4-7.83a5,5,0,0,0-.69-5.89l-6.09-6.6A4.59,4.59,0,0,0,519.45,317.4Z" class="cls-3"/><path d="M495.51,320.2,491.1,328a5,5,0,0,0,.69,5.89l6.09,6.6a4.6,4.6,0,0,0,7.38-.87l4.4-7.82a5,5,0,0,0-.69-5.89l-6.09-6.6A4.58,4.58,0,0,0,495.51,320.2Z" class="cls-3"/></g><g class="cls-53"><path d="M522.75,345.63l-4.41,7.83a5,5,0,0,0,.69,5.89l6.09,6.6a4.6,4.6,0,0,0,7.38-.86l4.4-7.83a5,5,0,0,0-.69-5.89l-6.09-6.6A4.59,4.59,0,0,0,522.75,345.63Z" class="cls-3"/><path d="M498.81,348.43l-4.41,7.83a5,5,0,0,0,.69,5.88l6.09,6.6a4.58,4.58,0,0,0,7.37-.86l4.41-7.82a5,5,0,0,0-.69-5.89l-6.09-6.6A4.58,4.58,0,0,0,498.81,348.43Z" class="cls-3"/></g><g class="cls-54"><path d="M526,373.86l-4.4,7.83a5,5,0,0,0,.69,5.89l6.09,6.6a4.58,4.58,0,0,0,7.37-.87l4.41-7.82a5,5,0,0,0-.69-5.89l-6.09-6.6A4.59,4.59,0,0,0,526,373.86Z" class="cls-3"/><path d="M502.1,376.66l-4.4,7.82a5,5,0,0,0,.69,5.89l6.09,6.6a4.58,4.58,0,0,0,7.37-.86l4.41-7.82a5,5,0,0,0-.69-5.89l-6.09-6.6A4.59,4.59,0,0,0,502.1,376.66Z" class="cls-3"/></g><g class="cls-55"><path d="M529.34,402.09l-4.4,7.83a5,5,0,0,0,.69,5.88l6.09,6.6a4.58,4.58,0,0,0,7.37-.86l4.41-7.82a5,5,0,0,0-.69-5.89l-6.09-6.6A4.59,4.59,0,0,0,529.34,402.09Z" class="cls-3"/><path d="M505.4,404.89l-4.4,7.82a5,5,0,0,0,.69,5.89l6.09,6.6a4.58,4.58,0,0,0,7.37-.86l4.41-7.83a5,5,0,0,0-.69-5.89l-6.09-6.6A4.59,4.59,0,0,0,505.4,404.89Z" class="cls-3"/></g><g class="cls-56"><path d="M532.64,430.32l-4.4,7.82a5,5,0,0,0,.69,5.89l6.09,6.6a4.58,4.58,0,0,0,7.37-.86l4.4-7.82a5,5,0,0,0-.68-5.89l-6.09-6.6A4.59,4.59,0,0,0,532.64,430.32Z" class="cls-3"/><path d="M508.7,433.12l-4.4,7.82a5,5,0,0,0,.69,5.89l6.09,6.6a4.58,4.58,0,0,0,7.37-.86l4.4-7.83a5,5,0,0,0-.68-5.89l-6.09-6.6A4.59,4.59,0,0,0,508.7,433.12Z" class="cls-3"/></g><g class="cls-57"><path d="M535.94,458.55l-4.4,7.82a5,5,0,0,0,.69,5.89l6.08,6.6a4.59,4.59,0,0,0,7.38-.86l4.4-7.83a5,5,0,0,0-.69-5.89l-6.08-6.6A4.59,4.59,0,0,0,535.94,458.55Z" class="cls-3"/><path d="M512,461.34l-4.4,7.83a5,5,0,0,0,.68,5.89l6.09,6.6a4.6,4.6,0,0,0,7.38-.86l4.4-7.83a5,5,0,0,0-.69-5.89l-6.08-6.6A4.6,4.6,0,0,0,512,461.34Z" class="cls-3"/></g><g class="cls-58"><path d="M495.51,320.2,491.1,328a5,5,0,0,0,.69,5.89l6.09,6.6a4.6,4.6,0,0,0,7.38-.87l4.4-7.82a5,5,0,0,0-.69-5.89l-6.09-6.6A4.58,4.58,0,0,0,495.51,320.2Z" class="cls-3"/><path d="M471.57,323l-4.41,7.82a5,5,0,0,0,.69,5.89l6.09,6.6a4.59,4.59,0,0,0,7.38-.86l4.4-7.82a5,5,0,0,0-.69-5.89l-6.09-6.6A4.58,4.58,0,0,0,471.57,323Z" class="cls-3"/></g><g class="cls-59"><path d="M498.81,348.43l-4.41,7.83a5,5,0,0,0,.69,5.88l6.09,6.6a4.58,4.58,0,0,0,7.37-.86l4.41-7.82a5,5,0,0,0-.69-5.89l-6.09-6.6A4.58,4.58,0,0,0,498.81,348.43Z" class="cls-3"/><path d="M474.87,351.23l-4.41,7.82a5,5,0,0,0,.69,5.89l6.09,6.6a4.58,4.58,0,0,0,7.37-.86l4.41-7.83a5,5,0,0,0-.69-5.88l-6.09-6.6A4.58,4.58,0,0,0,474.87,351.23Z" class="cls-3"/></g><g class="cls-60"><path d="M502.1,376.66l-4.4,7.82a5,5,0,0,0,.69,5.89l6.09,6.6a4.58,4.58,0,0,0,7.37-.86l4.41-7.82a5,5,0,0,0-.69-5.89l-6.09-6.6A4.59,4.59,0,0,0,502.1,376.66Z" class="cls-3"/><path d="M478.16,379.46l-4.4,7.82a5,5,0,0,0,.69,5.89l6.09,6.6a4.58,4.58,0,0,0,7.37-.86l4.41-7.83a5,5,0,0,0-.69-5.89l-6.09-6.6A4.6,4.6,0,0,0,478.16,379.46Z" class="cls-3"/></g><g class="cls-61"><path d="M505.4,404.89l-4.4,7.82a5,5,0,0,0,.69,5.89l6.09,6.6a4.58,4.58,0,0,0,7.37-.86l4.41-7.83a5,5,0,0,0-.69-5.89l-6.09-6.6A4.59,4.59,0,0,0,505.4,404.89Z" class="cls-3"/><path d="M481.46,407.68l-4.4,7.83a5,5,0,0,0,.69,5.89l6.09,6.6a4.59,4.59,0,0,0,7.37-.86l4.4-7.83a5,5,0,0,0-.68-5.89l-6.09-6.6A4.6,4.6,0,0,0,481.46,407.68Z" class="cls-3"/></g><g class="cls-62"><path d="M508.7,433.12l-4.4,7.82a5,5,0,0,0,.69,5.89l6.09,6.6a4.58,4.58,0,0,0,7.37-.86l4.4-7.83a5,5,0,0,0-.68-5.89l-6.09-6.6A4.59,4.59,0,0,0,508.7,433.12Z" class="cls-3"/><path d="M484.76,435.91l-4.4,7.83a5,5,0,0,0,.69,5.89l6.08,6.6a4.6,4.6,0,0,0,7.38-.86l4.4-7.83a5,5,0,0,0-.68-5.89l-6.09-6.6A4.6,4.6,0,0,0,484.76,435.91Z" class="cls-3"/></g><g class="cls-63"><path d="M512,461.34l-4.4,7.83a5,5,0,0,0,.68,5.89l6.09,6.6a4.6,4.6,0,0,0,7.38-.86l4.4-7.83a5,5,0,0,0-.69-5.89l-6.08-6.6A4.6,4.6,0,0,0,512,461.34Z" class="cls-3"/><path d="M488.06,464.14l-4.4,7.83a5,5,0,0,0,.68,5.89l6.09,6.6a4.59,4.59,0,0,0,7.38-.87l4.4-7.82a5,5,0,0,0-.69-5.89l-6.09-6.6A4.59,4.59,0,0,0,488.06,464.14Z" class="cls-3"/></g><g class="cls-64"><path d="M471.57,323l-4.41,7.82a5,5,0,0,0,.69,5.89l6.09,6.6a4.59,4.59,0,0,0,7.38-.86l4.4-7.82a5,5,0,0,0-.69-5.89l-6.09-6.6A4.58,4.58,0,0,0,471.57,323Z" class="cls-3"/><path d="M447.63,325.8l-4.41,7.82a5,5,0,0,0,.69,5.89l6.09,6.6a4.59,4.59,0,0,0,7.38-.86l4.4-7.83a5,5,0,0,0-.69-5.89l-6.09-6.6A4.58,4.58,0,0,0,447.63,325.8Z" class="cls-3"/></g><g class="cls-65"><path d="M474.87,351.23l-4.41,7.82a5,5,0,0,0,.69,5.89l6.09,6.6a4.58,4.58,0,0,0,7.37-.86l4.41-7.83a5,5,0,0,0-.69-5.88l-6.09-6.6A4.58,4.58,0,0,0,474.87,351.23Z" class="cls-3"/><path d="M450.92,354l-4.4,7.83a5,5,0,0,0,.69,5.89l6.09,6.6a4.59,4.59,0,0,0,7.37-.86l4.41-7.83a5,5,0,0,0-.69-5.89l-6.09-6.6A4.6,4.6,0,0,0,450.92,354Z" class="cls-3"/></g><g class="cls-66"><path d="M478.16,379.46l-4.4,7.82a5,5,0,0,0,.69,5.89l6.09,6.6a4.58,4.58,0,0,0,7.37-.86l4.41-7.83a5,5,0,0,0-.69-5.89l-6.09-6.6A4.6,4.6,0,0,0,478.16,379.46Z" class="cls-3"/><path d="M454.22,382.25l-4.4,7.83a5,5,0,0,0,.69,5.89l6.09,6.6a4.59,4.59,0,0,0,7.37-.86l4.41-7.83a5,5,0,0,0-.69-5.89l-6.09-6.6A4.6,4.6,0,0,0,454.22,382.25Z" class="cls-3"/></g><g class="cls-67"><path d="M481.46,407.68l-4.4,7.83a5,5,0,0,0,.69,5.89l6.09,6.6a4.59,4.59,0,0,0,7.37-.86l4.4-7.83a5,5,0,0,0-.68-5.89l-6.09-6.6A4.6,4.6,0,0,0,481.46,407.68Z" class="cls-3"/><path d="M457.52,410.48l-4.4,7.83a5,5,0,0,0,.69,5.89l6.09,6.6a4.59,4.59,0,0,0,7.37-.86l4.4-7.83a5,5,0,0,0-.68-5.89l-6.09-6.6A4.6,4.6,0,0,0,457.52,410.48Z" class="cls-3"/></g><g class="cls-68"><path d="M484.76,435.91l-4.4,7.83a5,5,0,0,0,.69,5.89l6.08,6.6a4.6,4.6,0,0,0,7.38-.86l4.4-7.83a5,5,0,0,0-.68-5.89l-6.09-6.6A4.6,4.6,0,0,0,484.76,435.91Z" class="cls-3"/><path d="M460.82,438.71l-4.4,7.83a5,5,0,0,0,.69,5.89l6.08,6.6a4.59,4.59,0,0,0,7.38-.87l4.4-7.82a5,5,0,0,0-.69-5.89l-6.08-6.6A4.59,4.59,0,0,0,460.82,438.71Z" class="cls-3"/></g><g class="cls-69"><path d="M488.06,464.14l-4.4,7.83a5,5,0,0,0,.68,5.89l6.09,6.6a4.59,4.59,0,0,0,7.38-.87l4.4-7.82a5,5,0,0,0-.69-5.89l-6.09-6.6A4.59,4.59,0,0,0,488.06,464.14Z" class="cls-3"/><path d="M464.12,466.94l-4.4,7.83a5,5,0,0,0,.68,5.88l6.09,6.6a4.59,4.59,0,0,0,7.38-.86l4.4-7.82a5,5,0,0,0-.69-5.89l-6.09-6.6A4.58,4.58,0,0,0,464.12,466.94Z" class="cls-3"/></g><g class="cls-70"><path d="M447.63,325.8l-4.41,7.82a5,5,0,0,0,.69,5.89l6.09,6.6a4.59,4.59,0,0,0,7.38-.86l4.4-7.83a5,5,0,0,0-.69-5.89l-6.09-6.6A4.58,4.58,0,0,0,447.63,325.8Z" class="cls-3"/><path d="M423.69,328.59l-4.41,7.83a5,5,0,0,0,.69,5.89l6.09,6.6a4.59,4.59,0,0,0,7.37-.86l4.41-7.83a5,5,0,0,0-.69-5.89l-6.09-6.6A4.59,4.59,0,0,0,423.69,328.59Z" class="cls-3"/></g><g class="cls-71"><path d="M450.92,354l-4.4,7.83a5,5,0,0,0,.69,5.89l6.09,6.6a4.59,4.59,0,0,0,7.37-.86l4.41-7.83a5,5,0,0,0-.69-5.89l-6.09-6.6A4.6,4.6,0,0,0,450.92,354Z" class="cls-3"/><path d="M427,356.82l-4.4,7.83a5,5,0,0,0,.69,5.89l6.09,6.6a4.59,4.59,0,0,0,7.37-.86l4.41-7.83a5,5,0,0,0-.69-5.89l-6.09-6.6A4.6,4.6,0,0,0,427,356.82Z" class="cls-3"/></g><g class="cls-72"><path d="M454.22,382.25l-4.4,7.83a5,5,0,0,0,.69,5.89l6.09,6.6a4.59,4.59,0,0,0,7.37-.86l4.41-7.83a5,5,0,0,0-.69-5.89l-6.09-6.6A4.6,4.6,0,0,0,454.22,382.25Z" class="cls-3"/><path d="M430.28,385.05l-4.4,7.83a5,5,0,0,0,.69,5.89l6.09,6.6a4.59,4.59,0,0,0,7.37-.87l4.41-7.82a5,5,0,0,0-.69-5.89l-6.09-6.6A4.59,4.59,0,0,0,430.28,385.05Z" class="cls-3"/></g><g class="cls-73"><path d="M457.52,410.48l-4.4,7.83a5,5,0,0,0,.69,5.89l6.09,6.6a4.59,4.59,0,0,0,7.37-.86l4.4-7.83a5,5,0,0,0-.68-5.89l-6.09-6.6A4.6,4.6,0,0,0,457.52,410.48Z" class="cls-3"/><path d="M433.58,413.28l-4.4,7.83a5,5,0,0,0,.69,5.88l6.09,6.6a4.58,4.58,0,0,0,7.37-.86l4.4-7.82a5,5,0,0,0-.68-5.89l-6.09-6.6A4.59,4.59,0,0,0,433.58,413.28Z" class="cls-3"/></g><g class="cls-74"><path d="M460.82,438.71l-4.4,7.83a5,5,0,0,0,.69,5.89l6.08,6.6a4.59,4.59,0,0,0,7.38-.87l4.4-7.82a5,5,0,0,0-.69-5.89l-6.08-6.6A4.59,4.59,0,0,0,460.82,438.71Z" class="cls-3"/><path d="M436.88,441.51l-4.4,7.82a5,5,0,0,0,.68,5.89l6.09,6.6a4.59,4.59,0,0,0,7.38-.86l4.4-7.82a5,5,0,0,0-.69-5.89l-6.08-6.6A4.59,4.59,0,0,0,436.88,441.51Z" class="cls-3"/></g></g><circle cx="496.45" cy="401.95" r="31.05" class="cls-42"/><circle cx="496.45" cy="401.95" r="25.37" class="cls-43"/><path d="M515.89,403.73A64,64,0,0,0,504,402.44h0a.27.27,0,0,0-.08-.33,2.35,2.35,0,0,0-.24-.17c-.17-.15,0-.55-.34-.47l-.08,0a5,5,0,0,1-.36-1.41,10.94,10.94,0,0,0,4.13.29c2.41-.59,3.69-1.88,4-2.83.18-.57.12-1.7-1.26-1.56a1.21,1.21,0,0,0-.57.2,1.11,1.11,0,0,1-1.32-.1c-.6-.5-1.38-1.16-1.72-1.5-.59-.6-7.48-7.17-10-7.24-2.71-.07-3.71,1.35-5.22,4.24-1,1.83-2.74,7.66-4,11.9a.39.39,0,0,0-.28.26l-.78,2.51a.39.39,0,0,0,.13.43h0c-1,.38-7.18,2.3-8.57,3.88-.26.3-.35.59-.2.85a1.72,1.72,0,0,0,.61.56c5.79,3.62,13.49,2.65,19.81,1.2a62.36,62.36,0,0,0,18.41-7.08,2.28,2.28,0,0,0,1-1C517.39,404.3,516.54,403.86,515.89,403.73Z" class="cls-3"/><path d="M447.19,353l-1.45,2.57a1.65,1.65,0,0,0,.23,1.93l2,2.17a1.51,1.51,0,0,0,2.42-.28l1.44-2.57a1.66,1.66,0,0,0-.22-1.94l-2-2.16A1.51,1.51,0,0,0,447.19,353Z" class="cls-6"/><path d="M542.6,445.34l-1.45,2.57a1.65,1.65,0,0,0,.23,1.93l2,2.17a1.5,1.5,0,0,0,2.42-.29l1.44-2.56a1.68,1.68,0,0,0-.22-1.94l-2-2.16A1.5,1.5,0,0,0,542.6,445.34Z" class="cls-6"/><path d="M463.55,457.16A2.32,2.32,0,0,0,461,455a2.25,2.25,0,0,0-1.76,1.24.15.15,0,0,1-.25,0,2.27,2.27,0,0,0-2-.81,2.32,2.32,0,0,0-2,2.72c.5,3.15,3.81,4.06,4.63,4.23a.47.47,0,0,0,.35,0C460.77,462,463.79,460.34,463.55,457.16Z" class="cls-6"/><path d="M536.39,344.77a2.32,2.32,0,0,0-2.55-2.19,2.25,2.25,0,0,0-1.75,1.24.15.15,0,0,1-.25,0,2.25,2.25,0,0,0-2-.8,2.32,2.32,0,0,0-2,2.72c.5,3.14,3.81,4.05,4.63,4.23a.61.61,0,0,0,.35,0C533.61,349.59,536.62,348,536.39,344.77Z" class="cls-6"/><path d="M402.46,426.46l-3.14-10.64a1.59,1.59,0,0,0-.31-.6,1.31,1.31,0,0,0-.27-.19,33.23,33.23,0,0,0-12.47-3.9h0a33.37,33.37,0,0,0-13,.66,1.57,1.57,0,0,0-.3.12,1.42,1.42,0,0,0-.45.5l-5.7,9.52,17.85,2.23h0Z" class="cls-1"/><path d="M363.21,420a5,5,0,0,1-.39,1.42l3.95.5,5.7-9.52a1.42,1.42,0,0,1,.45-.5,1.57,1.57,0,0,1,.3-.12,33.37,33.37,0,0,1,13-.66l1.18-9.29h0a43.42,43.42,0,0,0-16.57.85,11.21,11.21,0,0,0-2.65,1,10.75,10.75,0,0,0-4,3.91l-4.22,7A5.07,5.07,0,0,1,363.21,420Z" class="cls-43"/><path d="M317.62,443.52c-.05-.23-.1-.47-.13-.71C317.52,443.05,317.57,443.29,317.62,443.52Z" class="cls-75"/><path d="M318.11,445.05c-.1-.23-.18-.47-.26-.71C317.93,444.58,318,444.82,318.11,445.05Z" class="cls-75"/><path d="M323.71,450.5l-.68-.29Z" class="cls-75"/><path d="M324.52,450.76c-.24-.07-.49-.15-.73-.24C324,450.61,324.28,450.69,324.52,450.76Z" class="cls-75"/><path d="M317.85,444.34a5.44,5.44,0,0,1-.2-.72A5.44,5.44,0,0,0,317.85,444.34Z" class="cls-75"/><path d="M323,450.17c-.22-.11-.44-.22-.66-.35C322.51,450,322.73,450.06,323,450.17Z" class="cls-75"/><path d="M318.85,446.49c-.13-.2-.24-.4-.35-.61C318.61,446.09,318.72,446.29,318.85,446.49Z" class="cls-75"/><path d="M320.33,448.34c-.17-.17-.33-.34-.49-.52C320,448,320.16,448.17,320.33,448.34Z" class="cls-75"/><path d="M318.44,445.77l-.3-.64Z" class="cls-75"/><path d="M322.25,449.8a10.92,10.92,0,0,1-1.24-.86A10.92,10.92,0,0,0,322.25,449.8Z" class="cls-75"/><path d="M320.94,448.88l-.53-.47Z" class="cls-75"/><path d="M323.8,416.54a4.83,4.83,0,0,0-.76,0,4.83,4.83,0,0,1,.76,0Z" class="cls-75"/><path d="M317.47,442.69c0-.24-.06-.49-.08-.73C317.41,442.2,317.43,442.45,317.47,442.69Z" class="cls-75"/><path d="M332.41,451.81a3.44,3.44,0,0,1,3.47-1.82l1.65.21.24-1.95a3.48,3.48,0,0,1,2.73-3l-.62-.07a4.32,4.32,0,0,1-3.7-3.44,2.89,2.89,0,0,1,3.44-3.23l1.95.25a2.56,2.56,0,0,1,0-.39l.35-2.85a4.69,4.69,0,0,1,5.24-4.07l1.33.16a4.69,4.69,0,0,1,4.07,5.24l-.36,2.85c0,.13,0,.26-.07.39l1.94.24a2.9,2.9,0,0,1,2.55,4,4.33,4.33,0,0,1-4.43,2.41l-.63-.08a3.51,3.51,0,0,1,1.92,3.55l-.25,1.95,1.64.2a3.47,3.47,0,0,1,2.92,2.62l22.53,2.82h0l1.27-10-.24,0a7.38,7.38,0,0,1,1.84-14.65l.25.05.4-3.14h0l-59.28-7.43a4.76,4.76,0,0,1,.07,2.2c-.43,1.92-.92,3.64-.92,3.64a3.1,3.1,0,0,0-1,2.21c-.09,1.49,1.64,4.89,1.69,6.68s-1.82,1.41-1,2.51,5.16,2.24,4.88,5.2a7.31,7.31,0,0,1-3.79,5.69,9.75,9.75,0,0,0,1.54.3c.32,0,.65,0,1,.07Zm41.68.39,4.37.55a1,1,0,1,1-.26,2.06l-4.37-.55a1,1,0,1,1,.26-2.06Zm-8.75-1.1,4.37.55a1,1,0,1,1-.26,2.07l-4.37-.55a1,1,0,0,1,.26-2.07Zm-3.47.62a1,1,0,0,1-1.16.9l-4.38-.55a1,1,0,0,1,.26-2.07l4.37.55A1,1,0,0,1,361.87,451.72Zm-31.53-5,4.38.54a1,1,0,0,1-.26,2.07l-4.38-.55a1,1,0,0,1,.26-2.06Z" class="cls-75"/><path d="M317.6,431.38l-.23,9.69a6.66,6.66,0,0,0,0,.78,6.66,6.66,0,0,1,0-.78Z" class="cls-75"/><path d="M318.9,446.57a9.45,9.45,0,0,0,.89,1.19A9.45,9.45,0,0,1,318.9,446.57Z" class="cls-75"/><path d="M330.08,448.78l4.38.55a1,1,0,0,0,.26-2.07l-4.38-.54a1,1,0,0,0-.26,2.06Z" class="cls-76"/><path d="M372.92,453.1a1,1,0,0,0,.91,1.16l4.37.55a1,1,0,1,0,.26-2.06l-4.37-.55A1.05,1.05,0,0,0,372.92,453.1Z" class="cls-76"/><path d="M365.08,453.17l4.37.55a1,1,0,1,0,.26-2.07l-4.37-.55a1,1,0,0,0-.26,2.07Z" class="cls-76"/><path d="M355.43,450.91a1,1,0,0,0,.9,1.16l4.38.55a1,1,0,1,0,.25-2.07l-4.37-.55A1,1,0,0,0,355.43,450.91Z" class="cls-76"/><path d="M383.47,433.2h0l-.25-.05a7.38,7.38,0,0,0-1.84,14.65l.24,0h0Z" class="cls-77"/><path d="M371.32,479.41h0Z" class="cls-75"/><path d="M319.26,454a8.8,8.8,0,0,0-2.21,4.79l-.76,3.74.77-3.74A8.71,8.71,0,0,1,319.26,454Z" class="cls-75"/><path d="M357.91,456l22.31,2.8h0l.13-1L357.82,455A3.33,3.33,0,0,1,357.91,456Z" class="cls-75"/><path d="M317.44,475.25l.75-3.75a1,1,0,0,1,1.15-.83h.08a1,1,0,0,1,.81,1.23l-.72,3.6,6.66.84,40.8,5.11.18-1.43a1.13,1.13,0,0,1,1.26-1l-1.18-.15a1.54,1.54,0,0,1-1.34-1.72l.13-1a1.53,1.53,0,0,1,1.72-1.34l2.68.33a2.74,2.74,0,0,1,2.53-3.67,5.63,5.63,0,0,1,6-3.61l.16,0,.41-3.2L356,461.74a3.39,3.39,0,0,1-1.49.54,3.15,3.15,0,0,1-3.54,3.24l-1.93-.24a1.15,1.15,0,0,0,0,.19l-.36,2.85a4.69,4.69,0,0,1-5.24,4.07l-1.33-.17A4.69,4.69,0,0,1,338,467l.36-2.85,0-.18-1.93-.24a3.16,3.16,0,0,1-2.63-4,3.32,3.32,0,0,1-1.31-.89l-6.66-.84c-.44,1.92-.95,4.52-2.36,6a4.5,4.5,0,0,1-1.9,1.09l-.51,2.56a1.06,1.06,0,0,1-1.15.83l-.08,0h0a1,1,0,0,1-.82-1.22l.35-1.75c-1.33.12-2.68.12-3.75.28L313.76,475a5.16,5.16,0,0,1,1.62,0Z" class="cls-75"/><path d="M319.05,467.18a1,1,0,0,0,.82,1.22h0l.08,0a1.06,1.06,0,0,0,1.15-.83l.51-2.56a11.09,11.09,0,0,1-2.21.4Z" class="cls-76"/><path d="M319.42,470.68h-.08a1,1,0,0,0-1.15.83l-.75,3.75,2.07.26.72-3.6A1,1,0,0,0,319.42,470.68Z" class="cls-76"/><path d="M327.63,481.9a.94.94,0,0,1,0-.09A.94.94,0,0,0,327.63,481.9Z" class="cls-6"/><path d="M327.4,482.46a1.17,1.17,0,0,1,.05-.11A1.17,1.17,0,0,0,327.4,482.46Z" class="cls-6"/><path d="M327.79,481.44a.56.56,0,0,1,0-.12A.56.56,0,0,0,327.79,481.44Z" class="cls-6"/><path d="M306.59,501.69a5.4,5.4,0,0,0,4.69,6A5.4,5.4,0,0,1,306.59,501.69Z" class="cls-6"/><path d="M373,515.46l.5-4,.34-2.69h0l-.22,0a12.77,12.77,0,0,1-11.09-14.26l.76-6a2.29,2.29,0,0,1,.38-1l-3.48-.44a1,1,0,1,1,.26-2.06l4.38.55a1,1,0,0,1,.9,1h.12l.45.05.64-5.09-40.8-5.11a4,4,0,0,1,1.89,3.91,5.26,5.26,0,0,1-.12.65h0l1.92.24a1,1,0,0,1,.9,1.16,1,1,0,0,1-1.16.91l-2.41-.31a.25.25,0,0,0,0-.07c-1.48,3.05-4.68,6.49-8.34,6.7-4.77.28-4.27.92-4.33,1.35s7.31,2.22,6.93,5.82.32,4.15,1.48,4.29,2.75.64,4.58,3c1.13,1.46,1.16,4.11,1,5.91Zm-7.91-5a1.06,1.06,0,0,1,1.17-.91l4.37.55a1,1,0,0,1,.91,1.16,1.06,1.06,0,0,1-1.17.91l-4.37-.55A1,1,0,0,1,365.12,510.46Zm-29.71-2.68-4.38-.55a1,1,0,0,1,.26-2.06l4.38.54a1.05,1.05,0,0,1,.9,1.17A1,1,0,0,1,335.41,507.78Zm2.94-23.48-4.37-.55a1,1,0,1,1,.25-2.06l4.38.55a1,1,0,1,1-.26,2.06Zm5.81,24.58-4.38-.55a1,1,0,0,1,.26-2.07l4.38.55a1,1,0,0,1-.26,2.07Zm2.94-23.48-4.38-.55a1,1,0,0,1,.26-2.07l4.38.55a1,1,0,0,1-.26,2.07ZM352.91,510l-4.38-.54a1.05,1.05,0,0,1-.9-1.17,1,1,0,0,1,1.16-.9l4.37.55a1,1,0,1,1-.25,2.06Zm2.94-23.47-4.38-.55a1,1,0,0,1,.26-2.07l4.38.55a1,1,0,0,1-.26,2.07Zm5.8,24.57-4.37-.55a1,1,0,0,1,.26-2.06l4.37.54a1.06,1.06,0,0,1,.91,1.17A1,1,0,0,1,361.65,511.07Z" class="cls-6"/><path d="M356.11,484.43l-4.38-.55a1,1,0,0,0-.26,2.07l4.38.55a1,1,0,0,0,.26-2.07Z" class="cls-78"/><path d="M347.36,483.33l-4.38-.55a1,1,0,0,0-.26,2.07l4.38.55a1,1,0,0,0,.26-2.07Z" class="cls-78"/><path d="M338.61,482.24l-4.38-.55a1,1,0,1,0-.25,2.06l4.37.55a1,1,0,1,0,.26-2.06Z" class="cls-78"/><path d="M365.76,486.49a1,1,0,0,0-.9-1l-4.38-.55a1,1,0,1,0-.26,2.06l3.48.44A2.27,2.27,0,0,1,365.76,486.49Z" class="cls-78"/><path d="M327.79,481.44c0,.12-.08.24-.13.37a.94.94,0,0,0,0,.09c-.05.14-.12.29-.18.45a1.17,1.17,0,0,0-.05.11c-.06.12-.11.24-.17.37a.25.25,0,0,1,0,.07l2.41.31a1,1,0,0,0,1.16-.91,1,1,0,0,0-.9-1.16l-1.92-.24h0c0,.14-.07.27-.11.41A.56.56,0,0,0,327.79,481.44Z" class="cls-78"/><path d="M344.42,506.81l-4.38-.55a1,1,0,0,0-.26,2.07l4.38.55a1,1,0,0,0,.26-2.07Z" class="cls-78"/><path d="M353.16,507.91l-4.37-.55a1,1,0,0,0-1.16.9,1.05,1.05,0,0,0,.9,1.17l4.38.54a1,1,0,1,0,.25-2.06Z" class="cls-78"/><path d="M362.82,510.17a1.06,1.06,0,0,0-.91-1.17l-4.37-.54a1,1,0,0,0-.26,2.06l4.37.55A1,1,0,0,0,362.82,510.17Z" class="cls-78"/><path d="M335.67,505.71l-4.38-.54a1,1,0,0,0-.26,2.06l4.38.55a1,1,0,0,0,1.16-.9A1.05,1.05,0,0,0,335.67,505.71Z" class="cls-78"/><path d="M371.57,511.26a1,1,0,0,0-.91-1.16l-4.37-.55a1.06,1.06,0,0,0-1.17.91,1,1,0,0,0,.91,1.16l4.37.55A1.06,1.06,0,0,0,371.57,511.26Z" class="cls-78"/><path d="M324,420.07a10.28,10.28,0,0,0,.55,2.56l59.28,7.43.75-5.9h0l-17.85-2.23-3.95-.5a5.06,5.06,0,0,1-5.27,3l-17.33-2.17a5.07,5.07,0,0,1-4.37-4.19L327.18,417C325.94,417.8,324.09,419.2,324,420.07Z" class="cls-79"/><path d="M340.47,454.76l-4.38-.55-.21,1.65,4.4.55,0-.4Z" class="cls-79"/><path d="M331.66,456.06l.16-1.29-1.8-.23s-2.58.08-3.45,1.35a7.09,7.09,0,0,0-.7,2.07l6.66.84A3.45,3.45,0,0,1,331.66,456.06Z" class="cls-79"/><path d="M380.22,458.79,357.91,456c0,.08,0,.15,0,.23l-.39,3.08a3.45,3.45,0,0,1-1.52,2.44l23.5,2.94h0Z" class="cls-79"/><path d="M349.06,457.51l4.4.55.21-1.64-4.39-.55-.15,1.24C349.11,457.25,349.09,457.38,349.06,457.51Z" class="cls-79"/><path d="M323,501c-1.16-.14-1.87-.69-1.48-4.29s-7-5.39-6.93-5.82-.44-1.07,4.33-1.35c3.66-.21,6.86-3.65,8.34-6.7.06-.13.11-.25.17-.37a1.17,1.17,0,0,1,.05-.11c.06-.16.13-.31.18-.45a.94.94,0,0,1,0-.09c0-.13.09-.25.13-.37a.56.56,0,0,1,0-.12c0-.14.08-.27.11-.41a5.26,5.26,0,0,0,.12-.65,4,4,0,0,0-1.89-3.91l-6.66-.84-2.07-.26-2.06-.25a5.16,5.16,0,0,0-1.62,0,5.57,5.57,0,0,0-1,.28,5.41,5.41,0,0,0-3.4,4.36h0l-2.76,22a5.4,5.4,0,0,0,4.69,6l17.29,2.17c.14-1.8.11-4.45-1-5.91C325.72,501.63,324.12,501.14,323,501Zm-5.89-15.68a3,3,0,1,1,3.4-2.64A3,3,0,0,1,317.08,485.31Zm-2.4,19.16a3,3,0,1,1,3.4-2.64A3,3,0,0,1,314.68,504.47Z" class="cls-3"/><path d="M321.61,465a4.5,4.5,0,0,0,1.9-1.09c1.41-1.46,1.92-4.06,2.36-6a7.09,7.09,0,0,1,.7-2.07c.87-1.27,3.45-1.35,3.45-1.35l1.8.23L332,453a3.65,3.65,0,0,1,.37-1.17l-5.37-.68c-.33,0-.66-.06-1-.07a9,9,0,0,0-6.8,2.95,8.71,8.71,0,0,0-2.2,4.79l-.77,3.74-.64,3.17h0c1.07-.16,2.42-.16,3.75-.28A11.09,11.09,0,0,0,321.61,465Z" class="cls-3"/><path d="M317.83,479.27a3,3,0,1,0,2.65,3.4A3,3,0,0,0,317.83,479.27Z" class="cls-80"/><path d="M315.43,498.43a3,3,0,1,0,2.65,3.4A3,3,0,0,0,315.43,498.43Z" class="cls-80"/><path d="M328.31,445.07c.28-3-4-4.11-4.88-5.2s1-.72,1-2.51-1.78-5.19-1.69-6.68a3.1,3.1,0,0,1,1-2.21s.49-1.72.92-3.64a4.76,4.76,0,0,0-.07-2.2,10.28,10.28,0,0,1-.55-2.56c0-.87,1.9-2.27,3.14-3.11l-2.44-.3-.94-.12a4.83,4.83,0,0,0-.76,0,5.31,5.31,0,0,0-5.21,5.18l-.23,9.69-.23,9.69a6.66,6.66,0,0,0,0,.78V442c0,.24,0,.49.08.73a.5.5,0,0,0,0,.12c0,.24.08.48.13.71l0,.1a5.44,5.44,0,0,0,.2.72h0c.08.24.16.48.26.71l0,.08.3.64.06.11c.11.21.22.41.35.61l0,.08a9.45,9.45,0,0,0,.89,1.19l0,.06c.16.18.32.35.49.52l.08.07.53.47.07.06a10.92,10.92,0,0,0,1.24.86l0,0c.22.13.44.24.66.35l.08,0,.68.29.08,0c.24.09.49.17.73.24h0A7.31,7.31,0,0,0,328.31,445.07Z" class="cls-3"/><path d="M373.33,471.48l5.2.66h0l.54-4.25h0l-.16,0a5.63,5.63,0,0,0-6,3.61Z" class="cls-81"/><path d="M377.53,480h0a1.53,1.53,0,0,1-.71.08l-5.44-.68h0a1.16,1.16,0,0,1,.93,1.05c.06,1,.37,2.44,1.58,2.59l3.07.39.05.65h0Z" class="cls-77"/><path d="M373,489.7l-.19,1.47a3.16,3.16,0,0,0,2.86,3.54L377,484.1l-.05-.65-3.07-.39c-1.21-.15-1.52-1.59-1.58-2.59a1.16,1.16,0,0,0-.93-1.05h-.06l-2.91-.36a1.13,1.13,0,0,0-1.26,1l-.18,1.43-.64,5.09,4.67.59A2.3,2.3,0,0,1,373,489.7Z" class="cls-81"/><path d="M375.66,494.71h0a3.16,3.16,0,0,1-2.86-3.54l.19-1.47a2.3,2.3,0,0,0-2-2.56l-4.67-.59-.45-.05h-.12a2.29,2.29,0,0,0-2.44,2l-.76,6a12.77,12.77,0,0,0,11.09,14.26l.22,0Z" class="cls-77"/><path d="M371.38,479.42l5.44.68a1.53,1.53,0,0,0,.71-.08l.31-2.47-5.19-.65a2.74,2.74,0,0,1-2.23-1.77l-2.68-.33a1.53,1.53,0,0,0-1.72,1.34l-.13,1a1.54,1.54,0,0,0,1.34,1.72l1.18.15,2.91.36Z" class="cls-77"/><path d="M372.65,476.9l5.19.65h0l.69-5.41-5.2-.66-.38,0a2.73,2.73,0,0,0-.3,5.44Z" class="cls-81"/><path d="M338.37,464.13,338,467a4.69,4.69,0,0,0,4.07,5.24l1.33.17a4.69,4.69,0,0,0,5.24-4.07l.36-2.85a1.15,1.15,0,0,1,0-.19L338.4,464Z" class="cls-81"/><path d="M352.23,439.73l.36-2.85a4.69,4.69,0,0,0-4.07-5.24l-1.33-.16a4.69,4.69,0,0,0-5.24,4.07l-.35,2.85a2.56,2.56,0,0,0,0,.39l10.59,1.33C352.19,440,352.21,439.86,352.23,439.73Z" class="cls-81"/><path d="M334.64,459.9a3.49,3.49,0,0,1-.8-.21,3.16,3.16,0,0,0,2.63,4l1.93.24L349,465.28l1.93.24a3.15,3.15,0,0,0,3.54-3.24,3.29,3.29,0,0,1-.83,0Z" class="cls-77"/><path d="M350.49,446.34a3.69,3.69,0,0,1,1.1.33l.63.08a4.33,4.33,0,0,0,4.43-2.41,2.9,2.9,0,0,0-2.55-4l-1.94-.24-10.59-1.33-1.95-.25a2.89,2.89,0,0,0-3.44,3.23,4.32,4.32,0,0,0,3.7,3.44l.62.07a3.68,3.68,0,0,1,1.15,0Z" class="cls-77"/><path d="M345.91,447.08a4.44,4.44,0,0,1,3.88,4.65l3.47.44.25-1.95a3.51,3.51,0,0,0-1.92-3.55,3.69,3.69,0,0,0-1.1-.33l-8.84-1.11a3.68,3.68,0,0,0-1.15,0,3.48,3.48,0,0,0-2.73,3l-.24,1.95,3.47.43A4.45,4.45,0,0,1,345.91,447.08Z" class="cls-77"/><path d="M357.5,459.3l.39-3.08c0-.08,0-.15,0-.23a3.33,3.33,0,0,0-.09-1,3.47,3.47,0,0,0-2.92-2.62l-1.64-.2-3.47-.44a3,3,0,0,1,0,.31l-.48,3.83,4.39.55-.21,1.64-4.4-.55a4.44,4.44,0,0,1-8.78-1.1l-4.4-.55.21-1.65,4.38.55.48-3.82a2.87,2.87,0,0,1,.05-.31l-3.47-.43-1.65-.21a3.44,3.44,0,0,0-3.47,1.82A3.65,3.65,0,0,0,332,453l-.22,1.79-.16,1.29a3.45,3.45,0,0,0,.87,2.74,3.32,3.32,0,0,0,1.31.89,3.49,3.49,0,0,0,.8.21l19,2.38a3.29,3.29,0,0,0,.83,0,3.39,3.39,0,0,0,1.49-.54A3.45,3.45,0,0,0,357.5,459.3Z" class="cls-77"/><path d="M345.91,447.08a4.45,4.45,0,0,0-4.91,3.55,2.87,2.87,0,0,0-.05.31l-.48,3.82-.16,1.25,0,.4a4.44,4.44,0,0,0,8.78,1.1c0-.13.05-.26.07-.4l.15-1.24.48-3.83a3,3,0,0,0,0-.31A4.44,4.44,0,0,0,345.91,447.08Z" class="cls-81"/><path d="M340.22,422.24l17.33,2.17a5.07,5.07,0,0,0,2.47-9.75,4.89,4.89,0,0,0-1.21-.31l-3.18-.4a3.09,3.09,0,0,1-3.43,3.59l-5.1-.64a3.1,3.1,0,0,1-2.44-4.32l-3.18-.4a5.07,5.07,0,0,0-5.66,4.4,5.15,5.15,0,0,0,0,1.47A5.07,5.07,0,0,0,340.22,422.24Z" class="cls-77"/><path d="M347.1,416.9l5.1.64a3.09,3.09,0,0,0,.77-6.14l-5.1-.64a3.09,3.09,0,0,0-.77,6.14Z" class="cls-81"/><path d="M386.27,411.13a33.23,33.23,0,0,1,12.47,3.9,1.31,1.31,0,0,1,.27.19,1.59,1.59,0,0,1,.31.6l3.14,10.64,4,.5a4.82,4.82,0,0,1,0-1.47,5.06,5.06,0,0,1,4.42-4.38l-2.33-7.87a10.67,10.67,0,0,0-2.89-4.78,11.09,11.09,0,0,0-2.3-1.65,43.4,43.4,0,0,0-15.84-5l-1.18,9.29Z" class="cls-43"/><path d="M449.91,438.46l-4.4,18.88q-.09.38-.21.75.12-.37.21-.75l4.4-18.88a5.34,5.34,0,0,0,0-2.42A5.34,5.34,0,0,1,449.91,438.46Z" class="cls-75"/><path d="M442,431.54h0l3.37.43a5.25,5.25,0,0,1,2.64,1.13,5.25,5.25,0,0,0-2.64-1.13l-12-1.54h0Z" class="cls-75"/><path d="M433.92,458.47c.47-2.94,4.93-3,6-3.82s-.82-.95-.32-2.66,3-4.59,3.31-6.05a3.16,3.16,0,0,0-.44-2.4s-.06-1.79,0-3.75a4.92,4.92,0,0,1,.62-2.12l-59.26-7.61-.4,3.14h0l.26,0a7.38,7.38,0,1,1-1.88,14.64l-.23,0h0l-1.27,10,22.52,2.9a3.43,3.43,0,0,1,3.47-1.81l1.65.21.25-1.94a3.48,3.48,0,0,1,2.74-3l-.63-.08a4.32,4.32,0,0,1-3.69-3.45,2.89,2.89,0,0,1,3.46-3.21l1.94.25c0-.13,0-.26,0-.39l.37-2.85a4.69,4.69,0,0,1,5.25-4.06l1.32.17a4.69,4.69,0,0,1,4.06,5.25l-.37,2.85a2.66,2.66,0,0,1-.07.39l1.94.25a2.89,2.89,0,0,1,2.54,4,4.32,4.32,0,0,1-4.44,2.4l-.63-.08a3.5,3.5,0,0,1,1.91,3.56l-.25,1.94,1.64.22a3.42,3.42,0,0,1,2.9,2.62l5.37.69a8.05,8.05,0,0,1,1,.18,10.15,10.15,0,0,0,1.55.09A7.33,7.33,0,0,1,433.92,458.47Zm-45.21-3.36a1,1,0,0,1-1.16.9h0l-4.38-.56a1,1,0,0,1-.9-1.16h0a1.05,1.05,0,0,1,1.17-.9h0l4.37.56a1,1,0,0,1,.9,1.16Zm8.75,1.12a1.05,1.05,0,0,1-1.17.9h0l-4.37-.56a1.05,1.05,0,0,1-.9-1.17h0a1,1,0,0,1,1.16-.9h0l4.38.56a1.05,1.05,0,0,1,.9,1.17Zm8.74,1.12h0a1,1,0,0,1-1.16.9h0l-4.38-.56a1,1,0,0,1-.9-1.16h0a1.06,1.06,0,0,1,1.17-.91h0l4.37.57A1,1,0,0,1,406.2,457.35Zm25.08,4.27h0l-4.37-.56a1,1,0,0,1-.9-1.16h0a1,1,0,0,1,1.16-.9h0l4.37.56a1,1,0,1,1-.26,2.06Z" class="cls-75"/><path d="M441.49,463.21a9.44,9.44,0,0,0,1.17-.94A9.44,9.44,0,0,1,441.49,463.21Z" class="cls-75"/><path d="M443.75,461.07c-.14.19-.3.37-.46.55C443.45,461.44,443.61,461.26,443.75,461.07Z" class="cls-75"/><path d="M440.74,463.68c-.21.12-.42.23-.64.33C440.32,463.91,440.53,463.8,440.74,463.68Z" class="cls-75"/><path d="M443.22,461.7a6,6,0,0,1-.5.51A6,6,0,0,0,443.22,461.7Z" class="cls-75"/><path d="M441.44,463.25l-.61.38Z" class="cls-75"/><path d="M440,464a9,9,0,0,1-1.43.52A9,9,0,0,0,440,464Z" class="cls-75"/><path d="M445,459q-.13.33-.3.66Q444.82,459.32,445,459Z" class="cls-75"/><path d="M438.56,464.58l-.72.17Z" class="cls-75"/><path d="M445.27,458.19c-.08.23-.16.46-.26.68C445.11,458.65,445.19,458.42,445.27,458.19Z" class="cls-75"/><path d="M444.61,459.73a9.78,9.78,0,0,1-.81,1.27A9.78,9.78,0,0,0,444.61,459.73Z" class="cls-75"/><path d="M437.74,464.77c-.24,0-.48.08-.72.1C437.26,464.85,437.5,464.81,437.74,464.77Z" class="cls-75"/><path d="M436.93,464.88a6.47,6.47,0,0,1-.76.05A6.47,6.47,0,0,0,436.93,464.88Z" class="cls-75"/><polygon points="406.41 426.96 406.41 426.96 402.46 426.46 384.62 424.16 384.62 424.16 406.41 426.96" class="cls-75"/><path d="M400.93,455.62h0a1.06,1.06,0,0,0-1.17.91h0a1,1,0,0,0,.9,1.16l4.38.56h0a1,1,0,0,0,1.16-.9h0a1,1,0,0,0-.9-1.16Z" class="cls-76"/><path d="M396.56,455.06l-4.38-.56h0a1,1,0,0,0-1.16.9h0a1.05,1.05,0,0,0,.9,1.17l4.37.56h0a1.05,1.05,0,0,0,1.17-.9h0A1.05,1.05,0,0,0,396.56,455.06Z" class="cls-76"/><path d="M431.54,459.56l-4.37-.56h0a1,1,0,0,0-1.16.9h0a1,1,0,0,0,.9,1.16l4.37.56h0a1,1,0,1,0,.26-2.06Z" class="cls-76"/><path d="M387.81,453.94l-4.37-.56h0a1.05,1.05,0,0,0-1.17.9h0a1,1,0,0,0,.9,1.16l4.38.56h0a1,1,0,0,0,1.16-.9h0A1,1,0,0,0,387.81,453.94Z" class="cls-76"/><path d="M381.85,447.86a7.38,7.38,0,1,0,1.88-14.64l-.26,0-1.85,14.62Z" class="cls-77"/><path d="M383.69,481h0Z" class="cls-75"/><path d="M437.36,482.19a1,1,0,0,1-1.1,1h-.07a1,1,0,0,1-.91-1.09l.14-2.61a4.3,4.3,0,0,1-1.56-1.52c-1-1.77-.85-4.42-.8-6.38l-6.65-.86a3.48,3.48,0,0,1-1.5.54,3.15,3.15,0,0,1-3.55,3.23l-1.93-.25c0,.06,0,.13,0,.19l-.37,2.85a4.69,4.69,0,0,1-5.25,4.05l-1.33-.17a4.69,4.69,0,0,1-4.05-5.25l.37-2.85a1.13,1.13,0,0,1,0-.18l-1.93-.25a3.14,3.14,0,0,1-2.62-4,3.45,3.45,0,0,1-1.31-.9l-23.48-3h0l-.41,3.2h.16a5.62,5.62,0,0,1,4.87,5,2.72,2.72,0,0,1,2,3,2.62,2.62,0,0,1-.46,1.2l2.68.35a1.54,1.54,0,0,1,1.34,1.72l-.14,1.05a1.54,1.54,0,0,1-1.72,1.33l-3.3-.43,2.11.28a1.13,1.13,0,0,1,1,1.26l-.19,1.43,47.44,6.1.21-3.67a1,1,0,0,1,1.09-1h.08a1.05,1.05,0,0,1,.91,1.1l-.22,3.82-1.59-.21,3.65.47a5.47,5.47,0,0,1,1.57.45l.49-9.51c-1-.42-2.31-.76-3.56-1.21Z" class="cls-75"/><path d="M380.22,458.79l22.31,2.86a3.41,3.41,0,0,1,.34-.94l-22.52-2.9h0Z" class="cls-75"/><path d="M436.19,483.17h.07a1,1,0,0,0,1.1-1l.1-1.78a11.18,11.18,0,0,1-2-.94l-.14,2.61A1,1,0,0,0,436.19,483.17Z" class="cls-76"/><path d="M436.9,490.42l.22-3.82a1.05,1.05,0,0,0-.91-1.1h-.08a1,1,0,0,0-1.09,1l-.21,3.67.48.06Z" class="cls-76"/><path d="M425.44,494.79s0,.07,0,.11S425.45,494.82,425.44,494.79Z" class="cls-6"/><path d="M419.94,515.71c2.35-1.82,4-1.9,5.18-1.75s2-.2,2.51-3.79,8.1-3.47,8.16-3.9.7-.93-3.85-2.39c-3.49-1.12-5.73-5.25-6.4-8.57a.22.22,0,0,0,0,.08l-2.41-.31a1,1,0,0,1-.9-1.17h0l-2.3-.29h0a1.05,1.05,0,0,1-1.17.9h0L414.4,494a1,1,0,0,1-.9-1.16h0l-2.31-.3h0a1,1,0,0,1-1.16.9h0l-4.37-.56a1,1,0,0,1-.9-1.16h0l-2.31-.3h0a1,1,0,0,1-1.16.9h0l-4.37-.56a1,1,0,0,1-.9-1.17h0l-2.31-.3h0a1,1,0,0,1-1.16.91h0l-3.47-.44a2.38,2.38,0,0,1,.12,1.07l-.78,6a12.78,12.78,0,0,1-14.3,11l-.23,0-.34,2.69,2,.25a1,1,0,0,1,1.16-.9h0l4.38.56a1.05,1.05,0,0,1,.9,1.17l2.3.3a1.05,1.05,0,0,1,1.17-.9h0l4.37.56a1,1,0,0,1,.9,1.16l2.31.3a1,1,0,0,1,1.16-.9h0l4.37.56a1.05,1.05,0,0,1,.9,1.17l2.3.29a1.06,1.06,0,0,1,1.17-.9h0l4.37.57a1,1,0,0,1,.9,1.16l2.31.3a1,1,0,0,1,1.16-.9h0l4.37.56a1,1,0,0,1,.9,1.17l1.76.22-1.76-.22h0a1,1,0,0,1-1.16.9h0l-4.37-.57a1,1,0,0,1-.9-1.16h0l-2.31-.3h0a1,1,0,0,1-1.16.9h0l-4.38-.56a1,1,0,0,1-.9-1.17h0l-2.3-.29a1,1,0,0,1-1.16.9h0l-4.37-.56A1.05,1.05,0,0,1,393,514h0l-2.31-.3a1,1,0,0,1-1.16.9h0l-4.38-.56a1,1,0,0,1-.9-1.16h0l-2.3-.3h0a1.05,1.05,0,0,1-1.17.9h0l-4.37-.56a1,1,0,0,1-.9-1.17h0l-2-.25-.5,4,60.05,7.72-15.6-2C417.79,519.39,418.48,516.83,419.94,515.71Z" class="cls-6"/><path d="M435.85,523.42a5.39,5.39,0,0,0,4.95-4.7A5.39,5.39,0,0,1,435.85,523.42Z" class="cls-6"/><polygon points="442.76 503.53 442.78 503.38 440.8 518.72 442.76 503.53" class="cls-6"/><path d="M425.33,493.7s0,.08,0,.12S425.33,493.74,425.33,493.7Z" class="cls-6"/><path d="M425.37,494.21a.28.28,0,0,0,0,.09A.28.28,0,0,1,425.37,494.21Z" class="cls-6"/><path d="M386.74,489.14l.46.06.11,0a1,1,0,0,1,1.11-.7h0l4.37.56a1,1,0,0,1,.9,1.16l2.31.3a1,1,0,0,1,1.16-.9h0l4.37.56a1,1,0,0,1,.9,1.17l2.31.3a1,1,0,0,1,1.16-.91h0l4.37.57a1,1,0,0,1,.9,1.16l2.31.3a1,1,0,0,1,1.16-.9h0l4.38.56a1,1,0,0,1,.9,1.17l2.3.29a1,1,0,0,1,1.16-.9h0l1.91.25h0c0-.23,0-.45.05-.66a4,4,0,0,1,2.81-3.31L439,490.68l-3.65-.47-.48-.06-47.44-6.1Z" class="cls-6"/><line x1="411.19" x2="413.5" y1="492.49" y2="492.79" class="cls-82"/><line x1="402.44" x2="404.75" y1="491.37" y2="491.67" class="cls-82"/><line x1="419.94" x2="422.24" y1="493.62" y2="493.91" class="cls-82"/><line x1="393.7" x2="396.01" y1="490.24" y2="490.54" class="cls-82"/><path d="M410.29,491.33l-4.37-.57h0a1,1,0,0,0-1.16.91h0a1,1,0,0,0,.9,1.16l4.37.56h0a1,1,0,0,0,1.16-.9h0A1,1,0,0,0,410.29,491.33Z" class="cls-78"/><path d="M401.54,490.2l-4.37-.56h0a1,1,0,0,0-1.16.9h0a1,1,0,0,0,.9,1.17l4.37.56h0a1,1,0,0,0,1.16-.9h0A1,1,0,0,0,401.54,490.2Z" class="cls-78"/><path d="M419,492.45l-4.38-.56h0a1,1,0,0,0-1.16.9h0a1,1,0,0,0,.9,1.16l4.37.57h0a1.05,1.05,0,0,0,1.17-.9h0A1,1,0,0,0,419,492.45Z" class="cls-78"/><path d="M392.8,489.08l-4.37-.56h0a1,1,0,0,0-1.11.7,2.31,2.31,0,0,1,1.75,1.48l3.47.44h0a1,1,0,0,0,1.16-.91h0A1,1,0,0,0,392.8,489.08Z" class="cls-78"/><path d="M423.41,493h0a1,1,0,0,0-1.16.9h0a1,1,0,0,0,.9,1.17l2.41.31a.22.22,0,0,1,0-.08c0-.14-.06-.28-.08-.41s0-.08,0-.11-.05-.33-.06-.49a.28.28,0,0,1,0-.09c0-.13,0-.26,0-.39s0-.08,0-.12,0-.29,0-.43h0Z" class="cls-78"/><line x1="418.68" x2="416.92" y1="517.31" y2="517.09" class="cls-82"/><line x1="390.68" x2="392.99" y1="513.71" y2="514.01" class="cls-82"/><line x1="375.5" x2="373.53" y1="511.76" y2="511.51" class="cls-82"/><line x1="381.94" x2="384.24" y1="512.59" y2="512.89" class="cls-82"/><line x1="410.48" x2="408.17" y1="516.26" y2="515.96" class="cls-82"/><line x1="399.43" x2="401.73" y1="514.84" y2="515.13" class="cls-82"/><path d="M411.38,517.42l4.37.57h0a1,1,0,0,0,1.16-.9h0a1,1,0,0,0-.9-1.17l-4.37-.56h0a1,1,0,0,0-1.16.9h0A1,1,0,0,0,411.38,517.42Z" class="cls-78"/><path d="M393.89,515.18l4.37.56h0a1,1,0,0,0,.26-2.07l-4.37-.56h0a1,1,0,0,0-1.16.9h0A1.05,1.05,0,0,0,393.89,515.18Z" class="cls-78"/><path d="M402.63,516.3l4.38.56h0a1,1,0,0,0,1.16-.9h0a1,1,0,0,0-.9-1.16l-4.37-.57h0a1.06,1.06,0,0,0-1.17.9h0A1,1,0,0,0,402.63,516.3Z" class="cls-78"/><path d="M376.4,512.93l4.37.56h0a1.05,1.05,0,0,0,1.17-.9h0a1.05,1.05,0,0,0-.9-1.17l-4.38-.56h0a1,1,0,0,0-1.16.9h0A1,1,0,0,0,376.4,512.93Z" class="cls-78"/><path d="M385.14,514.05l4.38.56h0a1,1,0,1,0,.26-2.06l-4.37-.56h0a1.05,1.05,0,0,0-1.17.9h0A1,1,0,0,0,385.14,514.05Z" class="cls-78"/><path d="M443.13,437.67a10,10,0,0,0,1.17-2.34c.17-.85-1.28-2.67-2.26-3.79l-8.67-1.11a5.07,5.07,0,0,1-5.28,3l-17.32-2.22a5.07,5.07,0,0,1-4.36-4.21l-21.79-2.8-.75,5.9h0Z" class="cls-79"/><path d="M410.91,463.69l-4.38-.56-.21,1.64,4.4.56,0-.4Z" class="cls-79"/><path d="M402.1,465l.39-3.08c0-.08,0-.15,0-.23l-22.31-2.86h0l-.74,5.89,23.48,3A3.41,3.41,0,0,1,402.1,465Z" class="cls-79"/><path d="M419.49,466.46l4.41.57.21-1.65-4.38-.56-.16,1.24C419.55,466.2,419.52,466.33,419.49,466.46Z" class="cls-79"/><path d="M426.41,470.71l6.65.86a7.41,7.41,0,0,0-.15-2.19c-.53-1.45-3-2.16-3-2.16l-1.8-.23-.17,1.29A3.41,3.41,0,0,1,426.41,470.71Z" class="cls-79"/><path d="M428.18,489.3a4,4,0,0,0-2.81,3.31c0,.21,0,.43-.05.66s0,.28,0,.43,0,.08,0,.12,0,.26,0,.39a.28.28,0,0,0,0,.09c0,.16,0,.32.06.49s0,.07,0,.11.05.27.08.41c.67,3.32,2.91,7.45,6.4,8.57,4.55,1.46,3.9,2,3.85,2.39s-7.64.32-8.16,3.9-1.35,3.94-2.51,3.79-2.83-.07-5.18,1.75c-1.46,1.12-2.15,3.68-2.46,5.46l15.6,2,1.68.21a5,5,0,0,0,1.09,0,5.39,5.39,0,0,0,4.95-4.7l2-15.34.85-6.66a5.39,5.39,0,0,0-2.64-5.35,4,4,0,0,0-.46-.24,5.47,5.47,0,0,0-1.57-.45Zm4.11,30.1h0a3,3,0,0,1,.77-6h0a3,3,0,0,1-.77,6Zm2.46-19.15h0a3,3,0,0,1,.77-6h0a3,3,0,0,1-.77,6.05Z" class="cls-3"/><path d="M428.26,464a3.36,3.36,0,0,1,.07,1.23L428.1,467l1.8.23s2.48.71,3,2.16a7.41,7.41,0,0,1,.15,2.19c-.05,2-.21,4.61.8,6.38a4.3,4.3,0,0,0,1.56,1.52,11.18,11.18,0,0,0,2,.94c1.25.45,2.57.79,3.56,1.21h0l.37-7a8.89,8.89,0,0,0-6.78-9.74,8.05,8.05,0,0,0-1-.18Z" class="cls-3"/><path d="M435.52,494.2h0a3,3,0,0,0-.77,6h0a3,3,0,0,0,.77-6.05Z" class="cls-80"/><path d="M433.06,513.35h0a3,3,0,0,0-.77,6h0a3,3,0,0,0,.77-6Z" class="cls-80"/><path d="M442,431.54h0c1,1.12,2.43,2.94,2.26,3.79a10,10,0,0,1-1.17,2.34,4.92,4.92,0,0,0-.62,2.12c-.07,2,0,3.75,0,3.75a3.16,3.16,0,0,1,.44,2.4c-.28,1.46-2.81,4.33-3.31,6.05s1.41,1.82.32,2.66-5.56.88-6,3.82a7.33,7.33,0,0,0,2.24,6.46h0a6.47,6.47,0,0,0,.76-.05H437c.24,0,.48-.06.72-.1l.1,0,.72-.17,0,0A9,9,0,0,0,440,464l.07,0c.22-.1.43-.21.64-.33l.09-.05.61-.38.05,0a9.44,9.44,0,0,0,1.17-.94l.06-.06a6,6,0,0,0,.5-.51l.07-.08c.16-.18.32-.36.46-.55l.05-.07a9.78,9.78,0,0,0,.81-1.27.22.22,0,0,1,.05-.08q.16-.33.3-.66a.61.61,0,0,0,.05-.12c.1-.22.18-.45.26-.68l0-.1q.12-.37.21-.75l4.4-18.88a5.31,5.31,0,0,0-1.86-5.36,5.25,5.25,0,0,0-2.64-1.13Z" class="cls-3"/><path d="M383.73,472.8l.37.08a5.62,5.62,0,0,0-4.87-5h-.16l-.54,4.25Z" class="cls-81"/><path d="M377,484.1l.22-.62,3.06.4c1.22.15,1.87-1.17,2.18-2.12a1.13,1.13,0,0,1,1.16-.78h0l-5.44-.69a1.65,1.65,0,0,1-.67-.26Z" class="cls-77"/><path d="M383.63,481a1.13,1.13,0,0,0-1.16.78c-.31.95-1,2.27-2.18,2.12l-3.06-.4-.22.62h0l-1.35,10.61h0a3.16,3.16,0,0,0,3.66-2.71l.19-1.48a2.3,2.3,0,0,1,2.57-2l4.66.6.65-5.09.19-1.43a1.13,1.13,0,0,0-1-1.26l-2.11-.28-.8-.1Z" class="cls-81"/><path d="M388.4,497.81l.78-6a2.38,2.38,0,0,0-.12-1.07,2.31,2.31,0,0,0-1.75-1.48l-.11,0-.46-.06-4.66-.6a2.3,2.3,0,0,0-2.57,2l-.19,1.48a3.16,3.16,0,0,1-3.66,2.71l-1.79,14.11h0l.23,0A12.78,12.78,0,0,0,388.4,497.81Z" class="cls-77"/><path d="M383,478.22l-5.2-.67h0l-.31,2.47h0a1.65,1.65,0,0,0,.67.26l5.44.69h.05l.8.1,3.3.43a1.54,1.54,0,0,0,1.72-1.33l.14-1.05a1.54,1.54,0,0,0-1.34-1.72l-2.68-.35A2.7,2.7,0,0,1,383,478.22Z" class="cls-77"/><path d="M383.73,472.8l-5.2-.67h0l-.69,5.41,5.2.67a2.7,2.7,0,0,0,2.59-1.16,2.62,2.62,0,0,0,.46-1.2,2.72,2.72,0,0,0-2-3Z" class="cls-81"/><path d="M408.79,473.05l-.37,2.85a4.69,4.69,0,0,0,4.05,5.25l1.33.17a4.69,4.69,0,0,0,5.25-4.05l.37-2.85c0-.06,0-.13,0-.19l-10.61-1.36A1.13,1.13,0,0,0,408.79,473.05Z" class="cls-81"/><path d="M422.72,448.69l.37-2.85a4.69,4.69,0,0,0-4.06-5.25l-1.32-.17a4.69,4.69,0,0,0-5.25,4.06l-.37,2.85c0,.13,0,.26,0,.39l10.59,1.36A2.66,2.66,0,0,0,422.72,448.69Z" class="cls-81"/><path d="M405.07,468.81a3.49,3.49,0,0,1-.8-.21,3.14,3.14,0,0,0,2.62,4l1.93.25,10.61,1.36,1.93.25a3.15,3.15,0,0,0,3.55-3.23,3.29,3.29,0,0,1-.83,0Z" class="cls-77"/><path d="M421,455.3a3.69,3.69,0,0,1,1.1.33l.63.08a4.32,4.32,0,0,0,4.44-2.4,2.89,2.89,0,0,0-2.54-4l-1.94-.25-10.59-1.36-1.94-.25a2.89,2.89,0,0,0-3.46,3.21,4.32,4.32,0,0,0,3.69,3.45l.63.08a3.39,3.39,0,0,1,1.15,0Z" class="cls-77"/><path d="M416.38,456a4.44,4.44,0,0,1,3.86,4.67l3.48.44.25-1.94a3.5,3.5,0,0,0-1.91-3.56,3.69,3.69,0,0,0-1.1-.33l-8.83-1.14a3.39,3.39,0,0,0-1.15,0,3.48,3.48,0,0,0-2.74,3l-.25,1.94,3.47.45A4.44,4.44,0,0,1,416.38,456Z" class="cls-77"/><path d="M402.53,461.65c0,.08,0,.15,0,.23L402.1,465a3.41,3.41,0,0,0,.86,2.74,3.52,3.52,0,0,0,2.11,1.11l19,2.44a3.29,3.29,0,0,0,.83,0,3.48,3.48,0,0,0,1.5-.54,3.41,3.41,0,0,0,1.52-2.43l.17-1.29.23-1.79a3.36,3.36,0,0,0-.07-1.23,3.42,3.42,0,0,0-2.9-2.62l-1.64-.22-3.48-.44c0,.1,0,.2,0,.31l-.49,3.82,4.38.56L423.9,467l-4.41-.57a4.44,4.44,0,0,1-8.77-1.13l-4.4-.56.21-1.64,4.38.56.49-3.83.06-.3-3.47-.45-1.65-.21a3.47,3.47,0,0,0-3.81,2.75Z" class="cls-77"/><path d="M416.38,456a4.44,4.44,0,0,0-4.92,3.54l-.06.3-.49,3.83-.16,1.24,0,.4a4.44,4.44,0,0,0,8.77,1.13c0-.13.06-.26.08-.4l.16-1.24.49-3.82c0-.11,0-.21,0-.31A4.44,4.44,0,0,0,416.38,456Z" class="cls-81"/><path d="M406.39,425.49a4.82,4.82,0,0,0,0,1.47h0a5.07,5.07,0,0,0,4.36,4.21l17.32,2.22a5.07,5.07,0,0,0,5.28-3h0a5.14,5.14,0,0,0,.39-1.42,5.07,5.07,0,0,0-4.38-5.68l-3.18-.4a3,3,0,0,1,0,.9,3.09,3.09,0,0,1-3.46,2.67l-5.09-.65a3.08,3.08,0,0,1-2.43-4.33l-3.18-.41a4.76,4.76,0,0,0-1.25,0A5.06,5.06,0,0,0,406.39,425.49Z" class="cls-77"/><path d="M417.67,425.85l5.09.65a3.09,3.09,0,0,0,3.46-2.67,3,3,0,0,0,0-.9,3.1,3.1,0,0,0-2.65-2.56l-5.09-.66a3.1,3.1,0,1,0-.79,6.14Z" class="cls-81"/><path d="M45.19,390.93,7.84,360.08c-10.16-8.39-10.49-24.4-.73-35.28h0c9.27-10.33,24.24-12.2,33.88-4.24l38.67,31.93c9.56,8.58,9.6,24.14.08,34.75h0C70.22,397.85,54.75,399.5,45.19,390.93Z" class="cls-5"/><circle cx="31.96" cy="350.61" r="14.85" class="cls-77"/><circle cx="14.6" cy="330.62" r="6.07" class="cls-77"/><circle cx="35.03" cy="328.49" r="6.07" class="cls-77"/><path d="M152.84,434.85a88.91,88.91,0,0,1-10.45,10.89C116.75,468.42,56,505.44,29.84,465A41.19,41.19,0,0,1,42,408l59.63-38.6a41.18,41.18,0,0,1,57,12.19l.74,1.13C171.09,400.88,165,419.78,152.84,434.85Z" class="cls-5"/><path d="M115.29,386.21s-9,35.77-18.31,38.6c-7.18,2.17-15.84,2-23.49,2.3-10.27.36-22.44,1.72-32.71-1C35.11,424.66,25,420.69,23,415c-3-8.52,3.58-13.56,8.89-20,7.25-8.85,14.71-17.58,21.61-26.66,3.25-4.28,7.68-12.19,15.09-10.42,3.94.94,50.05,22.28,50.05,22.28Z" class="cls-3"/><path d="M180.83,490.2c-21.07-4.19-43.53-9.8-62.44-16.6C79.52,459.61,28.53,426.4,4.53,409a8.3,8.3,0,1,1,9.76-13.44C37.58,412.43,86.9,444.61,124,458s90.24,22.16,114.51,23.92a8.31,8.31,0,0,1-1.2,16.57C224,497.48,203.19,494.64,180.83,490.2Z" class="cls-81"/><path d="M302.16,542.18a14.61,14.61,0,0,0,1.07-2.31c.5-1.49.43-5.13.28-7.92a6.23,6.23,0,0,1,2.6-5.44c1.37-1,2.79-2.15,3.11-3,.66-1.79-12.3-10.06-12.06-12.07.18-1.58,14.23.06,14.81-2.06s-1.73-14.78-1.89-16.09,3-13.16,2.91-15.63-3.44-3.52-3.55-6.11c-.07-1.76,1.49-11.11,2-17.83a6,6,0,0,0-.25-2.35,13.47,13.47,0,0,0-1.31-3c-6-10.07-38.42,9.25-45.64,12.63-11,5.14-21.56,13.59-25.43,25.49a25.1,25.1,0,0,0-1.2,6.86c-.38,10.18,5.07,20.43,11.88,27.72,10.11,10.83,31.27,25.4,47.59,24.36Z" class="cls-77"/><path d="M194.48,463A89.66,89.66,0,0,1,184,473.92c-25.65,22.68-86.37,59.7-112.55,19.25a41.18,41.18,0,0,1,12.19-57L143.3,397.6a41.19,41.19,0,0,1,57,12.2l.73,1.13C212.73,429.06,206.61,448,194.48,463Z" class="cls-5"/><path d="M65.82,483.38a2.07,2.07,0,0,1-1.6-1.5,43.16,43.16,0,0,1,18.32-47.42l13.38-8.66a2.08,2.08,0,0,1,2.25,3.49L84.8,438a39,39,0,0,0-16.56,42.86,2.08,2.08,0,0,1-1.48,2.54A2,2,0,0,1,65.82,483.38Z" class="cls-83"/><path d="M192.32,398.25c8.56,9,15.9,20.19,24.25,29.74a78.56,78.56,0,0,0,14.26,13.21c5.38,3.73,17.15,5.19,11.67,16.31-4.19,8.49-12.87,14.5-19.76,19.09C207.61,486.67,190.94,497,174,499.32c-30.75,4.22-57.1-15.4-77-39.79-9.83-12-17.85-26-27-38.82-2.54-3.55-2.1-9.12,1-12.51,10.46-11.35,20.73-23,31.11-34.44l77.7,12.06C184.06,389.87,188.26,394,192.32,398.25Z" class="cls-3"/><path d="M217.57,311.47c1.42-9.19,3-18.27,3.3-20.44,1.78-14.58,2.27-32-10.7-43.8-16.7-15.22-39.82-11.37-54.78,1.14-2.21,1.85-4.28,3.79-6.26,5.81l-2.25-.47-2.26-.43c-1.06-2.62-2.23-5.21-3.57-7.76-9-17.27-28.93-29.67-50.18-22-16.51,6-22.7,22.22-26.63,36.37-.63,2.27-2.87,12.51-5.26,22.17a76.26,76.26,0,0,0-12.22,29c-7.83,39.41,13.71,51.25,76.07,63.64,59.22,11.77,86.79,9.69,94.63-29.72A82.3,82.3,0,0,0,217.57,311.47Z" class="cls-5"/><path d="M61.77,357.65a2.07,2.07,0,0,1-.71-.28C48.66,349.48,43,339,43.15,324.43a2.08,2.08,0,1,1,4.15.05c-.16,13.18,4.77,22.24,16,29.38a2.08,2.08,0,0,1-1.52,3.79Z" class="cls-83"/><path d="M122.49,260.94a4.66,4.66,0,0,0,3.53-6.21c-3.89-11.76-14.15-19.52-24.86-18S82.81,248.66,82.42,261a4.67,4.67,0,0,0,5.15,5Z" class="cls-84"/><path d="M166.65,269.72a4.68,4.68,0,0,1-.89-7.1c8.09-9.37,20.54-12.62,29.84-7.09s12.41,18,8,29.6a4.68,4.68,0,0,1-6.66,2.61Z" class="cls-84"/><ellipse cx="76.03" cy="323.64" class="cls-77" rx="15.07" ry="19.25" transform="translate(-256.22 335.14) rotate(-78.76)"/><ellipse cx="158.29" cy="339.99" class="cls-77" rx="15.07" ry="19.25" transform="translate(-206.03 428.98) rotate(-78.76)"/><circle cx="93.35" cy="319.84" r="6.2" class="cls-85"/><ellipse cx="141.71" cy="316.72" class="cls-86" rx="6.78" ry="4.77" transform="translate(-56.15 31.69) rotate(-10.66)"/><ellipse cx="100.25" cy="308.48" class="cls-86" rx="4.77" ry="6.78" transform="translate(-221.85 346.68) rotate(-78.76)"/><path d="M119.2,333.19a2.22,2.22,0,0,1-3-.58,26.29,26.29,0,0,0-2-2.24c-.49-.51-1.1-1-1.1-1.73,0-1.32,1.44-2,2.59-1.89a24.67,24.67,0,0,1,3.09.42,24.42,24.42,0,0,1,3,.8c1.06.36,2.14,1.45,1.7,2.66-.25.68-.81.87-1.44,1.13A24.92,24.92,0,0,0,119.2,333.19Z" class="cls-85"/><path d="M107.2,333.32a7,7,0,0,0,7.49,3,6,6,0,0,0,3.15-2.35,6.22,6.22,0,0,0,1.39-4.6,1.14,1.14,0,0,0-1.17-1,1.1,1.1,0,0,0-1,1.17,4.07,4.07,0,0,1-.92,3.11,5.71,5.71,0,0,1-1.08,1.11,2.58,2.58,0,0,1-1.08.51s-.33.07-.14,0l-.39.05-.39,0h-.16a4.28,4.28,0,0,1-.81-.13,3.19,3.19,0,0,1-.54-.15,5.28,5.28,0,0,1-2.52-2c-.8-1.15-2.62.06-1.82,1.21Z" class="cls-85"/><path d="M126.09,335.4a5.34,5.34,0,0,1-3.11.89,4.45,4.45,0,0,1-2.31-.77,4,4,0,0,1-1.37-2.32,4.11,4.11,0,0,1,.34-3.23,1.09,1.09,0,0,0-.49-1.46,1.11,1.11,0,0,0-1.46.49,6.25,6.25,0,0,0-.48,4.78,6,6,0,0,0,2,3.37,7,7,0,0,0,8.07.06c1.18-.76,0-2.57-1.21-1.81Z" class="cls-85"/><path d="M170.35,346l10.69-.22,1.52,0a3.14,3.14,0,0,0,2.88-3.34,3.18,3.18,0,0,0-3.33-2.88l-10.69.22-1.52,0a3.15,3.15,0,0,0-2.89,3.34,3.2,3.2,0,0,0,3.34,2.88Z" class="cls-87"/><path d="M181.18,352.75l-9.8-4.29-1.39-.62a3.12,3.12,0,0,0-2.8,5.58l9.8,4.28,1.39.62a3.12,3.12,0,1,0,2.8-5.57Z" class="cls-87"/><path d="M66.87,319.33,57.08,315l-1.4-.61A3.11,3.11,0,1,0,52.89,320l9.79,4.29,1.4.61a3.11,3.11,0,1,0,2.79-5.57Z" class="cls-87"/><path d="M52,333.19,62.65,333l1.52,0a3.15,3.15,0,0,0,2.88-3.34,3.19,3.19,0,0,0-3.34-2.88L53,326.94l-1.52,0a3.13,3.13,0,0,0-2.88,3.33A3.2,3.2,0,0,0,52,333.19Z" class="cls-87"/><path d="M41.32,352.86c4.41-3.94,9.14-7.4,14.49-8.84,8-2.16,19.38,4.76,26.33,8.35a102.34,102.34,0,0,1,24.2,17.39c5.18,5.05,11.77,12.25,10.3,21.15-.74,4.52-3.86,6.35-7.41,5.42-12.68-3.33-22.91-13-35.47-16.67-13.29-3.85-27.9-2.86-40.27-9.94-1.77-1-3.65-2.86-3.15-5.12a6.26,6.26,0,0,1,1.72-2.71C35,358.73,38.13,355.72,41.32,352.86Z" class="cls-3"/><path d="M202.85,385c-3.46-5.51-7.51-10.71-13.16-14.34-8.46-5.43-24.75-4-34.43-3.72a146.47,146.47,0,0,0-35.86,5.46c-8.23,2.38-19.06,6.12-21.18,14.89-1.08,4.45,1.77,7.47,6.34,8.15,16.28,2.43,32.45-2,48.73.07,17.23,2.21,33.91,9.41,51.46,8.28,2.51-.16,5.51-1,5.89-3.32a5.53,5.53,0,0,0-.84-3.22C207.7,393,205.36,389,202.85,385Z" class="cls-3"/><path d="M106,359.51l4.87-4.75a2.73,2.73,0,0,1,4.56,2.56L113.93,364a2.73,2.73,0,0,0,3,3.3l6.73-1A2.73,2.73,0,0,1,125.9,371l-5.12,4.48a2.72,2.72,0,0,0,.53,4.46l6,3.16a2.73,2.73,0,0,1-1,5.13l-6.77.61a2.73,2.73,0,0,0-2.2,3.93l3,6.09a2.73,2.73,0,0,1-3.84,3.55l-5.84-3.48a2.73,2.73,0,0,0-4.09,1.88l-1.14,6.7a2.72,2.72,0,0,1-5.19.62l-2.68-6.25a2.72,2.72,0,0,0-4.41-.88l-4.86,4.75a2.72,2.72,0,0,1-4.56-2.55l1.5-6.63a2.72,2.72,0,0,0-3.05-3.3l-6.73,1a2.72,2.72,0,0,1-2.19-4.74L78.41,385a2.73,2.73,0,0,0-.53-4.47l-6-3.15a2.73,2.73,0,0,1,1-5.13l6.77-.62a2.72,2.72,0,0,0,2.2-3.92l-3-6.09a2.73,2.73,0,0,1,3.84-3.56l5.84,3.49a2.73,2.73,0,0,0,4.08-1.89l1.14-6.7a2.73,2.73,0,0,1,5.2-.61l2.67,6.25A2.72,2.72,0,0,0,106,359.51Z" class="cls-84"/><circle cx="99.6" cy="380.26" r="20.67" class="cls-83"/><circle cx="99.6" cy="380.26" r="13.39" class="cls-84"/><path d="M95.47,404.32c6.75,13.3,3.08,27-11.91,33.33-13,5.49-25.5,0-33.33-11.91-7.56-11.57-.58-27.42,11.92-33.33S89.22,392,95.47,404.32Z" class="cls-5"/><ellipse cx="238.26" cy="477.28" class="cls-6" rx="14.62" ry="12.15" transform="translate(-264.94 654.34) rotate(-82.86)"/><ellipse cx="234.97" cy="502.53" class="cls-6" rx="14.62" ry="12.15" transform="translate(-292.87 673.19) rotate(-82.86)"/><ellipse cx="237.44" cy="483.34" class="cls-3" rx="8.15" ry="7.36" transform="translate(-271.67 658.83) rotate(-82.86)"/><ellipse cx="235.79" cy="496.47" class="cls-3" rx="8.15" ry="7.36" transform="translate(-286.14 668.69) rotate(-82.86)"/><circle cx="236.62" cy="489.9" r="6.15" class="cls-77"/><path d="M146,337.59a3.05,3.05,0,0,1-1.18-.5l-7-4.87a3.12,3.12,0,0,1,.75-5.49l8.54-3a3.12,3.12,0,0,1,2.09,5.87l-2.85,1,2,1.41a3.12,3.12,0,0,1-2.4,5.61Z" class="cls-85"/><path d="M261.43,337.41c-11.11-17.79-23.75-35.41-38.33-51.1,0-.51-.09-1-.1-1.48-.11-5.5,5.26-11.41,5.26-11.41s6.76,12.44,13.87,17.09c11,7.21,20.7,7.52,25.5,5.27,2.87-1.35,7.07-5.71,1.54-10.53a6.79,6.79,0,0,0-2.88-1.5,5.9,5.9,0,0,1-4.39-5.47c-.24-4.18-.49-9.6-.41-12.16.15-4.48.72-55.07-8-64.93-9.56-10.78-18.71-9.52-35.4-4.91-13.7,3.78-58.63,26.59-76.43,35.75l-.2-.09c-5-2.36-34.95-19.53-46.17-19.17-2.11.07-3.56.76-4,2.29a8.87,8.87,0,0,0,.08,4.4c6.94,35.64,38.63,62,67.23,81.34,28.76,19.42,60.77,36.47,94.32,45.84,2.44.68,5.09,1.31,7.45.38C264.7,345.3,263.31,340.41,261.43,337.41Z" class="cls-6"/><path d="M142.75,229.92a2.11,2.11,0,0,0-1.17,2.12c.21,1.93,1.09,5.72,4.47,11.5,5.28,9,14.84,16.44,22.88,22.87,16.86,13.51,32.94,16.63,53.49,19.87a1.47,1.47,0,0,0,1.71-1.55c0-.66-.21-1.27-.22-1.55,0-1.19,2.06-2.11.56-3a53.13,53.13,0,0,0-7.48-3.9c-13.42-5.92-25.43-12.94-36.13-23.09-10.23-9.7-15.08-17.41-22.92-28.59a2.09,2.09,0,0,0-2.62-.69Z" class="cls-83"/><path d="M137.83,235.84l-5.49-2.77a3.78,3.78,0,0,1,.06-6.78l5.54-2.68a3.78,3.78,0,0,0,2.09-2.83l.94-6.08a3.78,3.78,0,0,1,6.47-2l4.26,4.44a3.77,3.77,0,0,0,3.33,1.12l6.08-1a3.78,3.78,0,0,1,3.93,5.53l-2.91,5.42a3.78,3.78,0,0,0,0,3.52l2.81,5.47a3.78,3.78,0,0,1-4,5.45l-6.06-1.1a3.78,3.78,0,0,0-3.35,1.06L147.13,247a3.78,3.78,0,0,1-6.43-2.16l-.83-6.09A3.78,3.78,0,0,0,137.83,235.84Z" class="cls-88"/><path d="M145.24,246.6l-2.81-1.41a1.94,1.94,0,0,1,0-3.47l2.83-1.38a1.94,1.94,0,0,0,1.07-1.45l.47-3.11a1.93,1.93,0,0,1,3.3-1.05L152.3,237a2,2,0,0,0,1.71.57l3.11-.52a1.94,1.94,0,0,1,2,2.82l-1.48,2.78a1.91,1.91,0,0,0,0,1.8l1.44,2.79A1.93,1.93,0,0,1,157,250l-3.1-.55a1.9,1.9,0,0,0-1.71.55L150,252.27a1.94,1.94,0,0,1-3.3-1.09l-.43-3.12A1.93,1.93,0,0,0,145.24,246.6Z" class="cls-77"/><circle cx="8.4" cy="348.49" r="6.07" class="cls-77"/><path d="M498.79,338.69a16.58,16.58,0,0,0,14.26,11.21c11.38,1.13,28.39-10.18,28.39-10.18l-10.5-9.28-25.46-.36Z" class="cls-6"/><path d="M488.18,316.71a20.73,20.73,0,0,0,1.29,15.53c4.11,7.87,7.77,8.71,12.74,7.77s19.77-3.07,22.65-5.26-3.61-15.62-3.61-15.62Z" class="cls-6"/><path d="M522.09,312.07s-12.61-.22-19.6-2.28-16.18-9.37-18.4-9-6.17,1.47-4,8.12,6.44,13.81,22.5,15.23,25.46,1.63,25.46,1.63Z" class="cls-6"/><path d="M603.86,318.85a16.58,16.58,0,0,1-9.2,15.63c-10.18,5.21-30.15.88-30.15.88l6.4-12.47,23.58-9.61Z" class="cls-6"/><path d="M605.72,294.52a20.71,20.71,0,0,1,4.46,14.93c-1,8.82-4.06,10.94-9,11.88s-19.53,4.34-23,3.36-2.34-15.87-2.34-15.87Z" class="cls-6"/><path d="M572.45,302.56s11.67-4.81,17.42-9.27,11.65-14.62,13.87-15,6.28-.88,6.68,6.1-1,15.21-15.41,22.39-23.11,10.8-23.11,10.8Z" class="cls-6"/><path d="M581.66,301.6c-2-10.84-11.34-18.2-20.76-16.42-6.9,1.31-11.95,7.14-13.35,14.43a1.38,1.38,0,0,1-2.52.48c-4-6.28-10.8-9.87-17.7-8.57-9.42,1.78-15.39,12-13.34,22.86,4.58,24.27,31.14,36.71,40,40.21a4.87,4.87,0,0,0,5.13-1C566.05,347.14,586.25,325.87,581.66,301.6Z" class="cls-5"/></g></g></g></svg>