<svg xmlns="http://www.w3.org/2000/svg" xmlns:xlink="http://www.w3.org/1999/xlink" viewBox="0 0 686.45 409.44"><defs><style>.cls-1,.cls-81{fill:none;}.cls-2{isolation:isolate;}.cls-3{fill:#a0e1f0;}.cls-4{fill:#fffee3;}.cls-5{fill:#20c5e0;}.cls-6{clip-path:url(#clip-path);}.cls-7{clip-path:url(#clip-path-2);}.cls-8{clip-path:url(#clip-path-3);}.cls-9{clip-path:url(#clip-path-4);}.cls-10{clip-path:url(#clip-path-5);}.cls-11{clip-path:url(#clip-path-6);}.cls-12{clip-path:url(#clip-path-7);}.cls-13{clip-path:url(#clip-path-8);}.cls-14{clip-path:url(#clip-path-9);}.cls-15{clip-path:url(#clip-path-10);}.cls-16{clip-path:url(#clip-path-11);}.cls-17{clip-path:url(#clip-path-12);}.cls-18{clip-path:url(#clip-path-13);}.cls-19{clip-path:url(#clip-path-14);}.cls-20{clip-path:url(#clip-path-15);}.cls-21{clip-path:url(#clip-path-16);}.cls-22{clip-path:url(#clip-path-17);}.cls-23{clip-path:url(#clip-path-18);}.cls-24{clip-path:url(#clip-path-19);}.cls-25{clip-path:url(#clip-path-20);}.cls-26{clip-path:url(#clip-path-21);}.cls-27{clip-path:url(#clip-path-22);}.cls-28{clip-path:url(#clip-path-23);}.cls-29{clip-path:url(#clip-path-24);}.cls-30{clip-path:url(#clip-path-25);}.cls-31{clip-path:url(#clip-path-26);}.cls-32{clip-path:url(#clip-path-27);}.cls-33{clip-path:url(#clip-path-28);}.cls-34{clip-path:url(#clip-path-29);}.cls-35{clip-path:url(#clip-path-30);}.cls-36{clip-path:url(#clip-path-31);}.cls-37{clip-path:url(#clip-path-32);}.cls-38{clip-path:url(#clip-path-33);}.cls-39{clip-path:url(#clip-path-34);}.cls-40{clip-path:url(#clip-path-35);}.cls-41{fill:#64def2;}.cls-42{fill:#417ed6;}.cls-43{mix-blend-mode:multiply;}.cls-44{fill:#54769e;}.cls-45{clip-path:url(#clip-path-36);}.cls-46{clip-path:url(#clip-path-37);}.cls-47{clip-path:url(#clip-path-38);}.cls-48{clip-path:url(#clip-path-39);}.cls-49{clip-path:url(#clip-path-40);}.cls-50{clip-path:url(#clip-path-41);}.cls-51{clip-path:url(#clip-path-42);}.cls-52{clip-path:url(#clip-path-43);}.cls-53{clip-path:url(#clip-path-44);}.cls-54{clip-path:url(#clip-path-45);}.cls-55{clip-path:url(#clip-path-46);}.cls-56{clip-path:url(#clip-path-47);}.cls-57{clip-path:url(#clip-path-48);}.cls-58{clip-path:url(#clip-path-49);}.cls-59{clip-path:url(#clip-path-50);}.cls-60{clip-path:url(#clip-path-51);}.cls-61{clip-path:url(#clip-path-52);}.cls-62{clip-path:url(#clip-path-53);}.cls-63{clip-path:url(#clip-path-54);}.cls-64{clip-path:url(#clip-path-55);}.cls-65{clip-path:url(#clip-path-56);}.cls-66{clip-path:url(#clip-path-57);}.cls-67{clip-path:url(#clip-path-58);}.cls-68{clip-path:url(#clip-path-59);}.cls-69{clip-path:url(#clip-path-60);}.cls-70{clip-path:url(#clip-path-61);}.cls-71{clip-path:url(#clip-path-62);}.cls-72{clip-path:url(#clip-path-63);}.cls-73{clip-path:url(#clip-path-64);}.cls-74{fill:#dcfbfe;}.cls-75{fill:#4783d8;}.cls-76{fill:#f8e172;}.cls-77{fill:#4081d6;}.cls-78{fill:#1ec5df;}.cls-79{fill:#25c6e1;}.cls-80{fill:#f7bf74;}.cls-81{stroke:#20c5e0;stroke-linecap:round;stroke-linejoin:round;stroke-width:0;}.cls-82{fill:#e09f90;}.cls-83{fill:#f0c2b4;}.cls-84{fill:#963b43;}.cls-85{fill:#bf837b;}.cls-86{fill:#ff92a4;}.cls-87{fill:#ffcf06;}</style><clipPath id="clip-path"><path class="cls-1" d="M508.58,223.27a7.18,7.18,0,0,1-7.49-8.28,1.34,1.34,0,0,0-1.64-1.51L432.7,229.93A1.34,1.34,0,0,0,432,232a7.19,7.19,0,0,1-2.78,10.81,7.12,7.12,0,0,1-2.73.65,1.33,1.33,0,0,0-1.23,1.66l20.63,83.75a1.35,1.35,0,0,0,1.87.9,7,7,0,0,1,2.31-.66,7.22,7.22,0,0,1,7.58,4.8,7.09,7.09,0,0,1,.38,2.86,1.34,1.34,0,0,0,1.65,1.4l66.27-16.33a1.34,1.34,0,0,0,.82-2,7.41,7.41,0,0,1-1-2.71,7.24,7.24,0,0,1,4.49-7.77,7.06,7.06,0,0,1,2.35-.49,1.34,1.34,0,0,0,1.24-1.66l-20.64-83.75a1.35,1.35,0,0,0-1.87-.9A7,7,0,0,1,508.58,223.27Z"/></clipPath><clipPath id="clip-path-2"><rect class="cls-1" x="531.86" y="203.12" width="24.1" height="28.42" transform="translate(-36.2 136.45) rotate(-13.84)"/></clipPath><clipPath id="clip-path-3"><rect class="cls-1" x="538.66" y="230.72" width="24.1" height="28.42" transform="translate(-42.61 138.88) rotate(-13.84)"/></clipPath><clipPath id="clip-path-4"><rect class="cls-1" x="545.46" y="258.31" width="24.1" height="28.42" transform="translate(-49.01 141.31) rotate(-13.84)"/></clipPath><clipPath id="clip-path-5"><rect class="cls-1" x="508.46" y="208.89" width="24.1" height="28.42" transform="translate(-38.26 131.02) rotate(-13.84)"/></clipPath><clipPath id="clip-path-6"><rect class="cls-1" x="515.26" y="236.48" width="24.1" height="28.42" transform="translate(-44.67 133.45) rotate(-13.84)"/></clipPath><clipPath id="clip-path-7"><rect class="cls-1" x="522.06" y="264.08" width="24.1" height="28.42" transform="translate(-51.07 135.88) rotate(-13.84)"/></clipPath><clipPath id="clip-path-8"><rect class="cls-1" x="528.86" y="291.67" width="24.1" height="28.42" transform="translate(-57.48 138.31) rotate(-13.84)"/></clipPath><clipPath id="clip-path-9"><rect class="cls-1" x="535.66" y="319.27" width="24.1" height="28.42" transform="translate(-63.88 140.74) rotate(-13.84)"/></clipPath><clipPath id="clip-path-10"><rect class="cls-1" x="478.25" y="187.06" width="24.1" height="28.42" transform="translate(-33.92 123.16) rotate(-13.84)"/></clipPath><clipPath id="clip-path-11"><rect class="cls-1" x="485.05" y="214.66" width="24.1" height="28.42" transform="translate(-40.32 125.59) rotate(-13.84)"/></clipPath><clipPath id="clip-path-12"><rect class="cls-1" x="491.85" y="242.25" width="24.1" height="28.42" transform="translate(-46.73 128.02) rotate(-13.84)"/></clipPath><clipPath id="clip-path-13"><rect class="cls-1" x="498.66" y="269.85" width="24.1" height="28.42" transform="translate(-53.13 130.45) rotate(-13.84)"/></clipPath><clipPath id="clip-path-14"><rect class="cls-1" x="505.46" y="297.44" width="24.1" height="28.42" transform="translate(-59.54 132.87) rotate(-13.84)"/></clipPath><clipPath id="clip-path-15"><rect class="cls-1" x="512.26" y="325.04" width="24.1" height="28.42" transform="translate(-65.94 135.3) rotate(-13.84)"/></clipPath><clipPath id="clip-path-16"><rect class="cls-1" x="454.85" y="192.83" width="24.1" height="28.42" transform="translate(-35.98 117.73) rotate(-13.84)"/></clipPath><clipPath id="clip-path-17"><rect class="cls-1" x="461.65" y="220.42" width="24.1" height="28.42" transform="translate(-42.38 120.16) rotate(-13.84)"/></clipPath><clipPath id="clip-path-18"><rect class="cls-1" x="468.45" y="248.02" width="24.1" height="28.42" transform="translate(-48.79 122.59) rotate(-13.84)"/></clipPath><clipPath id="clip-path-19"><rect class="cls-1" x="475.25" y="275.61" width="24.1" height="28.42" transform="translate(-55.19 125.01) rotate(-13.84)"/></clipPath><clipPath id="clip-path-20"><rect class="cls-1" x="482.05" y="303.21" width="24.1" height="28.42" transform="translate(-61.6 127.44) rotate(-13.84)"/></clipPath><clipPath id="clip-path-21"><rect class="cls-1" x="488.85" y="330.8" width="24.1" height="28.42" transform="translate(-68 129.87) rotate(-13.84)"/></clipPath><clipPath id="clip-path-22"><rect class="cls-1" x="431.45" y="198.59" width="24.1" height="28.42" transform="translate(-38.04 112.3) rotate(-13.84)"/></clipPath><clipPath id="clip-path-23"><rect class="cls-1" x="438.25" y="226.19" width="24.1" height="28.42" transform="translate(-44.44 114.72) rotate(-13.84)"/></clipPath><clipPath id="clip-path-24"><rect class="cls-1" x="445.05" y="253.79" width="24.1" height="28.42" transform="translate(-50.85 117.15) rotate(-13.84)"/></clipPath><clipPath id="clip-path-25"><rect class="cls-1" x="451.85" y="281.38" width="24.1" height="28.42" transform="translate(-57.25 119.58) rotate(-13.84)"/></clipPath><clipPath id="clip-path-26"><rect class="cls-1" x="458.65" y="308.98" width="24.1" height="28.42" transform="translate(-63.66 122.01) rotate(-13.84)"/></clipPath><clipPath id="clip-path-27"><rect class="cls-1" x="465.45" y="336.57" width="24.1" height="28.42" transform="translate(-70.06 124.44) rotate(-13.84)"/></clipPath><clipPath id="clip-path-28"><rect class="cls-1" x="408.04" y="204.36" width="24.1" height="28.42" transform="translate(-40.1 106.86) rotate(-13.84)"/></clipPath><clipPath id="clip-path-29"><rect class="cls-1" x="414.84" y="231.96" width="24.1" height="28.42" transform="translate(-46.5 109.29) rotate(-13.84)"/></clipPath><clipPath id="clip-path-30"><rect class="cls-1" x="421.64" y="259.55" width="24.1" height="28.42" transform="translate(-52.91 111.72) rotate(-13.84)"/></clipPath><clipPath id="clip-path-31"><rect class="cls-1" x="428.45" y="287.15" width="24.1" height="28.42" transform="translate(-59.31 114.15) rotate(-13.84)"/></clipPath><clipPath id="clip-path-32"><rect class="cls-1" x="435.25" y="314.74" width="24.1" height="28.42" transform="translate(-65.72 116.58) rotate(-13.84)"/></clipPath><clipPath id="clip-path-33"><rect class="cls-1" x="398.24" y="265.32" width="24.1" height="28.42" transform="translate(-54.96 106.29) rotate(-13.84)"/></clipPath><clipPath id="clip-path-34"><rect class="cls-1" x="405.04" y="292.91" width="24.1" height="28.42" transform="translate(-61.37 108.72) rotate(-13.84)"/></clipPath><clipPath id="clip-path-35"><rect class="cls-1" x="411.84" y="320.51" width="24.1" height="28.42" transform="translate(-67.78 111.15) rotate(-13.84)"/></clipPath><clipPath id="clip-path-36"><path class="cls-1" d="M531.94,217.39a7.2,7.2,0,0,1-6.39-9.16,1.34,1.34,0,0,0-1.44-1.7l-68.28,8a1.35,1.35,0,0,0-1,2,7.07,7.07,0,0,1,.92,3.35,7.21,7.21,0,0,1-5,7,7.3,7.3,0,0,1-2.79.3,1.33,1.33,0,0,0-1.43,1.49l10,85.68a1.34,1.34,0,0,0,1.74,1.12,7.05,7.05,0,0,1,2.37-.37,7.2,7.2,0,0,1,6.94,8.6,1.33,1.33,0,0,0,1.47,1.59l67.79-7.92a1.34,1.34,0,0,0,1.06-1.89,7.19,7.19,0,0,1,4.77-10,7,7,0,0,1,2.39-.19,1.35,1.35,0,0,0,1.44-1.5l-10-85.67a1.33,1.33,0,0,0-1.74-1.12A7.44,7.44,0,0,1,531.94,217.39Z"/></clipPath><clipPath id="clip-path-37"><rect class="cls-1" x="531.76" y="204.49" width="24.1" height="28.42" transform="translate(-21.71 64.59) rotate(-6.66)"/></clipPath><clipPath id="clip-path-38"><rect class="cls-1" x="535.05" y="232.72" width="24.1" height="28.42" transform="translate(-24.96 65.17) rotate(-6.66)"/></clipPath><clipPath id="clip-path-39"><rect class="cls-1" x="538.35" y="260.95" width="24.1" height="28.42" transform="translate(-28.22 65.74) rotate(-6.66)"/></clipPath><clipPath id="clip-path-40"><rect class="cls-1" x="541.65" y="289.18" width="24.1" height="28.42" transform="translate(-31.47 66.32) rotate(-6.66)"/></clipPath><clipPath id="clip-path-41"><rect class="cls-1" x="544.95" y="317.41" width="24.1" height="28.42" transform="translate(-34.72 66.89) rotate(-6.66)"/></clipPath><clipPath id="clip-path-42"><rect class="cls-1" x="504.52" y="179.06" width="24.1" height="28.42" transform="translate(-18.94 61.26) rotate(-6.66)"/></clipPath><clipPath id="clip-path-43"><rect class="cls-1" x="507.81" y="207.29" width="24.1" height="28.42" transform="translate(-22.19 61.83) rotate(-6.66)"/></clipPath><clipPath id="clip-path-44"><rect class="cls-1" x="511.11" y="235.52" width="24.1" height="28.42" transform="translate(-25.45 62.41) rotate(-6.66)"/></clipPath><clipPath id="clip-path-45"><rect class="cls-1" x="514.41" y="263.75" width="24.1" height="28.42" transform="translate(-28.7 62.98) rotate(-6.66)"/></clipPath><clipPath id="clip-path-46"><rect class="cls-1" x="517.71" y="291.98" width="24.1" height="28.42" transform="translate(-31.96 63.56) rotate(-6.66)"/></clipPath><clipPath id="clip-path-47"><rect class="cls-1" x="521.01" y="320.21" width="24.1" height="28.42" transform="translate(-35.21 64.13) rotate(-6.66)"/></clipPath><clipPath id="clip-path-48"><rect class="cls-1" x="480.58" y="181.86" width="24.1" height="28.42" transform="translate(-19.43 58.5) rotate(-6.66)"/></clipPath><clipPath id="clip-path-49"><rect class="cls-1" x="483.87" y="210.09" width="24.1" height="28.42" transform="translate(-22.68 59.07) rotate(-6.66)"/></clipPath><clipPath id="clip-path-50"><rect class="cls-1" x="487.17" y="238.32" width="24.1" height="28.42" transform="translate(-25.94 59.65) rotate(-6.66)"/></clipPath><clipPath id="clip-path-51"><rect class="cls-1" x="490.47" y="266.55" width="24.1" height="28.42" transform="translate(-29.19 60.22) rotate(-6.66)"/></clipPath><clipPath id="clip-path-52"><rect class="cls-1" x="493.77" y="294.77" width="24.1" height="28.42" transform="translate(-32.44 60.8) rotate(-6.66)"/></clipPath><clipPath id="clip-path-53"><rect class="cls-1" x="497.07" y="323" width="24.1" height="28.42" transform="translate(-35.7 61.37) rotate(-6.66)"/></clipPath><clipPath id="clip-path-54"><rect class="cls-1" x="456.64" y="184.66" width="24.1" height="28.42" transform="translate(-19.91 55.74) rotate(-6.66)"/></clipPath><clipPath id="clip-path-55"><rect class="cls-1" x="459.93" y="212.89" width="24.1" height="28.42" transform="translate(-23.17 56.32) rotate(-6.66)"/></clipPath><clipPath id="clip-path-56"><rect class="cls-1" x="463.23" y="241.11" width="24.1" height="28.42" transform="translate(-26.42 56.89) rotate(-6.66)"/></clipPath><clipPath id="clip-path-57"><rect class="cls-1" x="466.53" y="269.34" width="24.1" height="28.42" transform="translate(-29.68 57.46) rotate(-6.66)"/></clipPath><clipPath id="clip-path-58"><rect class="cls-1" x="469.83" y="297.57" width="24.1" height="28.42" transform="translate(-32.93 58.04) rotate(-6.66)"/></clipPath><clipPath id="clip-path-59"><rect class="cls-1" x="473.13" y="325.8" width="24.1" height="28.42" transform="translate(-36.18 58.61) rotate(-6.66)"/></clipPath><clipPath id="clip-path-60"><rect class="cls-1" x="432.69" y="187.45" width="24.1" height="28.42" transform="translate(-20.4 52.98) rotate(-6.66)"/></clipPath><clipPath id="clip-path-61"><rect class="cls-1" x="435.99" y="215.68" width="24.1" height="28.42" transform="translate(-23.65 53.56) rotate(-6.66)"/></clipPath><clipPath id="clip-path-62"><rect class="cls-1" x="439.29" y="243.91" width="24.1" height="28.42" transform="translate(-26.91 54.13) rotate(-6.66)"/></clipPath><clipPath id="clip-path-63"><rect class="cls-1" x="442.59" y="272.14" width="24.1" height="28.42" transform="translate(-30.16 54.7) rotate(-6.66)"/></clipPath><clipPath id="clip-path-64"><rect class="cls-1" x="445.89" y="300.37" width="24.1" height="28.42" transform="translate(-33.42 55.28) rotate(-6.66)"/></clipPath></defs><g class="cls-2"><g id="图层_2" data-name="图层 2"><g id="图层_1-2" data-name="图层 1"><path class="cls-3" d="M673.6,138.61s11.37,32.84-17.36,57.62c-15.62,13.47-42.8,20.13-64.33,23.4A22.23,22.23,0,0,1,567,192.44l3.58-14.92L639,128Z"/><path class="cls-3" d="M659.08,59.36s24.69,14.31,27,44.2-8,40-26.17,48.29-71.11,34.58-84.93,35c-3.74.11-6.9-3.47-9.51-8.75-10.27-20.76-1.6-47.12,20.23-63.54Z"/><path class="cls-3" d="M562.38,124.45a22.2,22.2,0,0,1,8-21.93c11.22-8.85,28.46-23.25,38.05-35.3,15-18.89,26.08-56.29,32.91-59.38s19.54-7.76,26.3,14.42,8.85,49.79-32.07,84.25c-14.69,12.38-27.35,22.71-37.53,30.85a22.24,22.24,0,0,1-35.67-12.91Z"/><path class="cls-3" d="M19.64,133.42S8.27,166.27,37,191s96.49,26.51,96.49,26.51l-10.84-45.22L54.22,122.82Z"/><path class="cls-3" d="M32.74,53.53S10.48,68.94,6.64,98.15s4.5,38.47,19.77,45.39S86,172.89,97.92,172.44s20-49.3,20-49.3Z"/><path class="cls-3" d="M133.67,105.6S99.84,80.93,84.8,62,58.72,5.75,51.89,2.65,32.35-5.11,25.59,17.08s-8.84,49.78,32.07,84.25,66,53,66,53Z"/><rect class="cls-4" x="427.24" y="211.6" width="104.35" height="128.53" rx="15.03" transform="translate(-52.08 122.72) rotate(-13.84)"/><path class="cls-5" d="M508.58,223.27a7.18,7.18,0,0,1-7.49-8.28,1.34,1.34,0,0,0-1.64-1.51L432.7,229.93A1.34,1.34,0,0,0,432,232a7.19,7.19,0,0,1-2.78,10.81,7.12,7.12,0,0,1-2.73.65,1.33,1.33,0,0,0-1.23,1.66l20.63,83.75a1.35,1.35,0,0,0,1.87.9,7,7,0,0,1,2.31-.66,7.22,7.22,0,0,1,7.58,4.8,7.09,7.09,0,0,1,.38,2.86,1.34,1.34,0,0,0,1.65,1.4l66.27-16.33a1.34,1.34,0,0,0,.82-2,7.41,7.41,0,0,1-1-2.71,7.24,7.24,0,0,1,4.49-7.77,7.06,7.06,0,0,1,2.35-.49,1.34,1.34,0,0,0,1.24-1.66l-20.64-83.75a1.35,1.35,0,0,0-1.87-.9A7,7,0,0,1,508.58,223.27Z"/><g class="cls-6"><g class="cls-7"><path class="cls-3" d="M545.28,205.17l-3.39,8.31a5.05,5.05,0,0,0,1.42,5.76l6.87,5.79a4.59,4.59,0,0,0,7.21-1.78l3.39-8.31a5.05,5.05,0,0,0-1.42-5.76l-6.87-5.79A4.59,4.59,0,0,0,545.28,205.17Z"/><path class="cls-3" d="M521.88,210.94l-3.39,8.31a5,5,0,0,0,1.42,5.76l6.86,5.78A4.59,4.59,0,0,0,534,229l3.39-8.32A5,5,0,0,0,536,215l-6.87-5.79A4.59,4.59,0,0,0,521.88,210.94Z"/></g><g class="cls-8"><path class="cls-3" d="M552.08,232.76l-3.39,8.32a5.06,5.06,0,0,0,1.42,5.76l6.87,5.78a4.59,4.59,0,0,0,7.21-1.77l3.39-8.32a5.06,5.06,0,0,0-1.42-5.76L559.29,231A4.59,4.59,0,0,0,552.08,232.76Z"/><path class="cls-3" d="M528.68,238.53l-3.39,8.32a5,5,0,0,0,1.42,5.75l6.86,5.79a4.59,4.59,0,0,0,7.21-1.78l3.39-8.31a5,5,0,0,0-1.41-5.76l-6.87-5.79A4.59,4.59,0,0,0,528.68,238.53Z"/></g><g class="cls-9"><path class="cls-3" d="M558.88,260.36l-3.39,8.31a5.05,5.05,0,0,0,1.42,5.76l6.87,5.79a4.59,4.59,0,0,0,7.21-1.78l3.39-8.31a5.05,5.05,0,0,0-1.42-5.76l-6.87-5.79A4.59,4.59,0,0,0,558.88,260.36Z"/><path class="cls-3" d="M535.48,266.13l-3.39,8.31a5,5,0,0,0,1.42,5.76l6.86,5.78a4.59,4.59,0,0,0,7.21-1.77l3.39-8.32a5,5,0,0,0-1.41-5.75l-6.87-5.79A4.59,4.59,0,0,0,535.48,266.13Z"/></g><g class="cls-10"><path class="cls-3" d="M521.88,210.94l-3.39,8.31a5,5,0,0,0,1.42,5.76l6.86,5.78A4.59,4.59,0,0,0,534,229l3.39-8.32A5,5,0,0,0,536,215l-6.87-5.79A4.59,4.59,0,0,0,521.88,210.94Z"/><path class="cls-3" d="M498.48,216.7,495.09,225a5,5,0,0,0,1.41,5.75l6.87,5.79a4.59,4.59,0,0,0,7.21-1.77l3.39-8.32a5,5,0,0,0-1.42-5.76l-6.86-5.78A4.59,4.59,0,0,0,498.48,216.7Z"/></g><g class="cls-11"><path class="cls-3" d="M528.68,238.53l-3.39,8.32a5,5,0,0,0,1.42,5.75l6.86,5.79a4.59,4.59,0,0,0,7.21-1.78l3.39-8.31a5,5,0,0,0-1.41-5.76l-6.87-5.79A4.59,4.59,0,0,0,528.68,238.53Z"/><path class="cls-3" d="M505.28,244.3l-3.39,8.31a5,5,0,0,0,1.41,5.76l6.87,5.79a4.59,4.59,0,0,0,7.21-1.78l3.39-8.31a5,5,0,0,0-1.42-5.76l-6.86-5.79A4.59,4.59,0,0,0,505.28,244.3Z"/></g><g class="cls-12"><path class="cls-3" d="M535.48,266.13l-3.39,8.31a5,5,0,0,0,1.42,5.76l6.86,5.78a4.59,4.59,0,0,0,7.21-1.77l3.39-8.32a5,5,0,0,0-1.41-5.75l-6.87-5.79A4.59,4.59,0,0,0,535.48,266.13Z"/><path class="cls-3" d="M512.08,271.89l-3.39,8.32A5,5,0,0,0,510.1,286l6.87,5.79a4.59,4.59,0,0,0,7.21-1.77l3.39-8.32a5,5,0,0,0-1.42-5.76l-6.86-5.78A4.59,4.59,0,0,0,512.08,271.89Z"/></g><g class="cls-13"><path class="cls-3" d="M542.28,293.72,538.89,302a5,5,0,0,0,1.42,5.75l6.86,5.79a4.59,4.59,0,0,0,7.21-1.78l3.39-8.31a5,5,0,0,0-1.41-5.76l-6.87-5.79A4.6,4.6,0,0,0,542.28,293.72Z"/><path class="cls-3" d="M518.88,299.49l-3.39,8.31a5,5,0,0,0,1.42,5.76l6.86,5.79a4.59,4.59,0,0,0,7.21-1.78l3.39-8.31A5,5,0,0,0,533,303.5l-6.86-5.79A4.59,4.59,0,0,0,518.88,299.49Z"/></g><g class="cls-14"><path class="cls-3" d="M549.08,321.32l-3.39,8.31a5,5,0,0,0,1.42,5.76l6.86,5.79a4.6,4.6,0,0,0,7.21-1.78l3.4-8.32a5,5,0,0,0-1.42-5.75l-6.87-5.79A4.59,4.59,0,0,0,549.08,321.32Z"/><path class="cls-3" d="M525.68,327.08l-3.39,8.32a5,5,0,0,0,1.42,5.76l6.86,5.78a4.59,4.59,0,0,0,7.21-1.77l3.39-8.32a5,5,0,0,0-1.42-5.76l-6.86-5.78A4.59,4.59,0,0,0,525.68,327.08Z"/></g><g class="cls-15"><path class="cls-3" d="M491.68,189.11l-3.39,8.31a5,5,0,0,0,1.41,5.76l6.87,5.79a4.59,4.59,0,0,0,7.21-1.78l3.39-8.32a5,5,0,0,0-1.42-5.75l-6.86-5.79A4.59,4.59,0,0,0,491.68,189.11Z"/><path class="cls-3" d="M468.27,194.87l-3.39,8.32A5.06,5.06,0,0,0,466.3,209l6.87,5.78a4.59,4.59,0,0,0,7.21-1.77l3.39-8.32a5,5,0,0,0-1.42-5.75l-6.87-5.79A4.59,4.59,0,0,0,468.27,194.87Z"/></g><g class="cls-16"><path class="cls-3" d="M498.48,216.7,495.09,225a5,5,0,0,0,1.41,5.75l6.87,5.79a4.59,4.59,0,0,0,7.21-1.77l3.39-8.32a5,5,0,0,0-1.42-5.76l-6.86-5.78A4.59,4.59,0,0,0,498.48,216.7Z"/><path class="cls-3" d="M475.07,222.47l-3.39,8.31a5.05,5.05,0,0,0,1.42,5.76l6.87,5.79a4.59,4.59,0,0,0,7.21-1.78l3.39-8.31a5.05,5.05,0,0,0-1.42-5.76l-6.87-5.79A4.59,4.59,0,0,0,475.07,222.47Z"/></g><g class="cls-17"><path class="cls-3" d="M505.28,244.3l-3.39,8.31a5,5,0,0,0,1.41,5.76l6.87,5.79a4.59,4.59,0,0,0,7.21-1.78l3.39-8.31a5,5,0,0,0-1.42-5.76l-6.86-5.79A4.59,4.59,0,0,0,505.28,244.3Z"/><path class="cls-3" d="M481.87,250.06l-3.39,8.32a5.06,5.06,0,0,0,1.42,5.76l6.87,5.78a4.59,4.59,0,0,0,7.21-1.77l3.39-8.32a5,5,0,0,0-1.42-5.75l-6.87-5.79A4.59,4.59,0,0,0,481.87,250.06Z"/></g><g class="cls-18"><path class="cls-3" d="M512.08,271.89l-3.39,8.32A5,5,0,0,0,510.1,286l6.87,5.79a4.59,4.59,0,0,0,7.21-1.77l3.39-8.32a5,5,0,0,0-1.42-5.76l-6.86-5.78A4.59,4.59,0,0,0,512.08,271.89Z"/><path class="cls-3" d="M488.67,277.66,485.28,286a5.05,5.05,0,0,0,1.42,5.76l6.87,5.79a4.59,4.59,0,0,0,7.21-1.78l3.39-8.31a5.05,5.05,0,0,0-1.42-5.76l-6.87-5.79A4.59,4.59,0,0,0,488.67,277.66Z"/></g><g class="cls-19"><path class="cls-3" d="M518.88,299.49l-3.39,8.31a5,5,0,0,0,1.42,5.76l6.86,5.79a4.59,4.59,0,0,0,7.21-1.78l3.39-8.31A5,5,0,0,0,533,303.5l-6.86-5.79A4.59,4.59,0,0,0,518.88,299.49Z"/><path class="cls-3" d="M495.47,305.26l-3.39,8.31a5.06,5.06,0,0,0,1.42,5.76l6.87,5.78a4.59,4.59,0,0,0,7.21-1.77L511,315a5,5,0,0,0-1.42-5.75l-6.87-5.79A4.59,4.59,0,0,0,495.47,305.26Z"/></g><g class="cls-20"><path class="cls-3" d="M525.68,327.08l-3.39,8.32a5,5,0,0,0,1.42,5.76l6.86,5.78a4.59,4.59,0,0,0,7.21-1.77l3.39-8.32a5,5,0,0,0-1.42-5.76l-6.86-5.78A4.59,4.59,0,0,0,525.68,327.08Z"/><path class="cls-3" d="M502.27,332.85l-3.39,8.32a5,5,0,0,0,1.42,5.75l6.87,5.79a4.59,4.59,0,0,0,7.21-1.78l3.39-8.31a5.05,5.05,0,0,0-1.42-5.76l-6.87-5.79A4.59,4.59,0,0,0,502.27,332.85Z"/></g><g class="cls-21"><path class="cls-3" d="M468.27,194.87l-3.39,8.32A5.06,5.06,0,0,0,466.3,209l6.87,5.78a4.59,4.59,0,0,0,7.21-1.77l3.39-8.32a5,5,0,0,0-1.42-5.75l-6.87-5.79A4.59,4.59,0,0,0,468.27,194.87Z"/><path class="cls-3" d="M444.87,200.64,441.48,209a5,5,0,0,0,1.42,5.75l6.86,5.79a4.59,4.59,0,0,0,7.21-1.78l3.39-8.31a5,5,0,0,0-1.41-5.76l-6.87-5.79A4.6,4.6,0,0,0,444.87,200.64Z"/></g><g class="cls-22"><path class="cls-3" d="M475.07,222.47l-3.39,8.31a5.05,5.05,0,0,0,1.42,5.76l6.87,5.79a4.59,4.59,0,0,0,7.21-1.78l3.39-8.31a5.05,5.05,0,0,0-1.42-5.76l-6.87-5.79A4.59,4.59,0,0,0,475.07,222.47Z"/><path class="cls-3" d="M451.67,228.24l-3.39,8.31a5,5,0,0,0,1.42,5.76l6.86,5.79a4.59,4.59,0,0,0,7.21-1.78l3.39-8.32a5,5,0,0,0-1.41-5.75l-6.87-5.79A4.59,4.59,0,0,0,451.67,228.24Z"/></g><g class="cls-23"><path class="cls-3" d="M481.87,250.06l-3.39,8.32a5.06,5.06,0,0,0,1.42,5.76l6.87,5.78a4.59,4.59,0,0,0,7.21-1.77l3.39-8.32a5,5,0,0,0-1.42-5.75l-6.87-5.79A4.59,4.59,0,0,0,481.87,250.06Z"/><path class="cls-3" d="M458.47,255.83l-3.39,8.32a5,5,0,0,0,1.42,5.75l6.86,5.79a4.59,4.59,0,0,0,7.21-1.78L474,265.6a5,5,0,0,0-1.41-5.76l-6.87-5.78A4.59,4.59,0,0,0,458.47,255.83Z"/></g><g class="cls-24"><path class="cls-3" d="M488.67,277.66,485.28,286a5.05,5.05,0,0,0,1.42,5.76l6.87,5.79a4.59,4.59,0,0,0,7.21-1.78l3.39-8.31a5.05,5.05,0,0,0-1.42-5.76l-6.87-5.79A4.59,4.59,0,0,0,488.67,277.66Z"/><path class="cls-3" d="M465.27,283.43l-3.39,8.31a5,5,0,0,0,1.42,5.76l6.86,5.79a4.59,4.59,0,0,0,7.21-1.78l3.39-8.32a5,5,0,0,0-1.41-5.75l-6.87-5.79A4.59,4.59,0,0,0,465.27,283.43Z"/></g><g class="cls-25"><path class="cls-3" d="M495.47,305.26l-3.39,8.31a5.06,5.06,0,0,0,1.42,5.76l6.87,5.78a4.59,4.59,0,0,0,7.21-1.77L511,315a5,5,0,0,0-1.42-5.75l-6.87-5.79A4.59,4.59,0,0,0,495.47,305.26Z"/><path class="cls-3" d="M472.07,311l-3.39,8.32a5,5,0,0,0,1.42,5.75l6.86,5.79a4.59,4.59,0,0,0,7.21-1.78l3.4-8.31a5.06,5.06,0,0,0-1.42-5.76l-6.87-5.78A4.59,4.59,0,0,0,472.07,311Z"/></g><g class="cls-26"><path class="cls-3" d="M502.27,332.85l-3.39,8.32a5,5,0,0,0,1.42,5.75l6.87,5.79a4.59,4.59,0,0,0,7.21-1.78l3.39-8.31a5.05,5.05,0,0,0-1.42-5.76l-6.87-5.79A4.59,4.59,0,0,0,502.27,332.85Z"/><path class="cls-3" d="M478.87,338.62l-3.39,8.31a5,5,0,0,0,1.42,5.76l6.86,5.79A4.59,4.59,0,0,0,491,356.7l3.4-8.31a5.05,5.05,0,0,0-1.42-5.76l-6.87-5.79A4.59,4.59,0,0,0,478.87,338.62Z"/></g><g class="cls-27"><path class="cls-3" d="M444.87,200.64,441.48,209a5,5,0,0,0,1.42,5.75l6.86,5.79a4.59,4.59,0,0,0,7.21-1.78l3.39-8.31a5,5,0,0,0-1.41-5.76l-6.87-5.79A4.6,4.6,0,0,0,444.87,200.64Z"/><path class="cls-3" d="M421.47,206.41l-3.39,8.31a5,5,0,0,0,1.41,5.76l6.87,5.79a4.59,4.59,0,0,0,7.21-1.78l3.39-8.31a5,5,0,0,0-1.42-5.76l-6.86-5.79A4.59,4.59,0,0,0,421.47,206.41Z"/></g><g class="cls-28"><path class="cls-3" d="M451.67,228.24l-3.39,8.31a5,5,0,0,0,1.42,5.76l6.86,5.79a4.59,4.59,0,0,0,7.21-1.78l3.39-8.32a5,5,0,0,0-1.41-5.75l-6.87-5.79A4.59,4.59,0,0,0,451.67,228.24Z"/><path class="cls-3" d="M428.27,234l-3.39,8.32a5,5,0,0,0,1.41,5.76l6.87,5.78a4.59,4.59,0,0,0,7.21-1.77l3.39-8.32a5,5,0,0,0-1.42-5.76l-6.86-5.78A4.59,4.59,0,0,0,428.27,234Z"/></g><g class="cls-29"><path class="cls-3" d="M458.47,255.83l-3.39,8.32a5,5,0,0,0,1.42,5.75l6.86,5.79a4.59,4.59,0,0,0,7.21-1.78L474,265.6a5,5,0,0,0-1.41-5.76l-6.87-5.78A4.59,4.59,0,0,0,458.47,255.83Z"/><path class="cls-3" d="M435.07,261.6l-3.39,8.31a5,5,0,0,0,1.41,5.76l6.87,5.79a4.59,4.59,0,0,0,7.21-1.78l3.39-8.31a5,5,0,0,0-1.42-5.76l-6.86-5.79A4.59,4.59,0,0,0,435.07,261.6Z"/></g><g class="cls-30"><path class="cls-3" d="M465.27,283.43l-3.39,8.31a5,5,0,0,0,1.42,5.76l6.86,5.79a4.59,4.59,0,0,0,7.21-1.78l3.39-8.32a5,5,0,0,0-1.41-5.75l-6.87-5.79A4.59,4.59,0,0,0,465.27,283.43Z"/><path class="cls-3" d="M441.87,289.19l-3.39,8.32a5,5,0,0,0,1.42,5.76l6.86,5.78a4.59,4.59,0,0,0,7.21-1.77l3.39-8.32a5,5,0,0,0-1.42-5.76l-6.86-5.78A4.59,4.59,0,0,0,441.87,289.19Z"/></g><g class="cls-31"><path class="cls-3" d="M472.07,311l-3.39,8.32a5,5,0,0,0,1.42,5.75l6.86,5.79a4.59,4.59,0,0,0,7.21-1.78l3.4-8.31a5.06,5.06,0,0,0-1.42-5.76l-6.87-5.78A4.59,4.59,0,0,0,472.07,311Z"/><path class="cls-3" d="M448.67,316.79l-3.39,8.31a5,5,0,0,0,1.42,5.76l6.86,5.79a4.59,4.59,0,0,0,7.21-1.78l3.39-8.31a5,5,0,0,0-1.42-5.76L455.88,315A4.59,4.59,0,0,0,448.67,316.79Z"/></g><g class="cls-32"><path class="cls-3" d="M478.87,338.62l-3.39,8.31a5,5,0,0,0,1.42,5.76l6.86,5.79A4.59,4.59,0,0,0,491,356.7l3.4-8.31a5.05,5.05,0,0,0-1.42-5.76l-6.87-5.79A4.59,4.59,0,0,0,478.87,338.62Z"/><path class="cls-3" d="M455.47,344.38l-3.39,8.32a5,5,0,0,0,1.42,5.76l6.86,5.78a4.59,4.59,0,0,0,7.21-1.77l3.39-8.32a5,5,0,0,0-1.42-5.75l-6.86-5.79A4.59,4.59,0,0,0,455.47,344.38Z"/></g><g class="cls-33"><path class="cls-3" d="M421.47,206.41l-3.39,8.31a5,5,0,0,0,1.41,5.76l6.87,5.79a4.59,4.59,0,0,0,7.21-1.78l3.39-8.31a5,5,0,0,0-1.42-5.76l-6.86-5.79A4.59,4.59,0,0,0,421.47,206.41Z"/><path class="cls-3" d="M398.06,212.18l-3.39,8.31a5.06,5.06,0,0,0,1.42,5.76L403,232a4.6,4.6,0,0,0,7.21-1.78l3.39-8.32a5,5,0,0,0-1.42-5.75l-6.87-5.79A4.59,4.59,0,0,0,398.06,212.18Z"/></g><g class="cls-34"><path class="cls-3" d="M428.27,234l-3.39,8.32a5,5,0,0,0,1.41,5.76l6.87,5.78a4.59,4.59,0,0,0,7.21-1.77l3.39-8.32a5,5,0,0,0-1.42-5.76l-6.86-5.78A4.59,4.59,0,0,0,428.27,234Z"/><path class="cls-3" d="M404.86,239.77l-3.39,8.32a5,5,0,0,0,1.42,5.75l6.87,5.79a4.59,4.59,0,0,0,7.21-1.78l3.39-8.31a5.06,5.06,0,0,0-1.42-5.76L412.07,238A4.6,4.6,0,0,0,404.86,239.77Z"/></g><g class="cls-35"><path class="cls-3" d="M435.07,261.6l-3.39,8.31a5,5,0,0,0,1.41,5.76l6.87,5.79a4.59,4.59,0,0,0,7.21-1.78l3.39-8.31a5,5,0,0,0-1.42-5.76l-6.86-5.79A4.59,4.59,0,0,0,435.07,261.6Z"/><path class="cls-3" d="M411.66,267.37l-3.39,8.31a5.06,5.06,0,0,0,1.42,5.76l6.87,5.79a4.6,4.6,0,0,0,7.21-1.78l3.39-8.32a5,5,0,0,0-1.42-5.75l-6.87-5.79A4.59,4.59,0,0,0,411.66,267.37Z"/></g><g class="cls-36"><path class="cls-3" d="M441.87,289.19l-3.39,8.32a5,5,0,0,0,1.42,5.76l6.86,5.78a4.59,4.59,0,0,0,7.21-1.77l3.39-8.32a5,5,0,0,0-1.42-5.76l-6.86-5.78A4.59,4.59,0,0,0,441.87,289.19Z"/><path class="cls-3" d="M418.46,295l-3.39,8.32a5,5,0,0,0,1.42,5.75l6.87,5.79a4.59,4.59,0,0,0,7.21-1.78l3.39-8.31a5.06,5.06,0,0,0-1.42-5.76l-6.87-5.79A4.6,4.6,0,0,0,418.46,295Z"/></g><g class="cls-37"><path class="cls-3" d="M448.67,316.79l-3.39,8.31a5,5,0,0,0,1.42,5.76l6.86,5.79a4.59,4.59,0,0,0,7.21-1.78l3.39-8.31a5,5,0,0,0-1.42-5.76L455.88,315A4.59,4.59,0,0,0,448.67,316.79Z"/><path class="cls-3" d="M425.26,322.56l-3.39,8.31a5.05,5.05,0,0,0,1.42,5.76l6.87,5.79a4.6,4.6,0,0,0,7.21-1.78l3.39-8.32a5,5,0,0,0-1.42-5.75l-6.87-5.79A4.59,4.59,0,0,0,425.26,322.56Z"/></g><g class="cls-38"><path class="cls-3" d="M411.66,267.37l-3.39,8.31a5.06,5.06,0,0,0,1.42,5.76l6.87,5.79a4.6,4.6,0,0,0,7.21-1.78l3.39-8.32a5,5,0,0,0-1.42-5.75l-6.87-5.79A4.59,4.59,0,0,0,411.66,267.37Z"/><path class="cls-3" d="M388.26,273.13l-3.39,8.32a5,5,0,0,0,1.42,5.76l6.86,5.78a4.59,4.59,0,0,0,7.21-1.77l3.39-8.32a5,5,0,0,0-1.41-5.76l-6.87-5.78A4.59,4.59,0,0,0,388.26,273.13Z"/></g><g class="cls-39"><path class="cls-3" d="M418.46,295l-3.39,8.32a5,5,0,0,0,1.42,5.75l6.87,5.79a4.59,4.59,0,0,0,7.21-1.78l3.39-8.31a5.06,5.06,0,0,0-1.42-5.76l-6.87-5.79A4.6,4.6,0,0,0,418.46,295Z"/><path class="cls-3" d="M395.06,300.73,391.67,309a5,5,0,0,0,1.42,5.76l6.86,5.79a4.59,4.59,0,0,0,7.21-1.78l3.4-8.31a5.05,5.05,0,0,0-1.42-5.76L402.27,299A4.59,4.59,0,0,0,395.06,300.73Z"/></g><g class="cls-40"><path class="cls-3" d="M425.26,322.56l-3.39,8.31a5.05,5.05,0,0,0,1.42,5.76l6.87,5.79a4.6,4.6,0,0,0,7.21-1.78l3.39-8.32a5,5,0,0,0-1.42-5.75l-6.87-5.79A4.59,4.59,0,0,0,425.26,322.56Z"/><path class="cls-3" d="M401.86,328.32l-3.39,8.32a5,5,0,0,0,1.42,5.76l6.86,5.78a4.59,4.59,0,0,0,7.21-1.77l3.4-8.32a5.06,5.06,0,0,0-1.42-5.76l-6.87-5.78A4.59,4.59,0,0,0,401.86,328.32Z"/></g></g><circle class="cls-41" cx="479.42" cy="275.87" r="31.05"/><circle class="cls-42" cx="479.42" cy="275.87" r="25.37"/><path class="cls-3" d="M498.94,275.21a63.51,63.51,0,0,0-12,.21h0a.27.27,0,0,0-.11-.32c-.11-.07-.22-.11-.26-.14-.19-.12-.1-.55-.4-.42l-.08,0a4.91,4.91,0,0,1-.53-1.35,10.94,10.94,0,0,0,4.13-.23c2.32-.89,3.43-2.33,3.62-3.3.11-.59-.1-1.71-1.44-1.4a1.35,1.35,0,0,0-.55.27,1.1,1.1,0,0,1-1.31.07c-.67-.42-1.52-1-1.9-1.28-.67-.51-8.32-6.17-10.78-5.93-2.7.27-3.51,1.8-4.65,4.86-.72,1.93-1.76,7.94-2.46,12.3a.4.4,0,0,0-.25.3l-.46,2.58a.4.4,0,0,0,.19.41h0c-.91.51-6.82,3.18-8,4.93-.23.33-.28.62-.1.87a1.66,1.66,0,0,0,.68.47c6.19,2.87,13.71.95,19.8-1.29a62.3,62.3,0,0,0,17.38-9.32,2.27,2.27,0,0,0,.88-1.09C500.5,275.58,499.6,275.25,498.94,275.21Z"/><path class="cls-5" d="M424.43,233.42l-1.11,2.73a1.63,1.63,0,0,0,.46,1.89l2.26,1.9a1.5,1.5,0,0,0,2.36-.58l1.11-2.73a1.64,1.64,0,0,0-.46-1.89l-2.25-1.9A1.51,1.51,0,0,0,424.43,233.42Z"/><path class="cls-5" d="M530.63,313.15l-1.11,2.73a1.67,1.67,0,0,0,.46,1.89l2.26,1.9a1.5,1.5,0,0,0,2.36-.59l1.12-2.73a1.66,1.66,0,0,0-.47-1.89l-2.25-1.9A1.51,1.51,0,0,0,530.63,313.15Z"/><path class="cls-5" d="M453.68,334.75a2.33,2.33,0,0,0-2.8-1.86,2.28,2.28,0,0,0-1.58,1.45.15.15,0,0,1-.25.06,2.26,2.26,0,0,0-2.08-.54,2.32,2.32,0,0,0-1.61,2.94c.89,3.06,4.29,3.55,5.12,3.62a.62.62,0,0,0,.35-.08C451.53,339.88,454.31,337.88,453.68,334.75Z"/><path class="cls-5" d="M511.9,214.14a2.32,2.32,0,0,0-2.79-1.85,2.24,2.24,0,0,0-1.59,1.45.16.16,0,0,1-.25.06,2.22,2.22,0,0,0-2.07-.55,2.32,2.32,0,0,0-1.62,2.94c.89,3.06,4.29,3.55,5.12,3.62a.59.59,0,0,0,.35-.08C509.75,219.28,512.53,217.27,511.9,214.14Z"/><g class="cls-43"><path class="cls-44" d="M544,319.67,516.21,207.09a6.29,6.29,0,0,0-7.61-4.6l-89.11,22a6.29,6.29,0,0,0-4.6,7.61l27.74,112.58a6.29,6.29,0,0,0,7.62,4.61l89.1-22A6.28,6.28,0,0,0,544,319.67Z"/></g><rect class="cls-4" x="444.27" y="201.66" width="104.35" height="128.53" rx="15.03" transform="translate(-27.51 59.42) rotate(-6.66)"/><path class="cls-5" d="M531.94,217.39a7.2,7.2,0,0,1-6.39-9.16,1.34,1.34,0,0,0-1.44-1.7l-68.28,8a1.35,1.35,0,0,0-1,2,7.07,7.07,0,0,1,.92,3.35,7.21,7.21,0,0,1-5,7,7.3,7.3,0,0,1-2.79.3,1.33,1.33,0,0,0-1.43,1.49l10,85.68a1.34,1.34,0,0,0,1.74,1.12,7.05,7.05,0,0,1,2.37-.37,7.2,7.2,0,0,1,6.94,8.6,1.33,1.33,0,0,0,1.47,1.59l67.79-7.92a1.34,1.34,0,0,0,1.06-1.89,7.19,7.19,0,0,1,4.77-10,7,7,0,0,1,2.39-.19,1.35,1.35,0,0,0,1.44-1.5l-10-85.67a1.33,1.33,0,0,0-1.74-1.12A7.44,7.44,0,0,1,531.94,217.39Z"/><g class="cls-45"><g class="cls-46"><path class="cls-3" d="M546.69,206.81l-4.41,7.82a5,5,0,0,0,.69,5.89l6.09,6.6a4.59,4.59,0,0,0,7.38-.86l4.4-7.83a5,5,0,0,0-.69-5.89l-6.09-6.6A4.58,4.58,0,0,0,546.69,206.81Z"/><path class="cls-3" d="M522.75,209.6l-4.41,7.83a5,5,0,0,0,.69,5.89l6.09,6.6a4.6,4.6,0,0,0,7.38-.86l4.4-7.83a5,5,0,0,0-.69-5.89l-6.09-6.6A4.59,4.59,0,0,0,522.75,209.6Z"/></g><g class="cls-47"><path class="cls-3" d="M550,235l-4.41,7.83a5,5,0,0,0,.69,5.89l6.09,6.6a4.59,4.59,0,0,0,7.37-.86l4.41-7.83a5,5,0,0,0-.69-5.89l-6.09-6.6A4.59,4.59,0,0,0,550,235Z"/><path class="cls-3" d="M526,237.83l-4.4,7.83a5,5,0,0,0,.69,5.89l6.09,6.6a4.59,4.59,0,0,0,7.37-.86l4.41-7.83a5,5,0,0,0-.69-5.89l-6.09-6.6A4.6,4.6,0,0,0,526,237.83Z"/></g><g class="cls-48"><path class="cls-3" d="M553.28,263.26l-4.4,7.83a5,5,0,0,0,.69,5.89l6.09,6.6a4.59,4.59,0,0,0,7.37-.86l4.41-7.83a5,5,0,0,0-.69-5.89l-6.09-6.6A4.6,4.6,0,0,0,553.28,263.26Z"/><path class="cls-3" d="M529.34,266.06l-4.4,7.83a5,5,0,0,0,.69,5.89l6.09,6.6a4.59,4.59,0,0,0,7.37-.87l4.41-7.82a5,5,0,0,0-.69-5.89l-6.09-6.6A4.59,4.59,0,0,0,529.34,266.06Z"/></g><g class="cls-49"><path class="cls-3" d="M556.58,291.49l-4.4,7.83a5,5,0,0,0,.69,5.89l6.09,6.6a4.59,4.59,0,0,0,7.37-.86l4.4-7.83a5,5,0,0,0-.68-5.89l-6.09-6.6A4.6,4.6,0,0,0,556.58,291.49Z"/><path class="cls-3" d="M532.64,294.29l-4.4,7.83a5,5,0,0,0,.69,5.88l6.09,6.6a4.58,4.58,0,0,0,7.37-.86l4.4-7.82a5,5,0,0,0-.68-5.89l-6.09-6.6A4.59,4.59,0,0,0,532.64,294.29Z"/></g><g class="cls-50"><path class="cls-3" d="M559.88,319.72l-4.4,7.83a5,5,0,0,0,.69,5.89l6.08,6.6a4.59,4.59,0,0,0,7.38-.87l4.4-7.82a5,5,0,0,0-.68-5.89l-6.09-6.6A4.59,4.59,0,0,0,559.88,319.72Z"/><path class="cls-3" d="M535.94,322.52l-4.4,7.82a5,5,0,0,0,.69,5.89l6.08,6.6a4.59,4.59,0,0,0,7.38-.86l4.4-7.82a5,5,0,0,0-.69-5.89l-6.08-6.6A4.59,4.59,0,0,0,535.94,322.52Z"/></g><g class="cls-51"><path class="cls-3" d="M519.45,181.38,515,189.2a5,5,0,0,0,.69,5.89l6.09,6.6a4.6,4.6,0,0,0,7.38-.86l4.4-7.83a5,5,0,0,0-.69-5.89l-6.09-6.6A4.59,4.59,0,0,0,519.45,181.38Z"/><path class="cls-3" d="M495.51,184.17,491.1,192a5,5,0,0,0,.69,5.89l6.09,6.6a4.6,4.6,0,0,0,7.38-.86l4.4-7.83a5,5,0,0,0-.69-5.89l-6.09-6.6A4.59,4.59,0,0,0,495.51,184.17Z"/></g><g class="cls-52"><path class="cls-3" d="M522.75,209.6l-4.41,7.83a5,5,0,0,0,.69,5.89l6.09,6.6a4.6,4.6,0,0,0,7.38-.86l4.4-7.83a5,5,0,0,0-.69-5.89l-6.09-6.6A4.59,4.59,0,0,0,522.75,209.6Z"/><path class="cls-3" d="M498.81,212.4l-4.41,7.83a5,5,0,0,0,.69,5.89l6.09,6.6a4.58,4.58,0,0,0,7.37-.87L513,224a5,5,0,0,0-.69-5.89l-6.09-6.6A4.58,4.58,0,0,0,498.81,212.4Z"/></g><g class="cls-53"><path class="cls-3" d="M526,237.83l-4.4,7.83a5,5,0,0,0,.69,5.89l6.09,6.6a4.59,4.59,0,0,0,7.37-.86l4.41-7.83a5,5,0,0,0-.69-5.89l-6.09-6.6A4.6,4.6,0,0,0,526,237.83Z"/><path class="cls-3" d="M502.1,240.63l-4.4,7.83a5,5,0,0,0,.69,5.89l6.09,6.6a4.59,4.59,0,0,0,7.37-.87l4.41-7.82a5,5,0,0,0-.69-5.89l-6.09-6.6A4.59,4.59,0,0,0,502.1,240.63Z"/></g><g class="cls-54"><path class="cls-3" d="M529.34,266.06l-4.4,7.83a5,5,0,0,0,.69,5.89l6.09,6.6a4.59,4.59,0,0,0,7.37-.87l4.41-7.82a5,5,0,0,0-.69-5.89l-6.09-6.6A4.59,4.59,0,0,0,529.34,266.06Z"/><path class="cls-3" d="M505.4,268.86l-4.4,7.82a5,5,0,0,0,.69,5.89l6.09,6.6a4.58,4.58,0,0,0,7.37-.86l4.41-7.82a5,5,0,0,0-.69-5.89l-6.09-6.6A4.59,4.59,0,0,0,505.4,268.86Z"/></g><g class="cls-55"><path class="cls-3" d="M532.64,294.29l-4.4,7.83a5,5,0,0,0,.69,5.88l6.09,6.6a4.58,4.58,0,0,0,7.37-.86l4.4-7.82a5,5,0,0,0-.68-5.89l-6.09-6.6A4.59,4.59,0,0,0,532.64,294.29Z"/><path class="cls-3" d="M508.7,297.09l-4.4,7.82a5,5,0,0,0,.69,5.89l6.09,6.6a4.58,4.58,0,0,0,7.37-.86l4.4-7.83a5,5,0,0,0-.68-5.88l-6.09-6.6A4.59,4.59,0,0,0,508.7,297.09Z"/></g><g class="cls-56"><path class="cls-3" d="M535.94,322.52l-4.4,7.82a5,5,0,0,0,.69,5.89l6.08,6.6a4.59,4.59,0,0,0,7.38-.86l4.4-7.82a5,5,0,0,0-.69-5.89l-6.08-6.6A4.59,4.59,0,0,0,535.94,322.52Z"/><path class="cls-3" d="M512,325.32l-4.4,7.82a5,5,0,0,0,.68,5.89l6.09,6.6a4.59,4.59,0,0,0,7.38-.86l4.4-7.83a5,5,0,0,0-.69-5.89l-6.08-6.6A4.59,4.59,0,0,0,512,325.32Z"/></g><g class="cls-57"><path class="cls-3" d="M495.51,184.17,491.1,192a5,5,0,0,0,.69,5.89l6.09,6.6a4.6,4.6,0,0,0,7.38-.86l4.4-7.83a5,5,0,0,0-.69-5.89l-6.09-6.6A4.59,4.59,0,0,0,495.51,184.17Z"/><path class="cls-3" d="M471.57,187l-4.41,7.83a5,5,0,0,0,.69,5.89l6.09,6.6a4.6,4.6,0,0,0,7.38-.87l4.4-7.82a5,5,0,0,0-.69-5.89l-6.09-6.6A4.58,4.58,0,0,0,471.57,187Z"/></g><g class="cls-58"><path class="cls-3" d="M498.81,212.4l-4.41,7.83a5,5,0,0,0,.69,5.89l6.09,6.6a4.58,4.58,0,0,0,7.37-.87L513,224a5,5,0,0,0-.69-5.89l-6.09-6.6A4.58,4.58,0,0,0,498.81,212.4Z"/><path class="cls-3" d="M474.87,215.2,470.46,223a5,5,0,0,0,.69,5.89l6.09,6.6a4.58,4.58,0,0,0,7.37-.86l4.41-7.82a5,5,0,0,0-.69-5.89l-6.09-6.6A4.58,4.58,0,0,0,474.87,215.2Z"/></g><g class="cls-59"><path class="cls-3" d="M502.1,240.63l-4.4,7.83a5,5,0,0,0,.69,5.89l6.09,6.6a4.59,4.59,0,0,0,7.37-.87l4.41-7.82a5,5,0,0,0-.69-5.89l-6.09-6.6A4.59,4.59,0,0,0,502.1,240.63Z"/><path class="cls-3" d="M478.16,243.43l-4.4,7.82a5,5,0,0,0,.69,5.89l6.09,6.6a4.58,4.58,0,0,0,7.37-.86l4.41-7.83a5,5,0,0,0-.69-5.88l-6.09-6.6A4.59,4.59,0,0,0,478.16,243.43Z"/></g><g class="cls-60"><path class="cls-3" d="M505.4,268.86l-4.4,7.82a5,5,0,0,0,.69,5.89l6.09,6.6a4.58,4.58,0,0,0,7.37-.86l4.41-7.82a5,5,0,0,0-.69-5.89l-6.09-6.6A4.59,4.59,0,0,0,505.4,268.86Z"/><path class="cls-3" d="M481.46,271.66l-4.4,7.82a5,5,0,0,0,.69,5.89l6.09,6.6a4.58,4.58,0,0,0,7.37-.86l4.4-7.83a5,5,0,0,0-.68-5.89l-6.09-6.6A4.59,4.59,0,0,0,481.46,271.66Z"/></g><g class="cls-61"><path class="cls-3" d="M508.7,297.09l-4.4,7.82a5,5,0,0,0,.69,5.89l6.09,6.6a4.58,4.58,0,0,0,7.37-.86l4.4-7.83a5,5,0,0,0-.68-5.88l-6.09-6.6A4.59,4.59,0,0,0,508.7,297.09Z"/><path class="cls-3" d="M484.76,299.88l-4.4,7.83a5,5,0,0,0,.69,5.89l6.08,6.6a4.6,4.6,0,0,0,7.38-.86l4.4-7.83a5,5,0,0,0-.68-5.89l-6.09-6.6A4.6,4.6,0,0,0,484.76,299.88Z"/></g><g class="cls-62"><path class="cls-3" d="M512,325.32l-4.4,7.82a5,5,0,0,0,.68,5.89l6.09,6.6a4.59,4.59,0,0,0,7.38-.86l4.4-7.83a5,5,0,0,0-.69-5.89l-6.08-6.6A4.59,4.59,0,0,0,512,325.32Z"/><path class="cls-3" d="M488.06,328.11l-4.4,7.83a5,5,0,0,0,.68,5.89l6.09,6.6a4.6,4.6,0,0,0,7.38-.86l4.4-7.83a5,5,0,0,0-.69-5.89l-6.09-6.6A4.59,4.59,0,0,0,488.06,328.11Z"/></g><g class="cls-63"><path class="cls-3" d="M471.57,187l-4.41,7.83a5,5,0,0,0,.69,5.89l6.09,6.6a4.6,4.6,0,0,0,7.38-.87l4.4-7.82a5,5,0,0,0-.69-5.89l-6.09-6.6A4.58,4.58,0,0,0,471.57,187Z"/><path class="cls-3" d="M447.63,189.77l-4.41,7.82a5,5,0,0,0,.69,5.89l6.09,6.6a4.59,4.59,0,0,0,7.38-.86l4.4-7.83a5,5,0,0,0-.69-5.88l-6.09-6.6A4.58,4.58,0,0,0,447.63,189.77Z"/></g><g class="cls-64"><path class="cls-3" d="M474.87,215.2,470.46,223a5,5,0,0,0,.69,5.89l6.09,6.6a4.58,4.58,0,0,0,7.37-.86l4.41-7.82a5,5,0,0,0-.69-5.89l-6.09-6.6A4.58,4.58,0,0,0,474.87,215.2Z"/><path class="cls-3" d="M450.92,218l-4.4,7.82a5,5,0,0,0,.69,5.89l6.09,6.6a4.58,4.58,0,0,0,7.37-.86l4.41-7.83a5,5,0,0,0-.69-5.89l-6.09-6.6A4.6,4.6,0,0,0,450.92,218Z"/></g><g class="cls-65"><path class="cls-3" d="M478.16,243.43l-4.4,7.82a5,5,0,0,0,.69,5.89l6.09,6.6a4.58,4.58,0,0,0,7.37-.86l4.41-7.83a5,5,0,0,0-.69-5.88l-6.09-6.6A4.59,4.59,0,0,0,478.16,243.43Z"/><path class="cls-3" d="M454.22,246.22l-4.4,7.83a5,5,0,0,0,.69,5.89l6.09,6.6a4.59,4.59,0,0,0,7.37-.86l4.41-7.83a5,5,0,0,0-.69-5.89l-6.09-6.6A4.6,4.6,0,0,0,454.22,246.22Z"/></g><g class="cls-66"><path class="cls-3" d="M481.46,271.66l-4.4,7.82a5,5,0,0,0,.69,5.89l6.09,6.6a4.58,4.58,0,0,0,7.37-.86l4.4-7.83a5,5,0,0,0-.68-5.89l-6.09-6.6A4.59,4.59,0,0,0,481.46,271.66Z"/><path class="cls-3" d="M457.52,274.45l-4.4,7.83a5,5,0,0,0,.69,5.89l6.09,6.6a4.59,4.59,0,0,0,7.37-.86l4.4-7.83a5,5,0,0,0-.68-5.89l-6.09-6.6A4.6,4.6,0,0,0,457.52,274.45Z"/></g><g class="cls-67"><path class="cls-3" d="M484.76,299.88l-4.4,7.83a5,5,0,0,0,.69,5.89l6.08,6.6a4.6,4.6,0,0,0,7.38-.86l4.4-7.83a5,5,0,0,0-.68-5.89l-6.09-6.6A4.6,4.6,0,0,0,484.76,299.88Z"/><path class="cls-3" d="M460.82,302.68l-4.4,7.83a5,5,0,0,0,.69,5.89l6.08,6.6a4.6,4.6,0,0,0,7.38-.86l4.4-7.83a5,5,0,0,0-.69-5.89l-6.08-6.6A4.6,4.6,0,0,0,460.82,302.68Z"/></g><g class="cls-68"><path class="cls-3" d="M488.06,328.11l-4.4,7.83a5,5,0,0,0,.68,5.89l6.09,6.6a4.6,4.6,0,0,0,7.38-.86l4.4-7.83a5,5,0,0,0-.69-5.89l-6.09-6.6A4.59,4.59,0,0,0,488.06,328.11Z"/><path class="cls-3" d="M464.12,330.91l-4.4,7.83a5,5,0,0,0,.68,5.89l6.09,6.6a4.59,4.59,0,0,0,7.38-.87l4.4-7.82a5,5,0,0,0-.69-5.89l-6.09-6.6A4.58,4.58,0,0,0,464.12,330.91Z"/></g><g class="cls-69"><path class="cls-3" d="M447.63,189.77l-4.41,7.82a5,5,0,0,0,.69,5.89l6.09,6.6a4.59,4.59,0,0,0,7.38-.86l4.4-7.83a5,5,0,0,0-.69-5.88l-6.09-6.6A4.58,4.58,0,0,0,447.63,189.77Z"/><path class="cls-3" d="M423.69,192.57l-4.41,7.82a5,5,0,0,0,.69,5.89l6.09,6.6a4.58,4.58,0,0,0,7.37-.86l4.41-7.83a5,5,0,0,0-.69-5.89l-6.09-6.6A4.58,4.58,0,0,0,423.69,192.57Z"/></g><g class="cls-70"><path class="cls-3" d="M450.92,218l-4.4,7.82a5,5,0,0,0,.69,5.89l6.09,6.6a4.58,4.58,0,0,0,7.37-.86l4.41-7.83a5,5,0,0,0-.69-5.89l-6.09-6.6A4.6,4.6,0,0,0,450.92,218Z"/><path class="cls-3" d="M427,220.79l-4.4,7.83a5,5,0,0,0,.69,5.89l6.09,6.6a4.59,4.59,0,0,0,7.37-.86l4.41-7.83a5,5,0,0,0-.69-5.89l-6.09-6.6A4.6,4.6,0,0,0,427,220.79Z"/></g><g class="cls-71"><path class="cls-3" d="M454.22,246.22l-4.4,7.83a5,5,0,0,0,.69,5.89l6.09,6.6a4.59,4.59,0,0,0,7.37-.86l4.41-7.83a5,5,0,0,0-.69-5.89l-6.09-6.6A4.6,4.6,0,0,0,454.22,246.22Z"/><path class="cls-3" d="M430.28,249l-4.4,7.83a5,5,0,0,0,.69,5.89l6.09,6.6a4.59,4.59,0,0,0,7.37-.86l4.41-7.83a5,5,0,0,0-.69-5.89l-6.09-6.6A4.6,4.6,0,0,0,430.28,249Z"/></g><g class="cls-72"><path class="cls-3" d="M457.52,274.45l-4.4,7.83a5,5,0,0,0,.69,5.89l6.09,6.6a4.59,4.59,0,0,0,7.37-.86l4.4-7.83a5,5,0,0,0-.68-5.89l-6.09-6.6A4.6,4.6,0,0,0,457.52,274.45Z"/><path class="cls-3" d="M433.58,277.25l-4.4,7.83a5,5,0,0,0,.69,5.89l6.09,6.6a4.59,4.59,0,0,0,7.37-.87l4.4-7.82a5,5,0,0,0-.68-5.89l-6.09-6.6A4.59,4.59,0,0,0,433.58,277.25Z"/></g><g class="cls-73"><path class="cls-3" d="M460.82,302.68l-4.4,7.83a5,5,0,0,0,.69,5.89l6.08,6.6a4.6,4.6,0,0,0,7.38-.86l4.4-7.83a5,5,0,0,0-.69-5.89l-6.08-6.6A4.6,4.6,0,0,0,460.82,302.68Z"/><path class="cls-3" d="M436.88,305.48l-4.4,7.83a5,5,0,0,0,.68,5.88l6.09,6.6a4.59,4.59,0,0,0,7.38-.86l4.4-7.82a5,5,0,0,0-.69-5.89l-6.08-6.6A4.59,4.59,0,0,0,436.88,305.48Z"/></g></g><circle class="cls-41" cx="496.45" cy="265.92" r="31.05"/><circle class="cls-42" cx="496.45" cy="265.92" r="25.37"/><path class="cls-3" d="M515.89,267.71A63.16,63.16,0,0,0,504,266.42h0a.28.28,0,0,0-.08-.34c-.09-.08-.2-.13-.24-.17s0-.55-.34-.46l-.08,0a5,5,0,0,1-.36-1.41,10.94,10.94,0,0,0,4.13.29c2.41-.59,3.69-1.88,4-2.83.18-.57.12-1.7-1.26-1.56a1.21,1.21,0,0,0-.57.2,1.11,1.11,0,0,1-1.32-.1c-.6-.5-1.38-1.16-1.72-1.5-.59-.6-7.48-7.17-10-7.23-2.71-.07-3.71,1.35-5.22,4.23-1,1.83-2.74,7.67-4,11.9a.38.38,0,0,0-.28.27l-.78,2.5a.39.39,0,0,0,.13.43h0c-1,.38-7.18,2.3-8.57,3.88-.26.3-.35.59-.2.85a1.72,1.72,0,0,0,.61.56c5.79,3.62,13.49,2.65,19.81,1.2a62.36,62.36,0,0,0,18.41-7.08,2.31,2.31,0,0,0,1-1C517.39,268.27,516.54,267.83,515.89,267.71Z"/><path class="cls-5" d="M447.19,216.94l-1.45,2.57a1.65,1.65,0,0,0,.23,1.93l2,2.17a1.51,1.51,0,0,0,2.42-.28l1.44-2.57a1.64,1.64,0,0,0-.22-1.93l-2-2.17A1.51,1.51,0,0,0,447.19,216.94Z"/><path class="cls-5" d="M542.6,309.31l-1.45,2.57a1.65,1.65,0,0,0,.23,1.93l2,2.17a1.51,1.51,0,0,0,2.42-.28l1.44-2.57a1.68,1.68,0,0,0-.22-1.94L545,309A1.51,1.51,0,0,0,542.6,309.31Z"/><path class="cls-5" d="M463.55,321.13a2.32,2.32,0,0,0-2.54-2.19,2.25,2.25,0,0,0-1.76,1.24.15.15,0,0,1-.25,0,2.24,2.24,0,0,0-2-.8,2.31,2.31,0,0,0-2,2.72c.5,3.14,3.81,4.05,4.63,4.23a.6.6,0,0,0,.35,0C460.77,326,463.79,324.31,463.55,321.13Z"/><path class="cls-5" d="M536.39,208.74a2.33,2.33,0,0,0-2.55-2.19,2.27,2.27,0,0,0-1.75,1.24.15.15,0,0,1-.25,0,2.25,2.25,0,0,0-2-.8,2.32,2.32,0,0,0-2,2.72c.5,3.15,3.81,4,4.63,4.23a.61.61,0,0,0,.35,0C533.61,213.57,536.62,211.92,536.39,208.74Z"/><path class="cls-1" d="M402.46,290.43l-3.14-10.64a1.45,1.45,0,0,0-.31-.59,1.35,1.35,0,0,0-.27-.2,33.43,33.43,0,0,0-12.47-3.9h0a33.3,33.3,0,0,0-13,.67,1.08,1.08,0,0,0-.3.11,1.42,1.42,0,0,0-.45.5l-5.7,9.52,17.85,2.23h0Z"/><path class="cls-42" d="M363.21,284a5,5,0,0,1-.39,1.42l3.95.5,5.7-9.52a1.42,1.42,0,0,1,.45-.5,1.08,1.08,0,0,1,.3-.11,33.3,33.3,0,0,1,13-.67l1.18-9.29h0a43.18,43.18,0,0,0-16.57.86,10.43,10.43,0,0,0-6.64,4.93l-4.22,7A5.07,5.07,0,0,1,363.21,284Z"/><path class="cls-74" d="M317.62,307.49c-.05-.23-.1-.47-.13-.71C317.52,307,317.57,307.26,317.62,307.49Z"/><path class="cls-74" d="M318.11,309c-.1-.23-.18-.47-.26-.71C317.93,308.55,318,308.79,318.11,309Z"/><path class="cls-74" d="M323.71,314.47l-.68-.29Z"/><path class="cls-74" d="M324.52,314.74c-.24-.07-.49-.16-.73-.25C324,314.58,324.28,314.67,324.52,314.74Z"/><path class="cls-74" d="M317.85,308.31a5.44,5.44,0,0,1-.2-.72A5.44,5.44,0,0,0,317.85,308.31Z"/><path class="cls-74" d="M323,314.14l-.66-.34Z"/><path class="cls-74" d="M318.85,310.46c-.13-.2-.24-.4-.35-.61C318.61,310.06,318.72,310.26,318.85,310.46Z"/><path class="cls-74" d="M320.33,312.31c-.17-.17-.33-.34-.49-.52C320,312,320.16,312.14,320.33,312.31Z"/><path class="cls-74" d="M318.44,309.75l-.3-.65Z"/><path class="cls-74" d="M322.25,313.77a9.77,9.77,0,0,1-1.24-.86A9.77,9.77,0,0,0,322.25,313.77Z"/><path class="cls-74" d="M320.94,312.86l-.53-.48Z"/><path class="cls-74" d="M323.8,280.51a4.83,4.83,0,0,0-.76,0,4.83,4.83,0,0,1,.76,0Z"/><path class="cls-74" d="M317.47,306.66c0-.24-.06-.48-.08-.73C317.41,306.18,317.43,306.42,317.47,306.66Z"/><path class="cls-74" d="M332.41,315.78a3.45,3.45,0,0,1,3.47-1.82l1.65.21.24-1.95a3.46,3.46,0,0,1,2.73-3l-.62-.08a4.31,4.31,0,0,1-3.7-3.44,2.88,2.88,0,0,1,3.44-3.22l1.95.24a2.56,2.56,0,0,1,0-.39l.35-2.85a4.69,4.69,0,0,1,5.24-4.07l1.33.16a4.7,4.7,0,0,1,4.07,5.24l-.36,2.85c0,.13,0,.26-.07.39l1.94.24a2.9,2.9,0,0,1,2.55,4,4.33,4.33,0,0,1-4.43,2.41l-.63-.08a3.51,3.51,0,0,1,1.92,3.56l-.25,1.94,1.64.21a3.45,3.45,0,0,1,2.92,2.61l22.53,2.82h0l1.27-10-.24,0a7.38,7.38,0,0,1,1.84-14.65l.25.05.4-3.14h0l-59.28-7.43a4.76,4.76,0,0,1,.07,2.2c-.43,1.92-.92,3.64-.92,3.64a3.1,3.1,0,0,0-1,2.21c-.09,1.49,1.64,4.9,1.69,6.68s-1.82,1.41-1,2.51,5.16,2.24,4.88,5.2a7.34,7.34,0,0,1-3.79,5.7,12.71,12.71,0,0,0,1.54.3,8.18,8.18,0,0,1,1,.06Zm41.68.39,4.37.55a1,1,0,1,1-.26,2.06l-4.37-.54a1,1,0,1,1,.26-2.07Zm-8.75-1.1,4.37.55a1,1,0,1,1-.26,2.07l-4.37-.55a1,1,0,0,1-.9-1.16A1,1,0,0,1,365.34,315.07Zm-3.47.62a1,1,0,0,1-1.16.9l-4.38-.55a1,1,0,0,1,.26-2.06l4.37.54A1.05,1.05,0,0,1,361.87,315.69Zm-31.53-5,4.38.54a1.05,1.05,0,0,1,.9,1.17,1,1,0,0,1-1.16.9l-4.38-.55a1,1,0,0,1,.26-2.06Z"/><path class="cls-74" d="M317.6,295.36l-.23,9.69a6.77,6.77,0,0,0,0,.78,6.77,6.77,0,0,1,0-.78Z"/><path class="cls-74" d="M318.9,310.54a10.34,10.34,0,0,0,.89,1.2A10.34,10.34,0,0,1,318.9,310.54Z"/><path class="cls-75" d="M330.08,312.75l4.38.55a1,1,0,0,0,1.16-.9,1.05,1.05,0,0,0-.9-1.17l-4.38-.54a1,1,0,0,0-.26,2.06Z"/><path class="cls-75" d="M372.92,317.07a1.06,1.06,0,0,0,.91,1.17l4.37.54a1,1,0,1,0,.26-2.06l-4.37-.55A1.05,1.05,0,0,0,372.92,317.07Z"/><path class="cls-75" d="M365.08,317.14l4.37.55a1,1,0,1,0,.26-2.07l-4.37-.55a1,1,0,0,0-1.16.91A1,1,0,0,0,365.08,317.14Z"/><path class="cls-75" d="M355.43,314.88a1,1,0,0,0,.9,1.16l4.38.55a1,1,0,0,0,1.16-.9,1.05,1.05,0,0,0-.91-1.17l-4.37-.54A1,1,0,0,0,355.43,314.88Z"/><path class="cls-76" d="M383.47,297.17h0l-.25-.05a7.38,7.38,0,0,0-1.84,14.65l.24,0h0Z"/><path class="cls-74" d="M371.32,343.38l.06,0h-.06Z"/><path class="cls-74" d="M319.26,318a8.8,8.8,0,0,0-2.21,4.79l-.76,3.75.77-3.75A8.71,8.71,0,0,1,319.26,318Z"/><path class="cls-74" d="M357.91,320l22.31,2.8h0l.13-1L357.82,319A3.33,3.33,0,0,1,357.91,320Z"/><path class="cls-74" d="M317.44,339.23l.75-3.76a1,1,0,0,1,1.15-.83l.08,0h0a1,1,0,0,1,.81,1.22l-.72,3.61,6.66.83,40.8,5.11.18-1.43a1.13,1.13,0,0,1,1.26-1l-1.18-.15a1.54,1.54,0,0,1-1.34-1.72l.13-1a1.53,1.53,0,0,1,1.72-1.34l2.68.33a2.73,2.73,0,0,1,2.53-3.66,5.63,5.63,0,0,1,6-3.62l.16,0,.41-3.2L356,325.71a3.39,3.39,0,0,1-1.49.54,3.15,3.15,0,0,1-3.54,3.24l-1.93-.24a1.21,1.21,0,0,0,0,.19l-.36,2.85a4.69,4.69,0,0,1-5.24,4.07l-1.33-.17A4.69,4.69,0,0,1,338,331l.36-2.84,0-.19-1.93-.24a3.16,3.16,0,0,1-2.63-4,3.45,3.45,0,0,1-1.31-.9l-6.66-.83c-.44,1.91-.95,4.51-2.36,6a4.5,4.5,0,0,1-1.9,1.09l-.51,2.56a1.05,1.05,0,0,1-1.15.83h-.08a1.06,1.06,0,0,1-.82-1.23l.35-1.75c-1.33.12-2.68.12-3.75.28L313.76,339a5.48,5.48,0,0,1,1.62,0Z"/><path class="cls-75" d="M319.05,331.15a1.06,1.06,0,0,0,.82,1.23H320a1.05,1.05,0,0,0,1.15-.83l.51-2.56a11.09,11.09,0,0,1-2.21.4Z"/><path class="cls-75" d="M319.42,334.66h0l-.08,0a1,1,0,0,0-1.15.83l-.75,3.76,2.07.26.72-3.61A1,1,0,0,0,319.42,334.66Z"/><path class="cls-5" d="M327.63,345.87l0-.09Z"/><path class="cls-5" d="M327.4,346.43l.05-.11Z"/><path class="cls-5" d="M327.79,345.42a.5.5,0,0,1,0-.13A.5.5,0,0,0,327.79,345.42Z"/><path class="cls-5" d="M306.59,365.66a5.4,5.4,0,0,0,4.69,6A5.4,5.4,0,0,1,306.59,365.66Z"/><path class="cls-5" d="M373,379.43l.5-3.95.34-2.69h0l-.22,0a12.77,12.77,0,0,1-11.09-14.26l.76-6a2.29,2.29,0,0,1,.38-1l-3.48-.43a1.05,1.05,0,0,1-.9-1.17,1,1,0,0,1,1.16-.9l4.38.55a1,1,0,0,1,.9,1h.12l.45.06.64-5.1-40.8-5.11a4,4,0,0,1,1.89,3.91,5.78,5.78,0,0,1-.12.66v0l1.92.24a1,1,0,0,1-.26,2.07l-2.41-.3,0-.08c-1.48,3.05-4.68,6.49-8.34,6.7-4.77.28-4.27.92-4.33,1.35s7.31,2.22,6.93,5.82.32,4.15,1.48,4.3,2.75.63,4.58,3c1.13,1.46,1.16,4.11,1,5.91Zm-7.91-5a1.06,1.06,0,0,1,1.17-.91l4.37.55a1,1,0,1,1-.26,2.07l-4.37-.55A1,1,0,0,1,365.12,374.43Zm-29.71-2.68L331,371.2a1,1,0,0,1,.26-2.06l4.38.55a1,1,0,1,1-.26,2.06Zm2.94-23.48-4.37-.54a1,1,0,1,1,.25-2.07l4.38.55a1,1,0,1,1-.26,2.06Zm5.81,24.58-4.38-.55a1,1,0,0,1,.26-2.07l4.38.55a1,1,0,0,1-.26,2.07Zm2.94-23.48-4.38-.55a1,1,0,1,1,.26-2.06l4.38.54a1.05,1.05,0,0,1,.9,1.17A1,1,0,0,1,347.1,349.37ZM352.91,374l-4.38-.55a1,1,0,0,1,.26-2.07l4.37.55a1,1,0,0,1-.25,2.07Zm2.94-23.48-4.38-.55a1,1,0,0,1,.26-2.07l4.38.55a1,1,0,0,1-.26,2.07Zm5.8,24.57-4.37-.55a1,1,0,0,1,.26-2.06l4.37.55a1,1,0,1,1-.26,2.06Z"/><path class="cls-77" d="M356.11,348.4l-4.38-.55a1,1,0,0,0-.26,2.07l4.38.55a1,1,0,0,0,.26-2.07Z"/><path class="cls-77" d="M347.36,347.3l-4.38-.54a1,1,0,1,0-.26,2.06l4.38.55a1,1,0,0,0,1.16-.9A1.05,1.05,0,0,0,347.36,347.3Z"/><path class="cls-77" d="M338.61,346.21l-4.38-.55a1,1,0,1,0-.25,2.07l4.37.54a1,1,0,1,0,.26-2.06Z"/><path class="cls-77" d="M365.76,350.46a1,1,0,0,0-.9-1l-4.38-.55a1,1,0,0,0-1.16.9,1.05,1.05,0,0,0,.9,1.17l3.48.43A2.29,2.29,0,0,1,365.76,350.46Z"/><path class="cls-77" d="M327.79,345.42l-.13.36,0,.09c-.05.15-.12.3-.18.45l-.05.11c-.06.12-.11.25-.17.37l0,.08,2.41.3a1,1,0,0,0,.26-2.07l-1.92-.24v0c0,.13-.07.27-.11.4A.5.5,0,0,0,327.79,345.42Z"/><path class="cls-77" d="M344.42,370.78l-4.38-.55a1,1,0,0,0-.26,2.07l4.38.55a1,1,0,0,0,.26-2.07Z"/><path class="cls-77" d="M353.16,371.88l-4.37-.55a1,1,0,0,0-.26,2.07l4.38.55a1,1,0,0,0,.25-2.07Z"/><path class="cls-77" d="M362.82,374.14a1,1,0,0,0-.91-1.16l-4.37-.55a1,1,0,0,0-.26,2.06l4.37.55A1,1,0,0,0,362.82,374.14Z"/><path class="cls-77" d="M335.67,369.69l-4.38-.55a1,1,0,0,0-.26,2.06l4.38.55a1,1,0,1,0,.26-2.06Z"/><path class="cls-77" d="M371.57,375.24a1,1,0,0,0-.91-1.17l-4.37-.55a1.06,1.06,0,0,0-1.17.91,1,1,0,0,0,.91,1.16l4.37.55A1.05,1.05,0,0,0,371.57,375.24Z"/><path class="cls-78" d="M324,284a10.19,10.19,0,0,0,.55,2.56L383.87,294l.75-5.9h0l-17.85-2.23-3.95-.5a5.09,5.09,0,0,1-5.27,3l-17.33-2.18a5.06,5.06,0,0,1-4.37-4.19l-8.67-1.08C325.94,281.77,324.09,283.17,324,284Z"/><path class="cls-78" d="M340.47,318.73l-4.38-.54-.21,1.64,4.4.55,0-.4Z"/><path class="cls-78" d="M331.66,320l.16-1.29-1.8-.23s-2.58.08-3.45,1.35a7.06,7.06,0,0,0-.7,2.08l6.66.83A3.44,3.44,0,0,1,331.66,320Z"/><path class="cls-78" d="M380.22,322.76,357.91,320c0,.08,0,.15,0,.23l-.39,3.08a3.45,3.45,0,0,1-1.52,2.44l23.5,2.94h0Z"/><path class="cls-78" d="M349.06,321.48l4.4.55.21-1.64-4.39-.55-.15,1.24C349.11,321.22,349.09,321.35,349.06,321.48Z"/><path class="cls-3" d="M323,365c-1.16-.15-1.87-.69-1.48-4.3s-7-5.39-6.93-5.82-.44-1.07,4.33-1.35c3.66-.21,6.86-3.65,8.34-6.7.06-.12.11-.25.17-.37l.05-.11c.06-.15.13-.3.18-.45l0-.09.13-.36a.5.5,0,0,1,0-.13c0-.13.08-.27.11-.4a5.78,5.78,0,0,0,.12-.66,4,4,0,0,0-1.89-3.91l-6.66-.83-2.07-.26-2.06-.26a5.48,5.48,0,0,0-1.62,0,5.57,5.57,0,0,0-1,.28,5.41,5.41,0,0,0-3.4,4.36h0l-2.76,22a5.4,5.4,0,0,0,4.69,6l17.29,2.17c.14-1.8.11-4.45-1-5.91C325.72,365.6,324.12,365.11,323,365Zm-5.89-15.69a3,3,0,1,1,3.4-2.64A3,3,0,0,1,317.08,349.28Zm-2.4,19.16a3,3,0,1,1,3.4-2.64A3,3,0,0,1,314.68,368.44Z"/><path class="cls-3" d="M321.61,329a4.5,4.5,0,0,0,1.9-1.09c1.41-1.46,1.92-4.06,2.36-6a7.06,7.06,0,0,1,.7-2.08c.87-1.27,3.45-1.35,3.45-1.35l1.8.23L332,317a3.73,3.73,0,0,1,.37-1.17L327,315.1a8.18,8.18,0,0,0-1-.06,8.94,8.94,0,0,0-6.8,2.94,8.71,8.71,0,0,0-2.2,4.79l-.77,3.75-.64,3.16h0c1.07-.16,2.42-.16,3.75-.28A11.09,11.09,0,0,0,321.61,329Z"/><path class="cls-79" d="M317.83,343.24a3,3,0,1,0,2.65,3.4A3,3,0,0,0,317.83,343.24Z"/><path class="cls-79" d="M315.43,362.4a3,3,0,1,0,2.65,3.4A3,3,0,0,0,315.43,362.4Z"/><path class="cls-3" d="M328.31,309c.28-3-4-4.11-4.88-5.2s1-.72,1-2.51-1.78-5.19-1.69-6.68a3.1,3.1,0,0,1,1-2.21s.49-1.72.92-3.64a4.76,4.76,0,0,0-.07-2.2A10.19,10.19,0,0,1,324,284c0-.87,1.9-2.27,3.14-3.1l-2.44-.31-.94-.12a4.83,4.83,0,0,0-.76,0,5.31,5.31,0,0,0-5.21,5.19l-.23,9.69-.23,9.69a6.77,6.77,0,0,0,0,.78v.1c0,.25,0,.49.08.73a.5.5,0,0,0,0,.12c0,.24.08.48.13.71l0,.1a5.44,5.44,0,0,0,.2.72h0c.08.24.16.48.26.71l0,.08.3.65.06.1c.11.21.22.41.35.61a.56.56,0,0,0,0,.08,10.34,10.34,0,0,0,.89,1.2l0,.05c.16.18.32.35.49.52l.08.07.53.48.07.05a9.77,9.77,0,0,0,1.24.86l0,0,.66.34.08,0,.68.29.08,0c.24.09.49.18.73.25h0A7.34,7.34,0,0,0,328.31,309Z"/><path class="cls-80" d="M373.33,335.45l5.2.66h0l.54-4.26h0l-.16,0a5.63,5.63,0,0,0-6,3.62Z"/><path class="cls-76" d="M377.53,344h0a1.53,1.53,0,0,1-.71.08l-5.44-.68h0a1.14,1.14,0,0,1,.93,1.05c.06,1,.37,2.43,1.58,2.59l3.07.38.05.65h0Z"/><path class="cls-80" d="M373,353.67l-.19,1.47a3.17,3.17,0,0,0,2.86,3.55L377,348.07l-.05-.65-3.07-.38c-1.21-.16-1.52-1.6-1.58-2.59a1.14,1.14,0,0,0-.93-1.05l-.06,0-2.91-.36a1.13,1.13,0,0,0-1.26,1l-.18,1.43-.64,5.1,4.67.58A2.3,2.3,0,0,1,373,353.67Z"/><path class="cls-76" d="M375.66,358.69h0a3.17,3.17,0,0,1-2.86-3.55l.19-1.47a2.3,2.3,0,0,0-2-2.56l-4.67-.58-.45-.06h-.12a2.28,2.28,0,0,0-2.44,2l-.76,6a12.77,12.77,0,0,0,11.09,14.26l.22,0Z"/><path class="cls-76" d="M371.38,343.39l5.44.68a1.53,1.53,0,0,0,.71-.08l.31-2.46-5.19-.66a2.74,2.74,0,0,1-2.23-1.77l-2.68-.33a1.53,1.53,0,0,0-1.72,1.34l-.13,1a1.54,1.54,0,0,0,1.34,1.72l1.18.15,2.91.36Z"/><path class="cls-80" d="M372.65,340.87l5.19.66h0l.69-5.42-5.2-.66H373a2.73,2.73,0,0,0-2.53,3.66A2.74,2.74,0,0,0,372.65,340.87Z"/><path class="cls-80" d="M338.37,328.11,338,331a4.69,4.69,0,0,0,4.07,5.24l1.33.17a4.69,4.69,0,0,0,5.24-4.07l.36-2.85a1.21,1.21,0,0,1,0-.19l-10.62-1.33Z"/><path class="cls-80" d="M352.23,303.7l.36-2.85a4.7,4.7,0,0,0-4.07-5.24l-1.33-.16a4.69,4.69,0,0,0-5.24,4.07l-.35,2.85a2.56,2.56,0,0,0,0,.39l10.59,1.33C352.19,304,352.21,303.83,352.23,303.7Z"/><path class="cls-76" d="M334.64,323.87a3.47,3.47,0,0,1-.8-.2,3.16,3.16,0,0,0,2.63,4l1.93.24L349,329.25l1.93.24a3.15,3.15,0,0,0,3.54-3.24,2.89,2.89,0,0,1-.83,0Z"/><path class="cls-76" d="M350.49,310.31a3.69,3.69,0,0,1,1.1.33l.63.08a4.33,4.33,0,0,0,4.43-2.41,2.9,2.9,0,0,0-2.55-4l-1.94-.24-10.59-1.33-1.95-.24a2.88,2.88,0,0,0-3.44,3.22,4.31,4.31,0,0,0,3.7,3.44l.62.08a3.68,3.68,0,0,1,1.15-.06Z"/><path class="cls-76" d="M345.91,311.05a4.44,4.44,0,0,1,3.88,4.65l3.47.44.25-1.94a3.51,3.51,0,0,0-1.92-3.56,3.69,3.69,0,0,0-1.1-.33l-8.84-1.11a3.68,3.68,0,0,0-1.15.06,3.46,3.46,0,0,0-2.73,3l-.24,1.95,3.47.43A4.45,4.45,0,0,1,345.91,311.05Z"/><path class="cls-76" d="M357.5,323.27l.39-3.08c0-.08,0-.15,0-.23a3.33,3.33,0,0,0-.09-1,3.45,3.45,0,0,0-2.92-2.61l-1.64-.21-3.47-.44a3,3,0,0,1,0,.31l-.48,3.83,4.39.55-.21,1.64-4.4-.55a4.44,4.44,0,0,1-8.78-1.1l-4.4-.55.21-1.64,4.38.54.48-3.82a2.87,2.87,0,0,1,.05-.31l-3.47-.43-1.65-.21a3.45,3.45,0,0,0-3.47,1.82A3.73,3.73,0,0,0,332,317l-.22,1.79-.16,1.29a3.45,3.45,0,0,0,2.18,3.64,3.47,3.47,0,0,0,.8.2l19,2.38a2.89,2.89,0,0,0,.83,0,3.39,3.39,0,0,0,1.49-.54A3.45,3.45,0,0,0,357.5,323.27Z"/><path class="cls-80" d="M345.91,311.05A4.45,4.45,0,0,0,341,314.6a2.87,2.87,0,0,0-.05.31l-.48,3.82-.16,1.25,0,.4a4.44,4.44,0,0,0,8.78,1.1c0-.13.05-.26.07-.4l.15-1.24.48-3.83a3,3,0,0,0,0-.31A4.44,4.44,0,0,0,345.91,311.05Z"/><path class="cls-76" d="M340.22,286.21l17.33,2.18a5.07,5.07,0,0,0,2.47-9.76,6,6,0,0,0-1.21-.31l-3.18-.4a3.09,3.09,0,0,1-3.43,3.59l-5.1-.64a3.1,3.1,0,0,1-2.44-4.32l-3.18-.4a5.07,5.07,0,0,0-5.66,4.4,5.15,5.15,0,0,0,0,1.47A5.06,5.06,0,0,0,340.22,286.21Z"/><path class="cls-80" d="M347.1,280.87l5.1.64a3.09,3.09,0,0,0,.77-6.14l-5.1-.63a3.09,3.09,0,0,0-.77,6.13Z"/><path class="cls-42" d="M386.27,275.1a33.43,33.43,0,0,1,12.47,3.9,1.35,1.35,0,0,1,.27.2,1.45,1.45,0,0,1,.31.59l3.14,10.64,4,.5a4.81,4.81,0,0,1,0-1.47,5.06,5.06,0,0,1,4.42-4.38l-2.33-7.87a10.58,10.58,0,0,0-2.89-4.77,10.78,10.78,0,0,0-2.3-1.66,43.4,43.4,0,0,0-15.84-5l-1.18,9.29Z"/><path class="cls-74" d="M449.91,302.43l-4.4,18.88q-.09.38-.21.75.12-.37.21-.75l4.4-18.88a5.34,5.34,0,0,0,0-2.42A5.34,5.34,0,0,1,449.91,302.43Z"/><path class="cls-74" d="M442,295.51h0l3.37.44a5.24,5.24,0,0,1,2.64,1.12,5.24,5.24,0,0,0-2.64-1.12l-12-1.55h0Z"/><path class="cls-74" d="M433.92,322.45c.47-2.94,4.93-3,6-3.82s-.82-.95-.32-2.67,3-4.58,3.31-6a3.16,3.16,0,0,0-.44-2.4s-.06-1.79,0-3.75a5,5,0,0,1,.62-2.12L383.87,294l-.4,3.14h0l.26,0a7.38,7.38,0,1,1-1.88,14.64l-.23,0h0l-1.27,10,22.52,2.9a3.45,3.45,0,0,1,3.47-1.81l1.65.22.25-1.95a3.48,3.48,0,0,1,2.74-3l-.63-.08a4.32,4.32,0,0,1-3.69-3.44,2.9,2.9,0,0,1,3.46-3.22l1.94.25c0-.13,0-.26,0-.39l.37-2.85a4.68,4.68,0,0,1,5.25-4.05l1.32.17a4.69,4.69,0,0,1,4.06,5.25l-.37,2.84a2.44,2.44,0,0,1-.07.39l1.94.25a2.89,2.89,0,0,1,2.54,4,4.33,4.33,0,0,1-4.44,2.41l-.63-.08a3.48,3.48,0,0,1,1.91,3.55l-.25,1.95,1.64.21a3.42,3.42,0,0,1,2.9,2.62l5.37.69c.33,0,.66.11,1,.18a10.15,10.15,0,0,0,1.55.09A7.32,7.32,0,0,1,433.92,322.45Zm-45.21-3.37a1,1,0,0,1-1.16.9h0l-4.38-.57a1,1,0,0,1-.9-1.16h0a1.05,1.05,0,0,1,1.17-.9h0l4.37.56a1,1,0,0,1,.9,1.17Zm8.75,1.12a1.05,1.05,0,0,1-1.17.9h0l-4.37-.56a1.05,1.05,0,0,1-.9-1.17h0a1,1,0,0,1,1.16-.9h0l4.38.56a1.05,1.05,0,0,1,.9,1.17Zm8.74,1.12h0a1,1,0,0,1-1.16.9h0l-4.38-.56a1,1,0,0,1-.9-1.16h0a1,1,0,0,1,1.17-.9h0l4.37.56A1,1,0,0,1,406.2,321.32Zm25.08,4.28h0L426.9,325a1,1,0,0,1-.9-1.16h0a1,1,0,0,1,1.16-.9h0l4.37.56a1,1,0,0,1-.26,2.07Z"/><path class="cls-74" d="M441.49,327.18a10.38,10.38,0,0,0,1.17-.93A10.38,10.38,0,0,1,441.49,327.18Z"/><path class="cls-74" d="M443.75,325c-.14.19-.3.37-.46.55C443.45,325.41,443.61,325.23,443.75,325Z"/><path class="cls-74" d="M440.74,327.65c-.21.12-.42.23-.64.33C440.32,327.88,440.53,327.77,440.74,327.65Z"/><path class="cls-74" d="M443.22,325.67c-.16.18-.32.35-.5.52C442.9,326,443.06,325.85,443.22,325.67Z"/><path class="cls-74" d="M441.44,327.22l-.61.38Z"/><path class="cls-74" d="M440,328a10.21,10.21,0,0,1-1.43.53A10.21,10.21,0,0,0,440,328Z"/><path class="cls-74" d="M445,323q-.13.33-.3.66Q444.82,323.29,445,323Z"/><path class="cls-74" d="M438.56,328.55c-.24.07-.48.12-.72.17C438.08,328.67,438.32,328.62,438.56,328.55Z"/><path class="cls-74" d="M445.27,322.16c-.08.23-.16.46-.26.69C445.11,322.62,445.19,322.39,445.27,322.16Z"/><path class="cls-74" d="M444.61,323.7a9.78,9.78,0,0,1-.81,1.27A9.78,9.78,0,0,0,444.61,323.7Z"/><path class="cls-74" d="M437.74,328.74l-.72.11Z"/><path class="cls-74" d="M436.93,328.85a6.47,6.47,0,0,1-.76,0A6.47,6.47,0,0,0,436.93,328.85Z"/><polygon class="cls-74" points="406.41 290.94 406.41 290.94 402.46 290.43 384.62 288.13 384.62 288.13 406.41 290.94"/><path class="cls-75" d="M400.93,319.6h0a1,1,0,0,0-1.17.9h0a1,1,0,0,0,.9,1.16l4.38.56h0a1,1,0,0,0,1.16-.9h0a1,1,0,0,0-.9-1.16Z"/><path class="cls-75" d="M396.56,319l-4.38-.56h0a1,1,0,0,0-1.16.9h0a1.05,1.05,0,0,0,.9,1.17l4.37.56h0a1.05,1.05,0,0,0,1.17-.9h0A1.05,1.05,0,0,0,396.56,319Z"/><path class="cls-75" d="M431.54,323.53l-4.37-.56h0a1,1,0,0,0-1.16.9h0a1,1,0,0,0,.9,1.16l4.37.57h0a1,1,0,0,0,.26-2.07Z"/><path class="cls-75" d="M387.81,317.91l-4.37-.56h0a1.05,1.05,0,0,0-1.17.9h0a1,1,0,0,0,.9,1.16l4.38.57h0a1,1,0,0,0,1.16-.9h0A1,1,0,0,0,387.81,317.91Z"/><path class="cls-76" d="M381.85,311.83a7.38,7.38,0,1,0,1.88-14.64l-.26,0-1.85,14.62Z"/><path class="cls-74" d="M383.69,345h0Z"/><path class="cls-74" d="M437.36,346.16a1,1,0,0,1-1.1,1h-.07a1,1,0,0,1-.91-1.09l.14-2.61a4.3,4.3,0,0,1-1.56-1.52c-1-1.77-.85-4.41-.8-6.38l-6.65-.86a3.48,3.48,0,0,1-1.5.54,3.15,3.15,0,0,1-3.55,3.23l-1.93-.25c0,.07,0,.13,0,.19l-.37,2.85a4.69,4.69,0,0,1-5.25,4.05l-1.33-.17a4.69,4.69,0,0,1-4.05-5.25l.37-2.85a1.13,1.13,0,0,1,0-.18l-1.93-.25a3.14,3.14,0,0,1-2.62-4,3.45,3.45,0,0,1-1.31-.9l-23.48-3h0l-.41,3.2h.16a5.63,5.63,0,0,1,4.87,5,2.72,2.72,0,0,1,2,3,2.58,2.58,0,0,1-.46,1.2l2.68.35a1.54,1.54,0,0,1,1.34,1.73l-.14,1a1.54,1.54,0,0,1-1.72,1.33l-3.3-.42,2.11.27a1.13,1.13,0,0,1,1,1.26l-.19,1.44,47.44,6.09.21-3.67a1,1,0,0,1,1.09-1h.08a1,1,0,0,1,.91,1.09l-.22,3.82-1.59-.21,3.65.47a5.47,5.47,0,0,1,1.57.45l.49-9.51c-1-.42-2.31-.76-3.56-1.21Z"/><path class="cls-74" d="M380.22,322.76l22.31,2.87a3.36,3.36,0,0,1,.34-.95l-22.52-2.9h0Z"/><path class="cls-75" d="M436.19,347.14h.07a1,1,0,0,0,1.1-1l.1-1.78a11.18,11.18,0,0,1-2-.94l-.14,2.61A1,1,0,0,0,436.19,347.14Z"/><path class="cls-75" d="M436.9,354.39l.22-3.82a1,1,0,0,0-.91-1.09h-.08a1,1,0,0,0-1.09,1l-.21,3.67.48.06Z"/><path class="cls-5" d="M425.44,358.76s0,.07,0,.11S425.45,358.8,425.44,358.76Z"/><path class="cls-5" d="M419.94,379.68c2.35-1.82,4-1.9,5.18-1.75s2-.2,2.51-3.78,8.1-3.48,8.16-3.91.7-.93-3.85-2.39c-3.49-1.12-5.73-5.25-6.4-8.57a.22.22,0,0,0,0,.08l-2.41-.31a1,1,0,0,1-.9-1.16h0l-2.3-.29h0a1.05,1.05,0,0,1-1.17.9h0l-4.37-.56a1,1,0,0,1-.9-1.17h0l-2.31-.3h0a1,1,0,0,1-1.16.91h0l-4.37-.56a1,1,0,0,1-.9-1.16h0l-2.31-.3h0a1,1,0,0,1-1.16.9h0l-4.37-.56a1,1,0,0,1-.9-1.17h0l-2.31-.29h0a1,1,0,0,1-1.16.9h0l-3.47-.45a2.38,2.38,0,0,1,.12,1.07l-.78,6a12.77,12.77,0,0,1-14.3,11l-.23,0-.34,2.69,2,.25a1,1,0,0,1,1.16-.9h0l4.38.57a1,1,0,0,1,.9,1.16l2.3.3a1.05,1.05,0,0,1,1.17-.9h0l4.37.56a1,1,0,0,1,.9,1.17L393,378a1,1,0,0,1,1.16-.9h0l4.37.56a1.05,1.05,0,0,1,.9,1.17l2.3.3a1,1,0,0,1,1.17-.9h0l4.37.56a1,1,0,0,1,.9,1.16l2.31.3a1,1,0,0,1,1.16-.9h0l4.37.56a1.05,1.05,0,0,1,.9,1.17l1.76.22-1.76-.22h0a1,1,0,0,1-1.16.9h0l-4.37-.56a1.05,1.05,0,0,1-.9-1.17h0l-2.31-.3h0a1,1,0,0,1-1.16.9h0l-4.38-.56a1,1,0,0,1-.9-1.16h0l-2.3-.3a1,1,0,0,1-1.16.9h0l-4.37-.56A1.05,1.05,0,0,1,393,378h0l-2.31-.29a1,1,0,0,1-1.16.9h0l-4.38-.57a1,1,0,0,1-.9-1.16h0l-2.3-.3h0a1.05,1.05,0,0,1-1.17.9h0l-4.37-.56a1,1,0,0,1-.9-1.17h0l-2-.25-.5,3.95,60.05,7.72-15.6-2C417.79,383.37,418.48,380.81,419.94,379.68Z"/><path class="cls-5" d="M435.85,387.39a5.39,5.39,0,0,0,4.95-4.69A5.39,5.39,0,0,1,435.85,387.39Z"/><polygon class="cls-5" points="442.76 367.5 442.78 367.35 440.8 382.7 442.76 367.5"/><path class="cls-5" d="M425.33,357.67s0,.08,0,.12S425.33,357.71,425.33,357.67Z"/><path class="cls-5" d="M425.37,358.18a.28.28,0,0,0,0,.09A.28.28,0,0,1,425.37,358.18Z"/><path class="cls-5" d="M386.74,353.12l.46.05.11,0a1,1,0,0,1,1.11-.7h0l4.37.56a1,1,0,0,1,.9,1.17l2.31.29a1,1,0,0,1,1.16-.9h0l4.37.56a1,1,0,0,1,.9,1.17l2.31.3a1,1,0,0,1,1.16-.9h0l4.37.56a1,1,0,0,1,.9,1.16l2.31.3a1,1,0,0,1,1.16-.9h0l4.38.56a1.05,1.05,0,0,1,.9,1.17l2.3.29a1,1,0,0,1,1.16-.9h0l1.91.25h0c0-.23,0-.45.05-.66a4,4,0,0,1,2.81-3.31L439,354.65l-3.65-.47-.48-.06L387.39,348Z"/><line class="cls-81" x1="411.19" y1="356.46" x2="413.5" y2="356.76"/><line class="cls-81" x1="402.44" y1="355.34" x2="404.75" y2="355.64"/><line class="cls-81" x1="419.94" y1="357.59" x2="422.24" y2="357.88"/><line class="cls-81" x1="393.7" y1="354.22" x2="396.01" y2="354.51"/><path class="cls-77" d="M410.29,355.3l-4.37-.56h0a1,1,0,0,0-1.16.9h0a1,1,0,0,0,.9,1.16l4.37.56h0a1,1,0,0,0,1.16-.91h0A1,1,0,0,0,410.29,355.3Z"/><path class="cls-77" d="M401.54,354.17l-4.37-.56h0a1,1,0,0,0-1.16.9h0a1,1,0,0,0,.9,1.17l4.37.56h0a1,1,0,0,0,1.16-.9h0A1,1,0,0,0,401.54,354.17Z"/><path class="cls-77" d="M419,356.42l-4.38-.56h0a1,1,0,0,0-1.16.9h0a1,1,0,0,0,.9,1.17l4.37.56h0a1.05,1.05,0,0,0,1.17-.9h0A1.05,1.05,0,0,0,419,356.42Z"/><path class="cls-77" d="M392.8,353.05l-4.37-.56h0a1,1,0,0,0-1.11.7,2.31,2.31,0,0,1,1.75,1.48l3.47.45h0a1,1,0,0,0,1.16-.9h0A1,1,0,0,0,392.8,353.05Z"/><path class="cls-77" d="M423.41,357h0a1,1,0,0,0-1.16.9h0a1,1,0,0,0,.9,1.16l2.41.31a.22.22,0,0,1,0-.08c0-.14-.06-.27-.08-.41s0-.07,0-.11-.05-.33-.06-.49a.28.28,0,0,1,0-.09c0-.13,0-.26,0-.39s0-.08,0-.12,0-.29,0-.43h0Z"/><line class="cls-81" x1="418.68" y1="381.28" x2="416.92" y2="381.06"/><line class="cls-81" x1="390.68" y1="377.69" x2="392.99" y2="377.98"/><line class="cls-81" x1="375.5" y1="375.73" x2="373.53" y2="375.48"/><line class="cls-81" x1="381.94" y1="376.56" x2="384.24" y2="376.86"/><line class="cls-81" x1="410.48" y1="380.23" x2="408.17" y2="379.93"/><line class="cls-81" x1="399.43" y1="378.81" x2="401.73" y2="379.11"/><path class="cls-77" d="M411.38,381.4l4.37.56h0a1,1,0,0,0,1.16-.9h0a1.05,1.05,0,0,0-.9-1.17l-4.37-.56h0a1,1,0,0,0-1.16.9h0A1.05,1.05,0,0,0,411.38,381.4Z"/><path class="cls-77" d="M393.89,379.15l4.37.56h0a1,1,0,0,0,.26-2.07l-4.37-.56h0a1,1,0,0,0-1.16.9h0A1.05,1.05,0,0,0,393.89,379.15Z"/><path class="cls-77" d="M402.63,380.27l4.38.56h0a1,1,0,0,0,1.16-.9h0a1,1,0,0,0-.9-1.16l-4.37-.56h0a1,1,0,0,0-1.17.9h0A1,1,0,0,0,402.63,380.27Z"/><path class="cls-77" d="M376.4,376.9l4.37.56h0a1.05,1.05,0,0,0,1.17-.9h0a1,1,0,0,0-.9-1.16l-4.38-.57h0a1,1,0,0,0-1.16.9h0A1,1,0,0,0,376.4,376.9Z"/><path class="cls-77" d="M385.14,378l4.38.57h0a1,1,0,0,0,.26-2.07l-4.37-.56h0a1.05,1.05,0,0,0-1.17.9h0A1,1,0,0,0,385.14,378Z"/><path class="cls-78" d="M443.13,301.64a10,10,0,0,0,1.17-2.34c.17-.85-1.28-2.67-2.26-3.79l-8.67-1.11a5.09,5.09,0,0,1-5.28,3l-17.32-2.23a5.07,5.07,0,0,1-4.36-4.2l-21.79-2.81-.75,5.9h0Z"/><path class="cls-78" d="M410.91,327.66l-4.38-.56-.21,1.64,4.4.57,0-.41Z"/><path class="cls-78" d="M402.1,328.93l.39-3.08c0-.08,0-.15,0-.22l-22.31-2.87h0l-.74,5.89,23.48,3A3.41,3.41,0,0,1,402.1,328.93Z"/><path class="cls-78" d="M419.49,330.43l4.41.57.21-1.64-4.38-.57-.16,1.25C419.55,330.17,419.52,330.3,419.49,330.43Z"/><path class="cls-78" d="M426.41,334.68l6.65.86a7.44,7.44,0,0,0-.15-2.19c-.53-1.44-3-2.16-3-2.16l-1.8-.23-.17,1.29A3.41,3.41,0,0,1,426.41,334.68Z"/><path class="cls-3" d="M428.18,353.27a4,4,0,0,0-2.81,3.31c0,.21,0,.43-.05.66s0,.28,0,.43,0,.08,0,.12,0,.26,0,.39a.28.28,0,0,0,0,.09c0,.16,0,.32.06.49s0,.07,0,.11.05.27.08.41c.67,3.32,2.91,7.45,6.4,8.57,4.55,1.46,3.9,2,3.85,2.39s-7.64.32-8.16,3.91-1.35,3.93-2.51,3.78-2.83-.07-5.18,1.75c-1.46,1.13-2.15,3.69-2.46,5.46l15.6,2,1.68.21a5,5,0,0,0,1.09,0,5.39,5.39,0,0,0,4.95-4.69l2-15.35.85-6.65a5.4,5.4,0,0,0-2.64-5.36,4,4,0,0,0-.46-.24,5.47,5.47,0,0,0-1.57-.45Zm4.11,30.1h0a3,3,0,0,1,.77-6h0a3,3,0,0,1-.77,6Zm2.46-19.15h0a3,3,0,0,1,.77-6.05h0a3,3,0,0,1-.77,6.05Z"/><path class="cls-3" d="M428.26,327.94a3.37,3.37,0,0,1,.07,1.23L428.1,331l1.8.23s2.48.72,3,2.16a7.44,7.44,0,0,1,.15,2.19c-.05,2-.21,4.61.8,6.38a4.3,4.3,0,0,0,1.56,1.52,11.18,11.18,0,0,0,2,.94c1.25.45,2.57.79,3.56,1.21h0l.37-7a8.9,8.9,0,0,0-6.78-9.74c-.32-.07-.65-.14-1-.18Z"/><path class="cls-79" d="M435.52,358.17h0a3,3,0,0,0-.77,6.05h0a3,3,0,0,0,.77-6.05Z"/><path class="cls-79" d="M433.06,377.33h0a3,3,0,0,0-.77,6h0a3,3,0,0,0,.77-6Z"/><path class="cls-3" d="M442,295.51h0c1,1.12,2.43,2.94,2.26,3.79a10,10,0,0,1-1.17,2.34,5,5,0,0,0-.62,2.12c-.07,2,0,3.75,0,3.75a3.16,3.16,0,0,1,.44,2.4c-.28,1.47-2.81,4.33-3.31,6s1.41,1.82.32,2.67-5.56.88-6,3.82a7.32,7.32,0,0,0,2.24,6.45h0a6.47,6.47,0,0,0,.76,0H437l.72-.11.1,0c.24-.05.48-.1.72-.17h0A10.21,10.21,0,0,0,440,328l.07,0c.22-.1.43-.21.64-.33l.09,0,.61-.38.05,0a10.38,10.38,0,0,0,1.17-.93l.06-.06c.18-.17.34-.34.5-.52l.07-.08c.16-.18.32-.36.46-.55l.05-.07a9.78,9.78,0,0,0,.81-1.27.35.35,0,0,1,.05-.08q.16-.33.3-.66l.05-.11c.1-.23.18-.46.26-.69l0-.1q.12-.37.21-.75l4.4-18.88a5.31,5.31,0,0,0-1.86-5.36,5.24,5.24,0,0,0-2.64-1.12Z"/><path class="cls-80" d="M383.73,336.78a2.2,2.2,0,0,1,.37.07,5.63,5.63,0,0,0-4.87-5h-.16l-.54,4.26Z"/><path class="cls-76" d="M377,348.07l.22-.61,3.06.39c1.22.16,1.87-1.17,2.18-2.11a1.14,1.14,0,0,1,1.16-.79h0l-5.44-.7a1.52,1.52,0,0,1-.67-.26Z"/><path class="cls-80" d="M383.63,345a1.14,1.14,0,0,0-1.16.79c-.31.94-1,2.27-2.18,2.11l-3.06-.39-.22.61h0l-1.35,10.62h0a3.17,3.17,0,0,0,3.66-2.72l.19-1.47a2.29,2.29,0,0,1,2.57-2l4.66.6.65-5.09.19-1.44a1.13,1.13,0,0,0-1-1.26l-2.11-.27-.8-.11Z"/><path class="cls-76" d="M388.4,361.78l.78-6a2.38,2.38,0,0,0-.12-1.07,2.31,2.31,0,0,0-1.75-1.48l-.11,0-.46-.05-4.66-.6a2.29,2.29,0,0,0-2.57,2l-.19,1.47a3.17,3.17,0,0,1-3.66,2.72l-1.79,14.1h0l.23,0A12.77,12.77,0,0,0,388.4,361.78Z"/><path class="cls-76" d="M383,342.19l-5.2-.66h0l-.31,2.46h0a1.52,1.52,0,0,0,.67.26l5.44.7h.05l.8.11,3.3.42a1.54,1.54,0,0,0,1.72-1.33l.14-1a1.54,1.54,0,0,0-1.34-1.73l-2.68-.35A2.7,2.7,0,0,1,383,342.19Z"/><path class="cls-80" d="M383.73,336.78l-5.2-.67h0l-.69,5.42,5.2.66a2.7,2.7,0,0,0,2.59-1.16,2.58,2.58,0,0,0,.46-1.2,2.72,2.72,0,0,0-2-3A2.2,2.2,0,0,0,383.73,336.78Z"/><path class="cls-80" d="M408.79,337l-.37,2.85a4.69,4.69,0,0,0,4.05,5.25l1.33.17a4.69,4.69,0,0,0,5.25-4.05l.37-2.85c0-.06,0-.12,0-.19l-10.61-1.36A1.13,1.13,0,0,0,408.79,337Z"/><path class="cls-80" d="M422.72,312.66l.37-2.84a4.69,4.69,0,0,0-4.06-5.25l-1.32-.17a4.68,4.68,0,0,0-5.25,4.05l-.37,2.85c0,.13,0,.26,0,.39l10.59,1.36A2.44,2.44,0,0,0,422.72,312.66Z"/><path class="cls-76" d="M405.07,332.78a3.49,3.49,0,0,1-.8-.21,3.14,3.14,0,0,0,2.62,4l1.93.25,10.61,1.36,1.93.25a3.15,3.15,0,0,0,3.55-3.23,2.88,2.88,0,0,1-.83,0Z"/><path class="cls-76" d="M421,319.27a3.44,3.44,0,0,1,1.1.34l.63.08a4.33,4.33,0,0,0,4.44-2.41,2.89,2.89,0,0,0-2.54-4l-1.94-.25-10.59-1.36-1.94-.25a2.9,2.9,0,0,0-3.46,3.22,4.32,4.32,0,0,0,3.69,3.44l.63.08a3.67,3.67,0,0,1,1.15-.05Z"/><path class="cls-76" d="M416.38,320a4.42,4.42,0,0,1,3.86,4.66l3.48.45.25-1.95a3.48,3.48,0,0,0-1.91-3.55,3.44,3.44,0,0,0-1.1-.34l-8.83-1.14a3.67,3.67,0,0,0-1.15.05,3.48,3.48,0,0,0-2.74,3l-.25,1.95,3.47.44A4.44,4.44,0,0,1,416.38,320Z"/><path class="cls-76" d="M402.53,325.63c0,.07,0,.14,0,.22l-.39,3.08a3.41,3.41,0,0,0,.86,2.74,3.52,3.52,0,0,0,2.11,1.11l19,2.44a2.88,2.88,0,0,0,.83,0,3.48,3.48,0,0,0,1.5-.54,3.41,3.41,0,0,0,1.52-2.43l.17-1.29.23-1.79a3.37,3.37,0,0,0-.07-1.23,3.42,3.42,0,0,0-2.9-2.62l-1.64-.21-3.48-.45c0,.1,0,.21,0,.31l-.49,3.82,4.38.57L423.9,331l-4.41-.57a4.44,4.44,0,0,1-8.77-1.12l-4.4-.57.21-1.64,4.38.56.49-3.82.06-.31-3.47-.44-1.65-.22a3.45,3.45,0,0,0-3.47,1.81A3.36,3.36,0,0,0,402.53,325.63Z"/><path class="cls-80" d="M416.38,320a4.44,4.44,0,0,0-4.92,3.53l-.06.31-.49,3.82-.16,1.24,0,.41a4.44,4.44,0,0,0,8.77,1.12c0-.13.06-.26.08-.39l.16-1.25.49-3.82c0-.1,0-.21,0-.31A4.42,4.42,0,0,0,416.38,320Z"/><path class="cls-76" d="M406.39,289.46a4.81,4.81,0,0,0,0,1.47h0a5.07,5.07,0,0,0,4.36,4.2l17.32,2.23a5.09,5.09,0,0,0,5.28-3h0a5.14,5.14,0,0,0,.39-1.42,5.05,5.05,0,0,0-4.38-5.67l-3.18-.41a3,3,0,0,1,0,.9,3.09,3.09,0,0,1-3.46,2.67l-5.09-.65a3.08,3.08,0,0,1-2.43-4.33l-3.18-.41a5.23,5.23,0,0,0-1.25,0A5.06,5.06,0,0,0,406.39,289.46Z"/><path class="cls-80" d="M417.67,289.82l5.09.65a3.09,3.09,0,0,0,3.46-2.67,3,3,0,0,0,0-.9,3.1,3.1,0,0,0-2.65-2.56l-5.09-.65a3.09,3.09,0,1,0-.79,6.13Z"/><path class="cls-4" d="M45.19,254.9,7.84,224.05c-10.16-8.38-10.49-24.39-.73-35.28h0c9.27-10.33,24.24-12.2,33.88-4.24l38.67,31.94c9.56,8.57,9.6,24.13.08,34.74h0C70.22,261.82,54.75,263.48,45.19,254.9Z"/><circle class="cls-76" cx="31.96" cy="214.58" r="14.85"/><circle class="cls-76" cx="14.6" cy="194.59" r="6.07"/><circle class="cls-76" cx="35.03" cy="192.46" r="6.07"/><path class="cls-4" d="M152.84,298.83a88.83,88.83,0,0,1-10.45,10.88C116.75,332.39,56,369.41,29.84,329A41.2,41.2,0,0,1,42,272l59.63-38.6a41.19,41.19,0,0,1,57,12.19l.74,1.13C171.09,264.85,165,283.75,152.84,298.83Z"/><path class="cls-3" d="M115.29,250.18S106.33,286,97,288.79c-7.18,2.17-15.84,2-23.49,2.3-10.27.35-22.44,1.71-32.71-1C35.11,288.63,25,284.66,23,279c-3-8.52,3.58-13.55,8.89-20,7.25-8.84,14.71-17.58,21.61-26.66,3.25-4.28,7.68-12.19,15.09-10.41,3.94.93,50.05,22.27,50.05,22.27Z"/><path class="cls-80" d="M180.83,354.17c-21.07-4.19-43.53-9.8-62.44-16.6-38.87-14-89.86-47.2-113.86-64.62a8.31,8.31,0,1,1,9.76-13.45C37.58,276.4,86.9,308.58,124,321.93s90.24,22.16,114.51,23.92a8.31,8.31,0,0,1-1.2,16.57C224,361.46,203.19,358.61,180.83,354.17Z"/><path class="cls-76" d="M302.16,406.16a15.11,15.11,0,0,0,1.07-2.32c.5-1.49.43-5.13.28-7.92a6.24,6.24,0,0,1,2.6-5.44c1.37-1,2.79-2.15,3.11-3,.66-1.79-12.3-10.06-12.06-12.06.18-1.59,14.23.05,14.81-2.07s-1.73-14.78-1.89-16.09,3-13.16,2.91-15.62-3.44-3.53-3.55-6.12c-.07-1.76,1.49-11.11,2-17.83a6,6,0,0,0-.25-2.35,13.39,13.39,0,0,0-1.31-3c-6-10.08-38.42,9.24-45.64,12.62-11,5.14-21.56,13.6-25.43,25.49a25.1,25.1,0,0,0-1.2,6.86c-.38,10.18,5.07,20.43,11.88,27.72,10.11,10.83,31.27,25.4,47.59,24.36Z"/><path class="cls-4" d="M194.48,327A89.66,89.66,0,0,1,184,337.89c-25.65,22.68-86.37,59.7-112.55,19.25a41.18,41.18,0,0,1,12.19-57l59.63-38.6a41.18,41.18,0,0,1,57,12.19l.73,1.13C212.73,293,206.61,311.93,194.48,327Z"/><path class="cls-82" d="M65.82,347.36a2.09,2.09,0,0,1-1.6-1.51,43.14,43.14,0,0,1,18.32-47.41l13.38-8.66a2.07,2.07,0,1,1,2.25,3.48L84.8,301.92a39,39,0,0,0-16.56,42.87,2.09,2.09,0,0,1-1.48,2.54A2.14,2.14,0,0,1,65.82,347.36Z"/><path class="cls-3" d="M192.32,262.22c8.56,9,15.9,20.19,24.25,29.75a78.85,78.85,0,0,0,14.26,13.2c5.38,3.73,17.15,5.19,11.67,16.31-4.19,8.49-12.87,14.5-19.76,19.09C207.61,350.64,190.94,361,174,363.29c-30.75,4.22-57.1-15.39-77-39.79-9.83-12-17.85-26-27-38.82-2.54-3.55-2.1-9.12,1-12.5,10.46-11.36,20.73-23,31.11-34.45l77.7,12.06C184.06,253.84,188.26,258,192.32,262.22Z"/><path class="cls-4" d="M217.57,175.44c1.42-9.18,3-18.27,3.3-20.44,1.78-14.58,2.27-32-10.7-43.79-16.7-15.22-39.82-11.37-54.78,1.13-2.21,1.85-4.28,3.8-6.26,5.81l-2.25-.47-2.26-.43c-1.06-2.61-2.23-5.21-3.57-7.76-9-17.27-28.93-29.67-50.18-22-16.51,6-22.7,22.22-26.63,36.37-.63,2.27-2.87,12.51-5.26,22.17a76.26,76.26,0,0,0-12.22,29c-7.83,39.42,13.71,51.25,76.07,63.65,59.22,11.76,86.79,9.69,94.63-29.73A82.3,82.3,0,0,0,217.57,175.44Z"/><path class="cls-82" d="M61.77,221.62a2.07,2.07,0,0,1-.71-.28C48.66,213.45,43,203,43.15,188.41a2.08,2.08,0,1,1,4.15.05c-.16,13.18,4.77,22.24,16,29.37a2.08,2.08,0,0,1-1.52,3.79Z"/><path class="cls-83" d="M122.49,124.91A4.66,4.66,0,0,0,126,118.7c-3.89-11.76-14.15-19.52-24.86-18S82.81,112.64,82.42,125a4.66,4.66,0,0,0,5.15,5Z"/><path class="cls-83" d="M166.65,133.69a4.67,4.67,0,0,1-.89-7.09c8.09-9.38,20.54-12.63,29.84-7.1s12.41,18,8,29.6a4.67,4.67,0,0,1-6.66,2.62Z"/><ellipse class="cls-76" cx="76.03" cy="187.62" rx="15.07" ry="19.25" transform="translate(-122.8 225.63) rotate(-78.76)"/><ellipse class="cls-76" cx="158.29" cy="203.96" rx="15.07" ry="19.25" transform="translate(-72.61 319.46) rotate(-78.76)"/><circle class="cls-84" cx="93.35" cy="183.82" r="6.2"/><ellipse class="cls-85" cx="141.71" cy="180.69" rx="6.78" ry="4.77" transform="translate(-30.98 29.34) rotate(-10.66)"/><ellipse class="cls-85" cx="100.25" cy="172.45" rx="4.77" ry="6.78" transform="translate(-88.43 237.17) rotate(-78.76)"/><path class="cls-84" d="M119.2,197.17a2.24,2.24,0,0,1-3-.59,27.92,27.92,0,0,0-2-2.24c-.49-.51-1.1-1-1.1-1.73,0-1.32,1.44-2,2.59-1.88a24.58,24.58,0,0,1,6.11,1.21c1.06.36,2.14,1.45,1.7,2.66-.25.69-.81.87-1.44,1.13A23.51,23.51,0,0,0,119.2,197.17Z"/><path class="cls-84" d="M107.2,197.29a7,7,0,0,0,7.49,3,6,6,0,0,0,3.15-2.34,6.24,6.24,0,0,0,1.39-4.61,1.12,1.12,0,0,0-1.17-1,1.09,1.09,0,0,0-1,1.16,4,4,0,0,1-.92,3.11,5.71,5.71,0,0,1-1.08,1.11,2.58,2.58,0,0,1-1.08.51s-.33.07-.14,0l-.39,0-.39,0h-.16a5.27,5.27,0,0,1-.81-.12,4.21,4.21,0,0,1-.54-.16,5.23,5.23,0,0,1-2.52-2c-.8-1.15-2.62.06-1.82,1.21Z"/><path class="cls-84" d="M126.09,199.37a5.27,5.27,0,0,1-3.11.89,4.37,4.37,0,0,1-2.31-.77,4,4,0,0,1-1.37-2.32,4.08,4.08,0,0,1,.34-3.22,1.09,1.09,0,1,0-2-1,6.25,6.25,0,0,0-.48,4.78,6,6,0,0,0,2,3.37,7,7,0,0,0,8.07.07,1.09,1.09,0,0,0-1.21-1.82Z"/><path class="cls-86" d="M170.35,210l10.69-.22,1.52,0a3.13,3.13,0,0,0,2.88-3.33,3.19,3.19,0,0,0-3.33-2.89l-10.69.22-1.52,0a3.15,3.15,0,0,0-2.89,3.34,3.19,3.19,0,0,0,3.34,2.88Z"/><path class="cls-86" d="M181.18,216.72l-9.8-4.29-1.39-.61a3.12,3.12,0,1,0-2.8,5.57l9.8,4.29,1.39.61a3.12,3.12,0,1,0,2.8-5.57Z"/><path class="cls-86" d="M66.87,183.3,57.08,179l-1.4-.61A3.11,3.11,0,0,0,52.89,184l9.79,4.29,1.4.62a3.12,3.12,0,0,0,2.79-5.58Z"/><path class="cls-86" d="M52,197.16l10.69-.22,1.52,0a3.15,3.15,0,0,0,2.88-3.34,3.19,3.19,0,0,0-3.34-2.88L53,190.91l-1.52,0a3.14,3.14,0,0,0-2.88,3.34A3.2,3.2,0,0,0,52,197.16Z"/><path class="cls-3" d="M41.32,216.84c4.41-4,9.14-7.41,14.49-8.85,8-2.16,19.38,4.77,26.33,8.36a102.3,102.3,0,0,1,24.2,17.38c5.18,5.05,11.77,12.25,10.3,21.15-.74,4.52-3.86,6.35-7.41,5.42-12.68-3.33-22.91-13-35.47-16.67-13.29-3.85-27.9-2.86-40.27-9.94-1.77-1-3.65-2.86-3.15-5.11a6.15,6.15,0,0,1,1.72-2.71C35,222.7,38.13,219.69,41.32,216.84Z"/><path class="cls-3" d="M202.85,248.93c-3.46-5.5-7.51-10.71-13.16-14.34-8.46-5.43-24.75-4-34.43-3.71a146,146,0,0,0-35.86,5.45c-8.23,2.38-19.06,6.12-21.18,14.89-1.08,4.45,1.77,7.47,6.34,8.15,16.28,2.43,32.45-2,48.73.07,17.23,2.21,33.91,9.42,51.46,8.28,2.51-.16,5.51-1,5.89-3.32a5.53,5.53,0,0,0-.84-3.22C207.7,257,205.36,252.92,202.85,248.93Z"/><path class="cls-83" d="M106,223.49l4.87-4.76a2.73,2.73,0,0,1,4.56,2.56l-1.51,6.63a2.72,2.72,0,0,0,3,3.3l6.73-1A2.73,2.73,0,0,1,125.9,235l-5.12,4.48a2.72,2.72,0,0,0,.53,4.46l6,3.16a2.73,2.73,0,0,1-1,5.13l-6.77.61a2.73,2.73,0,0,0-2.2,3.93l3,6.09a2.73,2.73,0,0,1-3.84,3.55l-5.84-3.48a2.73,2.73,0,0,0-4.09,1.88l-1.14,6.71a2.72,2.72,0,0,1-5.19.61l-2.68-6.25a2.72,2.72,0,0,0-4.41-.88l-4.86,4.76a2.72,2.72,0,0,1-4.56-2.56l1.5-6.63a2.72,2.72,0,0,0-3.05-3.3l-6.73,1a2.73,2.73,0,0,1-2.19-4.75L78.41,249a2.73,2.73,0,0,0-.53-4.47l-6-3.15a2.73,2.73,0,0,1,1-5.13l6.77-.61a2.73,2.73,0,0,0,2.2-3.93l-3-6.09a2.72,2.72,0,0,1,3.84-3.55l5.84,3.48a2.72,2.72,0,0,0,4.08-1.88L93.73,217a2.73,2.73,0,0,1,5.2-.61l2.67,6.25A2.73,2.73,0,0,0,106,223.49Z"/><circle class="cls-82" cx="99.6" cy="244.23" r="20.67"/><circle class="cls-83" cx="99.6" cy="244.23" r="13.39"/><path class="cls-4" d="M95.47,268.29c6.75,13.3,3.08,27-11.91,33.33-13,5.49-25.5.05-33.33-11.91-7.56-11.57-.58-27.42,11.92-33.33S89.22,256,95.47,268.29Z"/><ellipse class="cls-5" cx="238.26" cy="341.25" rx="14.62" ry="12.15" transform="translate(-129.97 535.22) rotate(-82.86)"/><ellipse class="cls-5" cx="234.97" cy="366.5" rx="14.62" ry="12.15" transform="translate(-157.9 554.08) rotate(-82.86)"/><ellipse class="cls-3" cx="237.44" cy="347.31" rx="8.15" ry="7.36" transform="translate(-136.7 539.72) rotate(-82.86)"/><ellipse class="cls-3" cx="235.79" cy="360.44" rx="8.15" ry="7.36" transform="translate(-151.17 549.58) rotate(-82.86)"/><circle class="cls-76" cx="236.62" cy="353.87" r="6.15"/><path class="cls-84" d="M146,201.57a3.24,3.24,0,0,1-1.18-.51l-7-4.87a3.12,3.12,0,0,1,.75-5.49l8.54-3a3.12,3.12,0,0,1,2.09,5.87l-2.85,1,2,1.42a3.12,3.12,0,0,1-2.4,5.61Z"/><path class="cls-5" d="M261.43,201.38c-11.11-17.78-23.75-35.41-38.33-51.1,0-.51-.09-1-.1-1.47-.11-5.51,5.26-11.42,5.26-11.42s6.76,12.44,13.87,17.09c11,7.21,20.7,7.52,25.5,5.27,2.87-1.34,7.07-5.71,1.54-10.53a6.79,6.79,0,0,0-2.88-1.5,5.9,5.9,0,0,1-4.39-5.47c-.24-4.18-.49-9.6-.41-12.15.15-4.48.72-55.08-8-64.94-9.56-10.78-18.71-9.51-35.4-4.91C204.37,64,159.44,86.84,141.64,96l-.2-.1c-5-2.36-34.95-19.52-46.17-19.17-2.11.07-3.56.76-4,2.3a8.83,8.83,0,0,0,.08,4.39c6.94,35.64,38.63,62,67.23,81.35,28.76,19.41,60.77,36.46,94.32,45.83,2.44.68,5.09,1.31,7.45.38C264.7,209.27,263.31,204.38,261.43,201.38Z"/><path class="cls-82" d="M142.75,93.9A2.08,2.08,0,0,0,141.58,96c.21,1.93,1.09,5.72,4.47,11.51,5.28,9,14.84,16.43,22.88,22.87,16.86,13.5,32.94,16.62,53.49,19.86a1.47,1.47,0,0,0,1.71-1.55c0-.66-.21-1.27-.22-1.55,0-1.19,2.06-2.11.56-3a53.13,53.13,0,0,0-7.48-3.9c-13.42-5.92-25.43-12.94-36.13-23.08-10.23-9.71-15.08-17.42-22.92-28.6a2.09,2.09,0,0,0-2.62-.69Z"/><path class="cls-87" d="M137.83,99.81,132.34,97a3.78,3.78,0,0,1,.06-6.78l5.54-2.68A3.76,3.76,0,0,0,140,84.76l.94-6.08a3.78,3.78,0,0,1,6.47-2l4.26,4.44A3.77,3.77,0,0,0,155,82.2l6.08-1A3.77,3.77,0,0,1,165,86.74l-2.91,5.42a3.78,3.78,0,0,0,0,3.52l2.81,5.47a3.78,3.78,0,0,1-4,5.45l-6.06-1.1a3.78,3.78,0,0,0-3.35,1.06l-4.34,4.37a3.78,3.78,0,0,1-6.43-2.16l-.83-6.09A3.78,3.78,0,0,0,137.83,99.81Z"/><path class="cls-76" d="M145.24,110.57l-2.81-1.41a1.94,1.94,0,0,1,0-3.47l2.83-1.37a2,2,0,0,0,1.07-1.45l.47-3.11a1.93,1.93,0,0,1,3.3-1.06L152.3,101a2,2,0,0,0,1.71.57l3.11-.52a1.94,1.94,0,0,1,2,2.82l-1.48,2.78a1.91,1.91,0,0,0,0,1.8l1.44,2.79A1.93,1.93,0,0,1,157,114l-3.1-.55a1.93,1.93,0,0,0-1.71.55L150,116.24a1.94,1.94,0,0,1-3.3-1.09l-.43-3.12A1.93,1.93,0,0,0,145.24,110.57Z"/><circle class="cls-76" cx="8.4" cy="212.46" r="6.07"/><path class="cls-5" d="M498.79,202.66a16.58,16.58,0,0,0,14.26,11.21c11.38,1.13,28.39-10.18,28.39-10.18l-10.5-9.28-25.46-.35Z"/><path class="cls-5" d="M488.18,180.68a20.73,20.73,0,0,0,1.29,15.53c4.11,7.87,7.77,8.71,12.74,7.77s19.77-3.07,22.65-5.26-3.61-15.62-3.61-15.62Z"/><path class="cls-5" d="M522.09,176s-12.61-.22-19.6-2.28-16.18-9.36-18.4-8.94-6.17,1.47-4,8.11,6.44,13.81,22.5,15.23,25.46,1.63,25.46,1.63Z"/><path class="cls-5" d="M603.86,182.82a16.6,16.6,0,0,1-9.2,15.64c-10.18,5.2-30.15.87-30.15.87l6.4-12.46,23.58-9.62Z"/><path class="cls-5" d="M605.72,158.49a20.71,20.71,0,0,1,4.46,14.93c-1,8.82-4.06,10.94-9,11.88s-19.53,4.35-23,3.36-2.34-15.87-2.34-15.87Z"/><path class="cls-5" d="M572.45,166.53s11.67-4.81,17.42-9.27,11.65-14.62,13.87-15,6.28-.88,6.68,6.1-1,15.21-15.41,22.39-23.11,10.8-23.11,10.8Z"/><path class="cls-4" d="M581.66,165.57c-2-10.84-11.34-18.19-20.76-16.41-6.9,1.3-11.95,7.13-13.35,14.42a1.38,1.38,0,0,1-2.52.48c-4-6.28-10.8-9.87-17.7-8.57-9.42,1.78-15.39,12-13.34,22.86,4.58,24.27,31.14,36.71,40,40.21a4.87,4.87,0,0,0,5.13-1C566.05,211.11,586.25,189.84,581.66,165.57Z"/></g></g></g></svg>